<?xml version="1.0" encoding="UTF-8" standalone="no"?>
<svg
   xmlns:dc="http://purl.org/dc/elements/1.1/"
   xmlns:cc="http://creativecommons.org/ns#"
   xmlns:rdf="http://www.w3.org/1999/02/22-rdf-syntax-ns#"
   xmlns:svg="http://www.w3.org/2000/svg"
   xmlns="http://www.w3.org/2000/svg"
   xmlns:sodipodi="http://sodipodi.sourceforge.net/DTD/sodipodi-0.dtd"
   xmlns:inkscape="http://www.inkscape.org/namespaces/inkscape"
   inkscape:version="1.0 (4035a4fb49, 2020-05-01)"
   sodipodi:docname="Electricitat.svg"
   viewBox="0 0 272 234"
   height="234"
   width="272"
   id="svg2100"
   version="1.1">
  <metadata
     id="metadata2106">
    <rdf:RDF>
      <cc:Work
         rdf:about="">
        <dc:format>image/svg+xml</dc:format>
        <dc:type
           rdf:resource="http://purl.org/dc/dcmitype/StillImage" />
        <dc:title></dc:title>
      </cc:Work>
    </rdf:RDF>
  </metadata>
  <defs
     id="defs2104" />
  <sodipodi:namedview
     inkscape:current-layer="g2108"
     inkscape:window-maximized="1"
     inkscape:window-y="-8"
     inkscape:window-x="-8"
     inkscape:cy="139.98666"
     inkscape:cx="163.16072"
     inkscape:zoom="1.8162393"
     showgrid="false"
     id="namedview2102"
     inkscape:window-height="1017"
     inkscape:window-width="1920"
     inkscape:pageshadow="2"
     inkscape:pageopacity="0"
     guidetolerance="10"
     gridtolerance="10"
     objecttolerance="10"
     borderopacity="1"
     bordercolor="#666666"
     pagecolor="#ffffff" />
  <g
     id="g2108"
     inkscape:label="Image"
     inkscape:groupmode="layer">
    <path
       id="path2128"
       d="m 111.87918,229.7624 c -7.50223,-0.50885 -20.999278,-2.71748 -30.951308,-5.06481 -10.57044,-2.49318 -23.97037,-6.6238 -38.15382,-11.76114 l -5.25588,-1.90372 -4.56331,-6.37688 c -12.36723,-17.28223 -19.92943,-34.19129 -23.6588804,-52.90117 -1.63771,-8.21605 -2.07875,-13.65804 -1.84094,-22.71545 0.49434,-18.82737 6.2795604,-36.374833 17.6046104,-53.397533 5.19062,-7.802023 9.60479,-13.160264 16.52194,-20.055542 C 53.841472,43.365051 68.300572,33.224719 85.405102,24.852238 109.22775,13.191314 137.88322,5.4651318 163.55485,3.781247 c 9.22993,-0.6054214 37.13144,-0.2466162 44.13955,0.5676215 12.91065,1.5000251 28.26776,4.806424 42.83491,9.2223955 5.58342,1.692592 16.32449,5.478979 16.67474,5.878095 0.12508,0.142528 -1.84862,11.687294 -4.88095,28.550286 -6.77991,37.703421 -14.36076,66.381695 -23.72182,89.739345 -14.28489,35.64354 -31.69014,59.84455 -53.3344,74.15845 -15.21482,10.06196 -29.85729,15.07365 -50.6122,17.32311 -4.04278,0.43816 -19.04278,0.79502 -22.7755,0.54185 z M 77.538852,193.49566 c 0.57158,-0.59659 1.15585,-1.66779 1.29838,-2.38043 0.25023,-1.25112 0.0931,-1.45868 -4.56765,-6.03258 -5.79549,-5.68754 -12.34844,-10.74714 -13.91918,-10.74714 -1.99901,0 -3.82742,2.57105 -3.35572,4.7187 0.57974,2.63955 16.23777,15.501 18.89646,15.52149 0.33467,0.003 1.07613,-0.48344 1.64771,-1.08004 z m 15.37046,-2.81015 c 2.97378,-1.81311 2.52483,-4.33045 -1.56016,-8.74809 -5.32072,-5.75401 -22.5631,-20.02176 -26.18893,-21.67086 -5.3438,-2.43047 -10.32002,1.32851 -7.62018,5.7562 2.43951,4.00076 24.8621,23.04857 29.01175,24.64526 2.56701,0.98772 4.75631,0.99374 6.35752,0.0175 z m 7.687868,-9.5669 c 2.50853,-1.19038 3.01547,-3.91255 1.3357,-7.17243 -1.2028,-2.33423 -8.502558,-9.10908 -18.279738,-16.96527 -9.4407,-7.58584 -10.71176,-8.34083 -14.04211,-8.34083 -1.75321,0 -2.16028,0.16222 -3.32177,1.3237 -1.48531,1.48531 -1.75874,3.34209 -0.76826,5.21682 1.15558,2.1872 9.93733,10.0169 22.49557,20.05678 7.83056,6.26025 9.82099,7.19075 12.580608,5.88123 z m 15.9539,-10.25664 c 1.74488,-0.81924 3.85321,-2.56722 10.57016,-8.76349 5.21328,-4.80916 9.51555,-8.31816 11.94238,-9.74038 2.11206,-1.23775 7.31087,-2.60449 15.64128,-4.11202 14.17916,-2.56596 17.74047,-4.23396 25.3061,-11.85253 8.35747,-8.41595 13.74442,-18.5135 16.00971,-30.00933 1.02641,-5.20881 0.94258,-14.692375 -0.17605,-19.914784 -2.65103,-12.376628 -8.75943,-22.579228 -18.3994,-30.731756 -11.01699,-9.317089 -21.96534,-13.386945 -35.9774,-13.373965 -11.06434,0.01024 -21.19933,2.76836 -29.97069,8.156138 -8.46868,5.201864 -15.522188,13.048906 -19.626368,21.83434 -2.75146,5.889817 -3.33817,9.660531 -3.72212,23.921712 -0.34073,12.655675 -0.66666,13.646465 -8.37719,25.465695 -5.98984,9.18164 -6.43545,10.20847 -6.43545,14.82941 0,3.3547 0.10516,3.88837 1.13099,5.73974 2.38439,4.30322 21.66325,21.37601 29.545548,26.16467 4.95017,3.00733 9.4088,3.85597 12.5385,2.38655 z"
       style="fill:#abca61;fill-opacity:1;stroke-width:0.389325" />
  </g>
</svg>
