<?xml version="1.0" encoding="UTF-8" standalone="no"?>
<svg
   xmlns:dc="http://purl.org/dc/elements/1.1/"
   xmlns:cc="http://creativecommons.org/ns#"
   xmlns:rdf="http://www.w3.org/1999/02/22-rdf-syntax-ns#"
   xmlns:svg="http://www.w3.org/2000/svg"
   xmlns="http://www.w3.org/2000/svg"
   xmlns:sodipodi="http://sodipodi.sourceforge.net/DTD/sodipodi-0.dtd"
   xmlns:inkscape="http://www.inkscape.org/namespaces/inkscape"
   inkscape:version="1.0 (4035a4fb49, 2020-05-01)"
   sodipodi:docname="Enginyeria.svg"
   viewBox="0 0 272 237"
   height="237"
   width="272"
   id="svg10"
   version="1.1">
  <metadata
     id="metadata16">
    <rdf:RDF>
      <cc:Work
         rdf:about="">
        <dc:format>image/svg+xml</dc:format>
        <dc:type
           rdf:resource="http://purl.org/dc/dcmitype/StillImage" />
        <dc:title></dc:title>
      </cc:Work>
    </rdf:RDF>
  </metadata>
  <defs
     id="defs14" />
  <sodipodi:namedview
     inkscape:current-layer="g18"
     inkscape:window-maximized="1"
     inkscape:window-y="-8"
     inkscape:window-x="-8"
     inkscape:cy="106.65515"
     inkscape:cx="322.38645"
     inkscape:zoom="1.7932489"
     showgrid="false"
     id="namedview12"
     inkscape:window-height="1017"
     inkscape:window-width="1920"
     inkscape:pageshadow="2"
     inkscape:pageopacity="0"
     guidetolerance="10"
     gridtolerance="10"
     objecttolerance="10"
     borderopacity="1"
     bordercolor="#666666"
     pagecolor="#ffffff" />
  <g
     id="g18"
     inkscape:label="Image"
     inkscape:groupmode="layer">
    <path
       id="path38"
       d="m 110.48057,230.96467 c -14.475704,-0.66215 -33.980874,-4.85116 -55.886204,-12.00235 -12.07725,-3.94273 -17.07981,-6.10502 -19.53065,-8.44185 -2.23524,-2.13126 -9.25963,-12.35352 -13.14464,-19.12875 -7.38766,-12.88367 -13.02339,-28.6713 -15.2192,-42.63422 -0.88874,-5.65137 -0.88143,-23.07053 0.0123,-29.22432 2.48044,-17.08 10.51177,-34.948115 22.83258,-50.798034 4.60234,-5.920606 15.56757,-16.949657 21.82526,-21.952281 24.07858,-19.249297 56.941684,-33.262768 91.701164,-39.1031775 11.41124,-1.917356 20.25059,-2.517029 37.00627,-2.510553 21.18903,0.0082 31.98333,1.069126 48.62433,4.779126 9.66731,2.1552625 25.19411,6.6478355 31.85997,9.2184615 4.29253,1.655375 4.38709,1.732946 4.38709,3.598693 0,4.413859 -5.85563,35.832776 -10.93537,58.674732 -18.48882,83.137973 -48.60168,128.591523 -95.36466,143.947113 -14.12584,4.63851 -29.57824,6.42774 -48.16824,5.57741 z M 82.545216,202.25063 c 2.04952,-1.72455 5.59464,-8.66698 6.01104,-11.77143 0.26131,-1.94821 0.10573,-2.38197 -1.23174,-3.43403 -3.16322,-2.48819 -4.77606,-0.98074 -7.24449,6.77111 -1.51389,4.75423 -1.66527,6.27235 -0.8415,8.43903 0.68088,1.79083 1.17367,1.79014 3.30669,-0.004 z m 86.791494,-0.27728 c 0.20296,-0.32841 0.74444,-4.24339 1.2033,-8.69997 0.62411,-6.06166 0.67425,-8.26289 0.19904,-8.7381 -0.4752,-0.47521 -1.96536,-0.18016 -5.91537,1.17121 -5.89627,2.01724 -10.289,3.96041 -10.289,4.55146 0,0.44003 10.58622,11.05345 11.77811,11.80837 1.06042,0.67165 2.58024,0.62493 3.02392,-0.093 z M 99.224996,178.9903 c 3.568334,-8.90997 3.769314,-8.28425 -3.71762,-11.57401 -3.48132,-1.52968 -6.86213,-3.1542 -7.51291,-3.61002 -2.49039,-1.74434 -3.22764,-0.80674 -5.97396,7.59732 -2.29684,7.02859 -2.23954,7.54595 0.99594,8.99331 5.11443,2.28788 12.13728,4.84783 12.9653,4.72607 0.49899,-0.0734 1.80749,-2.54762 3.24325,-6.13267 z m 58.471724,4.57145 c 8.07235,-2.82249 11.33679,-4.43435 11.33679,-5.59768 0,-0.99024 -7.52422,-22.04128 -19.47739,-54.49325 -3.0892,-8.38697 -5.61673,-15.59774 -5.61673,-16.02393 0,-0.42619 0.62735,-2.93976 1.39412,-5.5857 1.68594,-5.81785 1.75828,-9.548152 0.27626,-14.246713 -1.49373,-4.735662 -4.11318,-8.12992 -9.14699,-11.852599 -5.15587,-3.812945 -6.59456,-6.013359 -4.32052,-6.608034 1.17837,-0.30815 1.75403,-3.668699 1.74342,-10.177522 -0.0108,-6.635809 -0.85225,-10.880786 -2.47889,-12.505921 -1.33561,-1.334365 -1.7982,-1.435255 -6.58082,-1.435255 -4.13227,0 -5.45151,0.208262 -6.70626,1.058693 -2.81314,1.906649 -3.17797,3.377148 -3.17797,12.809182 0,4.744086 0.15232,9.02255 0.33849,9.507692 0.18616,0.485147 0.81352,0.88208 1.39412,0.88208 2.66035,0 0.1227,3.813826 -3.88383,5.837003 -3.04818,1.53924 -6.73193,5.667618 -8.62424,9.665189 -1.62445,3.431693 -1.76764,4.191711 -1.75472,9.313102 0.0188,7.451693 1.3145,10.790843 6.03975,15.565073 4.04406,4.08598 7.07111,5.61487 13.23456,6.68445 2.49889,0.43365 4.87838,1.12561 5.28777,1.5377 0.40938,0.41209 3.11244,7.27372 6.00678,15.24807 l 5.26245,14.49882 -3.14645,0.40151 c -1.73054,0.22084 -6.40868,0.42085 -10.39585,0.44449 -12.03797,0.0714 -19.63004,-2.15864 -31.213244,-9.16823 -7.00102,-4.23667 -11.52183,-4.58888 -15.23407,-1.18687 -1.89429,1.73599 -2.03691,2.10126 -2.21861,5.68218 -0.24572,4.84294 0.64971,6.56756 5.16945,9.95644 4.10081,3.07478 15.16315,8.60014 21.190584,10.58418 5.7068,1.87849 10.4866,2.48957 19.51765,2.49525 5.95155,0.004 17.05961,-0.62851 21.63936,-1.23169 0.8149,-0.10733 1.64645,1.51233 4.36962,8.51098 1.84977,4.75394 3.5864,9.20814 3.85919,9.89823 0.2728,0.69009 0.60768,1.25471 0.74418,1.25471 0.13651,0 2.46393,-0.77474 5.17204,-1.72163 z m -42.87501,-47.50042 c 2.62749,-6.85968 4.2848,-12.86459 3.85772,-13.97757 -0.17175,-0.44756 -1.55258,-1.22571 -3.06851,-1.72922 -1.51593,-0.50351 -4.23144,-1.80718 -6.03447,-2.89704 -6.08233,-3.67654 -6.2154,-3.72234 -6.93066,-2.38586 -0.34545,0.64549 -2.00588,4.95815 -3.689824,9.58371 -3.51433,9.65334 -3.49443,9.99196 0.73258,12.46915 3.032004,1.77687 11.960884,5.25277 12.553104,4.88675 0.21692,-0.13405 1.37794,-2.81152 2.58006,-5.94992 z"
       style="fill:#abca61;fill-opacity:1;stroke-width:0.557647" />
    <path
       id="path40"
       d="m 118.68075,103.2691 c -3.1077,-2.05845 -5.82467,-5.590772 -6.3164,-8.211918 -0.48939,-2.608653 0.63412,-7.26297 2.36978,-9.817223 2.73505,-4.02499 9.35326,-5.878965 14.02728,-3.929493 4.18479,1.745423 7.88857,6.713147 7.91631,10.617816 0.021,2.954149 -1.52297,7.003439 -3.41445,8.954948 -2.07944,2.14544 -6.78918,4.09897 -9.88214,4.09897 -1.42695,0 -2.95468,-0.55679 -4.70038,-1.7131 z"
       style="fill:#abca61;fill-opacity:1;stroke-width:0.557647" />
  </g>
</svg>
