<?xml version="1.0" encoding="UTF-8" standalone="no"?>
<svg
   xmlns:dc="http://purl.org/dc/elements/1.1/"
   xmlns:cc="http://creativecommons.org/ns#"
   xmlns:rdf="http://www.w3.org/1999/02/22-rdf-syntax-ns#"
   xmlns:svg="http://www.w3.org/2000/svg"
   xmlns="http://www.w3.org/2000/svg"
   xmlns:sodipodi="http://sodipodi.sourceforge.net/DTD/sodipodi-0.dtd"
   xmlns:inkscape="http://www.inkscape.org/namespaces/inkscape"
   inkscape:version="1.0 (4035a4fb49, 2020-05-01)"
   sodipodi:docname="GGS_Fulla.svg"
   viewBox="0 0 151.03999 151.03999"
   height="151.03999"
   width="151.03999"
   id="svg10"
   version="1.1">
  <metadata
     id="metadata16">
    <rdf:RDF>
      <cc:Work
         rdf:about="">
        <dc:format>image/svg+xml</dc:format>
        <dc:type
           rdf:resource="http://purl.org/dc/dcmitype/StillImage" />
        <dc:title></dc:title>
      </cc:Work>
    </rdf:RDF>
  </metadata>
  <defs
     id="defs14" />
  <sodipodi:namedview
     inkscape:current-layer="g18"
     inkscape:window-maximized="1"
     inkscape:window-y="-8"
     inkscape:window-x="-8"
     inkscape:cy="-47.561479"
     inkscape:cx="390.99926"
     inkscape:zoom="1.4069121"
     showgrid="false"
     id="namedview12"
     inkscape:window-height="1017"
     inkscape:window-width="1920"
     inkscape:pageshadow="2"
     inkscape:pageopacity="0"
     guidetolerance="10"
     gridtolerance="10"
     objecttolerance="10"
     borderopacity="1"
     bordercolor="#666666"
     pagecolor="#ffffff" />
  <g
     id="g18"
     inkscape:label="Image"
     inkscape:groupmode="layer">
    <g
       style="fill:#b3c967;fill-opacity:1"
       transform="translate(-0.32490395,-1.5992474)"
       id="g22">
      <path
         id="path32"
         d="m 53.119996,69.319176 c 0,-0.06645 0.252,-0.318448 0.56,-0.56 0.50754,-0.398038 0.518858,-0.38672 0.12082,0.120819 -0.418039,0.53304 -0.68082,0.702554 -0.68082,0.439181 z"
         style="fill:#b3c967;fill-opacity:1;stroke-width:0.32" />
      <path
         id="path30"
         d="m 63.299996,127.7814 c 0.230998,-0.0924 0.506998,-0.0811 0.613334,0.0252 0.106333,0.10634 -0.08267,0.18197 -0.42,0.16807 -0.372784,-0.0154 -0.448608,-0.0912 -0.193334,-0.19333 z M 89.199994,22.508069 c 0.22,-0.08877 0.58,-0.08877 0.8,0 0.22,0.08877 0.04,0.161403 -0.4,0.161403 -0.44,0 -0.62,-0.07263 -0.4,-0.161403 z m 13.119996,0 c 0.22,-0.08877 0.58,-0.08877 0.8,0 0.22,0.08877 0.04,0.161403 -0.4,0.161403 -0.44,0 -0.62,-0.07263 -0.4,-0.161403 z"
         style="fill:#b3c967;fill-opacity:1;stroke-width:0.32" />
      <path
         id="path28"
         d="m 53.415776,94.159994 -0.775779,-0.88 0.879999,0.775779 c 0.822493,0.725085 1.026749,0.984221 0.77578,0.984221 -0.05732,0 -0.453319,-0.396 -0.88,-0.88 z m 25.444088,-25.119999 -0.939869,-1.04 1.04,0.939869 c 0.969427,0.87609 1.187088,1.140131 0.939869,1.140131 -0.05507,0 -0.523072,-0.468 -1.04,-1.04 z"
         style="fill:#b3c967;fill-opacity:1;stroke-width:0.32" />
      <path
         id="path26"
         d="m 64.239996,127.78806 c 0.22,-0.0888 0.58,-0.0888 0.8,0 0.22,0.0888 0.04,0.16141 -0.4,0.16141 -0.44,0 -0.62,-0.0726 -0.4,-0.16141 z m 39.439994,-12.70889 c 0,-0.0664 0.252,-0.31844 0.56,-0.56 0.50754,-0.39804 0.51886,-0.38672 0.12082,0.12082 -0.41804,0.53304 -0.68082,0.70256 -0.68082,0.43918 z m 2.88,-2.88 c 0,-0.0664 0.252,-0.31844 0.56,-0.56 0.50754,-0.39803 0.51886,-0.38672 0.12082,0.12082 -0.41804,0.53304 -0.68082,0.70256 -0.68082,0.43918 z M 77.759995,95.239174 c 0,-0.06645 0.252,-0.318447 0.56,-0.559999 0.507539,-0.398039 0.518857,-0.38672 0.120819,0.120819 -0.418038,0.53304 -0.680819,0.702553 -0.680819,0.43918 z m 1.28,-1.279999 c 0,-0.06645 0.252,-0.318448 0.56,-0.56 0.507539,-0.398039 0.518857,-0.38672 0.120819,0.120819 -0.418038,0.53304 -0.680819,0.702553 -0.680819,0.439181 z M 15.065262,85.573329 c 0.01535,-0.372784 0.09118,-0.448608 0.193333,-0.193335 0.09244,0.230999 0.08107,0.507002 -0.02526,0.613335 -0.106333,0.106332 -0.181965,-0.08267 -0.16807,-0.42 z M 48.41152,81.759995 c 0.0026,-0.88 0.06455,-1.20202 0.138102,-0.7156 0.07356,0.486419 0.07159,1.206419 -0.0044,1.6 -0.07596,0.39358 -0.136134,-0.0044 -0.133734,-0.8844 z M 15.065262,79.173329 c 0.01535,-0.372784 0.09118,-0.448608 0.193333,-0.193334 0.09244,0.230998 0.08107,0.506998 -0.02526,0.613334 -0.106333,0.106333 -0.181965,-0.08267 -0.16807,-0.42 z M 65.679996,63.77941 c 0.308,-0.08049 0.812,-0.08049 1.12,0 0.308,0.08049 0.056,0.146346 -0.56,0.146346 -0.616,0 -0.868,-0.06586 -0.56,-0.146346 z M 28.479998,49.159178 c 0,-0.06645 0.252,-0.318448 0.56,-0.56 0.507538,-0.398039 0.518856,-0.38672 0.120818,0.120819 -0.418038,0.53304 -0.680818,0.702553 -0.680818,0.439181 z m 4,-4.039181 c 0.318557,-0.352 0.651193,-0.64 0.739193,-0.64 0.088,0 -0.100636,0.288 -0.419193,0.64 -0.318557,0.352 -0.651194,0.64 -0.739194,0.64 -0.088,0 0.100637,-0.288 0.419194,-0.64 z M 86.339994,22.821402 c 0.230999,-0.09244 0.507002,-0.08107 0.613335,0.02526 0.106332,0.106333 -0.08267,0.181965 -0.42,0.16807 -0.372784,-0.01535 -0.448608,-0.09118 -0.193335,-0.193333 z m 4.3,-0.321988 c 0.308,-0.08049 0.812,-0.08049 1.12,0 0.308,0.08049 0.056,0.146344 -0.56,0.146344 -0.616,0 -0.868,-0.06585 -0.56,-0.146344 z m 9.919996,0 c 0.308,-0.08049 0.812,-0.08049 1.12,0 0.308,0.08049 0.056,0.146344 -0.56,0.146344 -0.616,0 -0.868,-0.06585 -0.56,-0.146344 z"
         style="fill:#b3c967;fill-opacity:1;stroke-width:0.32" />
      <path
         id="path24"
         d="m 62.422988,127.64411 c -7.575785,-0.67264 -16.113999,-2.60028 -25.30299,-5.71255 -8.296996,-2.81016 -7.56351,-2.3538 -10.678445,-6.64393 C 15.91116,100.78438 12.548907,83.571687 17.313425,68.55717 24.307671,46.516071 48.13681,29.088356 78.222305,24.010756 c 9.27039,-1.564585 21.517826,-1.907412 30.097685,-0.842486 8.66688,1.075726 18.3317,3.373256 25.03915,5.952326 2.32761,0.894985 2.62113,1.096499 2.48652,1.707088 -0.084,0.380773 -0.66337,3.716314 -1.2876,7.412313 -5.67487,33.600341 -12.8317,54.48487 -23.56036,68.752163 -9.34929,12.43295 -21.482871,19.25462 -36.757705,20.66569 -4.140902,0.38253 -7.396463,0.37875 -11.817007,-0.0138 z M 90.678624,101.91046 102.38631,87.980925 101.4227,85.350462 C 100.89271,83.903703 98.140627,76.34931 95.306954,68.562914 92.47328,60.776521 89.993984,54.206019 89.797405,53.961801 89.564532,53.672489 83.226855,52.432736 71.608834,50.403824 L 53.777676,47.289882 52.888835,48.343581 C 36.868718,67.335052 30.411376,75.114657 30.40629,75.429867 c -0.008,0.498816 12.115573,33.776683 12.411854,34.069033 0.244528,0.24128 33.951093,6.26814 35.307323,6.31308 0.733113,0.0243 2.401328,-1.82311 12.553157,-13.90152 z M 63.470937,99.16967 c -5.155898,-0.861389 -9.741987,-3.9808 -12.422524,-8.449676 -1.706963,-2.845776 -2.409117,-5.448592 -2.404618,-8.913708 0.0068,-5.206291 1.61681,-9.21608 5.086397,-12.667519 3.483942,-3.465722 7.537823,-5.128045 12.522572,-5.134973 5.130786,-0.0071 8.955893,1.58673 12.639032,5.266473 7.860365,7.853133 6.611206,20.688204 -2.636374,27.088639 -1.9688,1.362646 -4.103625,2.209091 -6.815427,2.702278 -2.689747,0.489177 -3.592233,0.505577 -5.969058,0.108486 z"
         style="fill:#b3c967;fill-opacity:1;stroke-width:0.32" />
    </g>
  </g>
</svg>
