<?xml version="1.0" encoding="UTF-8" standalone="no"?>
<svg
   xmlns:dc="http://purl.org/dc/elements/1.1/"
   xmlns:cc="http://creativecommons.org/ns#"
   xmlns:rdf="http://www.w3.org/1999/02/22-rdf-syntax-ns#"
   xmlns:svg="http://www.w3.org/2000/svg"
   xmlns="http://www.w3.org/2000/svg"
   xmlns:sodipodi="http://sodipodi.sourceforge.net/DTD/sodipodi-0.dtd"
   xmlns:inkscape="http://www.inkscape.org/namespaces/inkscape"
   inkscape:version="1.0 (4035a4fb49, 2020-05-01)"
   sodipodi:docname="GGS_Logo.svg"
   viewBox="0 0 1654 472"
   height="472"
   width="1654"
   id="svg52"
   version="1.1">
  <metadata
     id="metadata58">
    <rdf:RDF>
      <cc:Work
         rdf:about="">
        <dc:format>image/svg+xml</dc:format>
        <dc:type
           rdf:resource="http://purl.org/dc/dcmitype/StillImage" />
        <dc:title></dc:title>
      </cc:Work>
    </rdf:RDF>
  </metadata>
  <defs
     id="defs56" />
  <sodipodi:namedview
     inkscape:current-layer="g60"
     inkscape:window-maximized="1"
     inkscape:window-y="-8"
     inkscape:window-x="-8"
     inkscape:cy="43.232036"
     inkscape:cx="2359.241"
     inkscape:zoom="0.32073761"
     showgrid="false"
     id="namedview54"
     inkscape:window-height="1017"
     inkscape:window-width="1920"
     inkscape:pageshadow="2"
     inkscape:pageopacity="0"
     guidetolerance="10"
     gridtolerance="10"
     objecttolerance="10"
     borderopacity="1"
     bordercolor="#666666"
     pagecolor="#ffffff" />
  <g
     id="g60"
     inkscape:label="Image"
     inkscape:groupmode="layer">
    <g
       transform="translate(2.4599433e-8,-7.7945337)"
       id="g64">
      <path
         id="path78"
         d="m 199.75,398.33772 c 0.6875,-0.27741 1.8125,-0.27741 2.5,0 0.6875,0.27741 0.125,0.50439 -1.25,0.50439 -1.375,0 -1.9375,-0.22698 -1.25,-0.50439 z m 45.0625,-0.0208 c 0.72187,-0.28887 1.58437,-0.25335 1.91667,0.0789 0.33229,0.33229 -0.25834,0.56864 -1.3125,0.52522 -1.16495,-0.048 -1.4019,-0.28494 -0.60417,-0.60416 z m 336,0 c 0.72187,-0.28887 1.58438,-0.25335 1.91667,0.0789 0.33229,0.33229 -0.25834,0.56864 -1.3125,0.52522 -1.16495,-0.048 -1.4019,-0.28494 -0.60417,-0.60416 z m 44,0 c 0.72187,-0.28887 1.58438,-0.25335 1.91667,0.0789 0.33229,0.33229 -0.25834,0.56864 -1.3125,0.52522 -1.16495,-0.048 -1.4019,-0.28494 -0.60417,-0.60416 z m 323.9375,-1.0491 c 2.3375,-0.21053 6.1625,-0.21053 8.5,0 2.3375,0.21054 0.425,0.3828 -4.25,0.3828 -4.675,0 -6.5875,-0.17226 -4.25,-0.3828 z m -27.9375,-0.9509 c 0.72187,-0.28887 1.58438,-0.25335 1.91667,0.0789 0.33229,0.33229 -0.25834,0.56864 -1.3125,0.52522 -1.16495,-0.048 -1.4019,-0.28494 -0.60417,-0.60416 z m 62,0 c 0.72187,-0.28887 1.58438,-0.25335 1.91667,0.0789 0.33229,0.33229 -0.25834,0.56864 -1.3125,0.52522 -1.16495,-0.048 -1.4019,-0.28494 -0.60417,-0.60416 z m 12,-1 c 0.72187,-0.28887 1.58438,-0.25335 1.91667,0.0789 0.33229,0.33229 -0.25834,0.56864 -1.3125,0.52522 -1.16495,-0.048 -1.4019,-0.28494 -0.60417,-0.60416 z M 1343.8724,354.25 c -1.2438,-1.58606 -1.2085,-1.62143 0.3776,-0.37756 0.9625,0.75485 1.75,1.54235 1.75,1.75 0,0.82304 -0.8212,0.29331 -2.1276,-1.37244 z M 217.78352,349.2616 c 2.90594,-0.20265 7.40594,-0.20052 10,0.005 2.59406,0.20525 0.21648,0.37104 -5.28352,0.36844 -5.5,-0.003 -7.62242,-0.17053 -4.71648,-0.37317 z m 381,0 c 2.90594,-0.20265 7.40594,-0.20052 10,0.005 2.59406,0.20525 0.21648,0.37104 -5.28352,0.36844 -5.5,-0.003 -7.62242,-0.17053 -4.71648,-0.37317 z M 934.75,349.3377 c 0.6875,-0.27741 1.8125,-0.27741 2.5,0 0.6875,0.27741 0.125,0.50439 -1.25,0.50439 -1.375,0 -1.9375,-0.22698 -1.25,-0.50439 z m 37,0 c 0.6875,-0.27741 1.8125,-0.27741 2.5,0 0.6875,0.27741 0.125,0.50439 -1.25,0.50439 -1.375,0 -1.9375,-0.22698 -1.25,-0.50439 z M 1344.8724,315.25 c -1.2438,-1.58606 -1.2085,-1.62143 0.3776,-0.37756 0.9625,0.75485 1.75,1.54235 1.75,1.75 0,0.82304 -0.8212,0.29331 -2.1276,-1.37244 z m 278,-1 c -1.2438,-1.58606 -1.2085,-1.62143 0.3776,-0.37756 1.6657,1.30637 2.1955,2.12756 1.3724,2.12756 -0.2076,0 -0.9951,-0.7875 -1.75,-1.75 z M 211.43244,241 c 0,-13.475 0.14155,-18.9875 0.31456,-12.25 0.17301,6.7375 0.17301,17.7625 0,24.5 -0.17301,6.7375 -0.31456,1.225 -0.31456,-12.25 z m 767.38006,3.31689 c 0.72187,-0.28887 1.58438,-0.25335 1.91667,0.0789 0.33229,0.33229 -0.25834,0.56864 -1.3125,0.52522 -1.16495,-0.048 -1.4019,-0.28494 -0.60417,-0.60416 z M 1587,244.62244 c 0,-0.20765 0.7875,-0.99515 1.75,-1.75 1.5861,-1.24387 1.6214,-1.2085 0.3776,0.37756 -1.3064,1.66575 -2.1276,2.19548 -2.1276,1.37244 z m -620.1875,-1.30555 c 0.72187,-0.28887 1.58438,-0.25335 1.91667,0.0789 0.33229,0.33229 -0.25834,0.56864 -1.3125,0.52522 -1.16495,-0.048 -1.4019,-0.28494 -0.60417,-0.60416 z m -13,-1 c 0.72187,-0.28887 1.58438,-0.25335 1.91667,0.0789 0.33229,0.33229 -0.25834,0.56864 -1.3125,0.52522 -1.16495,-0.048 -1.4019,-0.28494 -0.60417,-0.60416 z m -14,-1 c 0.72187,-0.28887 1.58438,-0.25335 1.91667,0.0789 0.33229,0.33229 -0.25834,0.56864 -1.3125,0.52522 -1.16495,-0.048 -1.4019,-0.28494 -0.60417,-0.60416 z M 924.75,240.33772 c 0.6875,-0.27741 1.8125,-0.27741 2.5,0 0.6875,0.27741 0.125,0.50439 -1.25,0.50439 -1.375,0 -1.9375,-0.22698 -1.25,-0.50439 z m -13.9375,-1.02083 c 0.72187,-0.28887 1.58438,-0.25335 1.91667,0.0789 0.33229,0.33229 -0.25834,0.56864 -1.3125,0.52522 -1.16495,-0.048 -1.4019,-0.28494 -0.60417,-0.60416 z M 70.34281,226.5 c 0.0036,-4.4 0.179441,-6.07561 0.390687,-3.72357 0.211245,2.35204 0.208273,5.95204 -0.0066,8 C 70.512015,232.82439 70.339178,230.9 70.34281,226.5 Z M 1305,230.62244 c 0,-0.20765 0.7875,-0.99515 1.75,-1.75 1.5861,-1.24387 1.6214,-1.2085 0.3776,0.37756 -1.3064,1.66575 -2.1276,2.19548 -2.1276,1.37244 z M 14.078947,211.41667 c 0.04798,-1.16495 0.284941,-1.4019 0.604167,-0.60417 0.288871,0.72187 0.253344,1.58437 -0.07895,1.91667 -0.332292,0.33229 -0.568641,-0.25834 -0.52522,-1.3125 z M 981.8125,193.31689 c 0.72187,-0.28887 1.58438,-0.25335 1.91667,0.0789 0.33229,0.33229 -0.25834,0.56864 -1.3125,0.52522 -1.16495,-0.048 -1.4019,-0.28494 -0.60417,-0.60416 z m -13,-1 c 0.72187,-0.28887 1.58438,-0.25335 1.91667,0.0789 0.33229,0.33229 -0.25834,0.56864 -1.3125,0.52522 -1.16495,-0.048 -1.4019,-0.28494 -0.60417,-0.60416 z m -13,-1 c 0.72187,-0.28887 1.58438,-0.25335 1.91667,0.0789 0.33229,0.33229 -0.25834,0.56864 -1.3125,0.52522 -1.16495,-0.048 -1.4019,-0.28494 -0.60417,-0.60416 z m -14,-1 c 0.72187,-0.28887 1.58438,-0.25335 1.91667,0.0789 0.33229,0.33229 -0.25834,0.56864 -1.3125,0.52522 -1.16495,-0.048 -1.4019,-0.28494 -0.60417,-0.60416 z m -15,-1 c 0.72187,-0.28887 1.58438,-0.25335 1.91667,0.0789 0.33229,0.33229 -0.25834,0.56864 -1.3125,0.52522 -1.16495,-0.048 -1.4019,-0.28494 -0.60417,-0.60416 z m -15,-1 c 0.72187,-0.28887 1.58438,-0.25335 1.91667,0.0789 0.33229,0.33229 -0.25834,0.56864 -1.3125,0.52522 -1.16495,-0.048 -1.4019,-0.28494 -0.60417,-0.60416 z M 770.07895,162.41667 c 0.048,-1.16495 0.28494,-1.4019 0.60416,-0.60417 0.28887,0.72187 0.25335,1.58437 -0.0789,1.91667 -0.33229,0.33229 -0.56864,-0.25834 -0.52522,-1.3125 z m 0,-15 c 0.048,-1.16495 0.28494,-1.4019 0.60416,-0.60417 0.28887,0.72187 0.25335,1.58437 -0.0789,1.91667 -0.33229,0.33229 -0.56864,-0.25834 -0.52522,-1.3125 z M 1115.1949,120.5 c 0.02,-1.65 0.2445,-2.20394 0.4981,-1.23097 0.2535,0.97297 0.2369,2.32297 -0.037,3 -0.2739,0.67703 -0.4813,-0.11903 -0.461,-1.76903 z M 963.8125,105.31689 c 0.72187,-0.28887 1.58438,-0.25335 1.91667,0.0789 0.33229,0.3323 -0.25834,0.56864 -1.3125,0.52522 -1.16495,-0.048 -1.4019,-0.28494 -0.60417,-0.60416 z m -341,-1 c 0.72187,-0.28887 1.58438,-0.25335 1.91667,0.0789 0.33229,0.3323 -0.25834,0.56864 -1.3125,0.52522 -1.16495,-0.048 -1.4019,-0.28494 -0.60417,-0.60416 z m 287.45653,-0.01 c 0.97297,-0.25354 2.32297,-0.23687 3,0.037 0.67703,0.27393 -0.11903,0.48137 -1.76903,0.46099 -1.65,-0.0204 -2.20394,-0.2445 -1.23097,-0.49804 z m 38.48097,0.0307 c 0.6875,-0.27741 1.8125,-0.27741 2.5,0 0.6875,0.27741 0.125,0.50439 -1.25,0.50439 -1.375,0 -1.9375,-0.22698 -1.25,-0.50439 z m -728.98209,-1.06245 c 1.79735,-0.22256 4.49735,-0.21797 6,0.0102 1.50265,0.22818 0.0321,0.41027 -3.26791,0.40466 -3.3,-0.006 -4.52944,-0.1923 -2.73209,-0.41486 z m 381,0 c 1.79735,-0.22256 4.49735,-0.21797 6,0.0102 1.50265,0.22818 0.0321,0.41027 -3.26791,0.40466 -3.3,-0.006 -4.52944,-0.1923 -2.73209,-0.41486 z M 899.8125,57.316886 c 0.72187,-0.288871 1.58438,-0.253344 1.91667,0.07895 0.33229,0.332292 -0.25834,0.568641 -1.3125,0.52522 -1.16495,-0.04798 -1.4019,-0.284941 -0.60417,-0.604167 z m 69,0 c 0.72187,-0.288871 1.58438,-0.253344 1.91667,0.07895 0.33229,0.332292 -0.25834,0.568641 -1.3125,0.52522 -1.16495,-0.04798 -1.4019,-0.284941 -0.60417,-0.604167 z m -53.54347,-1.009877 c 0.97297,-0.253543 2.32297,-0.236869 3,0.03705 0.67703,0.273923 -0.11903,0.481368 -1.76903,0.460988 -1.65,-0.02038 -2.20394,-0.244498 -1.23097,-0.498042 z m 35.98097,0.0037 c 0.9625,-0.251527 2.5375,-0.251527 3.5,0 0.9625,0.251528 0.175,0.457323 -1.75,0.457323 -1.925,0 -2.7125,-0.205795 -1.75,-0.457323 z M 205.8125,54.316886 c 0.72187,-0.288871 1.58437,-0.253344 1.91667,0.07895 0.33229,0.332292 -0.25834,0.568641 -1.3125,0.52522 -1.16495,-0.04798 -1.4019,-0.284941 -0.60417,-0.604167 z m 40,0 c 0.72187,-0.288871 1.58437,-0.253344 1.91667,0.07895 0.33229,0.332292 -0.25834,0.568641 -1.3125,0.52522 -1.16495,-0.04798 -1.4019,-0.284941 -0.60417,-0.604167 z m 339.9375,0.02083 c 0.6875,-0.277412 1.8125,-0.277412 2.5,0 0.6875,0.277413 0.125,0.504386 -1.25,0.504386 -1.375,0 -1.9375,-0.226973 -1.25,-0.504386 z m 40.0625,-0.02083 c 0.72187,-0.288871 1.58438,-0.253344 1.91667,0.07895 0.33229,0.332292 -0.25834,0.568641 -1.3125,0.52522 -1.16495,-0.04798 -1.4019,-0.284941 -0.60417,-0.604167 z"
         style="fill:#dddddd;fill-opacity:1" />
      <path
         id="path76"
         d="M 1425.2376,348.81955 1425,310.1391 l -2.25,-0.43337 -2.25,-0.43337 2.2814,-0.13618 c 1.2547,-0.0749 2.4978,0.42774 2.7623,1.11698 0.2644,0.68923 0.3572,18.35173 0.2062,39.25 L 1425.4752,387.5 Z M 1524.4113,366 c 0,-9.625 0.15,-13.5625 0.3333,-8.75 0.1833,4.8125 0.1833,12.6875 0,17.5 -0.1833,4.8125 -0.3333,0.875 -0.3333,-8.75 z m 107.8207,1 c 0,-1.925 0.2058,-2.7125 0.4573,-1.75 0.2516,0.9625 0.2516,2.5375 0,3.5 -0.2515,0.9625 -0.4573,0.175 -0.4573,-1.75 z m -413.1531,-0.58333 c 0.048,-1.16495 0.285,-1.4019 0.6042,-0.60417 0.2889,0.72187 0.2534,1.58438 -0.079,1.91667 -0.3323,0.33229 -0.5687,-0.25834 -0.5253,-1.3125 z M 758.5,346 c 0.99549,-1.1 2.03498,-2 2.30998,-2 0.275,0 -0.31449,0.9 -1.30998,2 -0.99549,1.1 -2.03498,2 -2.30998,2 -0.275,0 0.31449,-0.9 1.30998,-2 z m 765.9025,-17 c 0,-8.525 0.1534,-12.0125 0.3408,-7.75 0.1875,4.2625 0.1875,11.2375 0,15.5 -0.1874,4.2625 -0.3408,0.775 -0.3408,-7.75 z M 382,342.62244 c 0,-0.20765 0.7875,-0.99515 1.75,-1.75 1.58606,-1.24387 1.62143,-1.2085 0.37756,0.37756 C 382.82119,342.91575 382,343.44548 382,342.62244 Z M 58.452948,337.75 54.5,333.5 l 4.25,3.95295 c 2.3375,2.17412 4.25,4.08662 4.25,4.25 0,0.75658 -0.87085,-4.9e-4 -4.547052,-3.95295 z M 1351.232,331 c 0,-1.925 0.2058,-2.7125 0.4573,-1.75 0.2516,0.9625 0.2516,2.5375 0,3.5 -0.2515,0.9625 -0.4573,0.175 -0.4573,-1.75 z m -183.0371,-2.5 c 0.02,-1.65 0.2445,-2.20394 0.4981,-1.23097 0.2535,0.97297 0.2369,2.32297 -0.037,3 -0.2739,0.67703 -0.4813,-0.11903 -0.461,-1.76903 z M 714.5,311 c 0.99549,-1.1 2.03498,-2 2.30998,-2 0.275,0 -0.31449,0.9 -1.30998,2 -0.99549,1.1 -2.03498,2 -2.30998,2 -0.275,0 0.31449,-0.9 1.30998,-2 z m 532.691,-1.74677 c 6.98,-0.17166 18.68,-0.17212 26,-10e-4 7.3199,0.17109 1.609,0.31154 -12.691,0.31211 -14.3,5.7e-4 -20.2891,-0.13941 -13.309,-0.31107 z m 57.1081,0.001 c 4.8395,-0.18371 12.4895,-0.18277 17,0.002 4.5105,0.18485 0.5509,0.33516 -8.7991,0.33401 -9.35,-10e-4 -13.0404,-0.1524 -8.2009,-0.3361 z m 49.4509,0.083 c 0.6875,-0.27741 1.8125,-0.27741 2.5,0 0.6875,0.27741 0.125,0.50439 -1.25,0.50439 -1.375,0 -1.9375,-0.22698 -1.25,-0.50439 z m 58,0 c 0.6875,-0.27741 1.8125,-0.27741 2.5,0 0.6875,0.27741 0.125,0.50439 -1.25,0.50439 -1.375,0 -1.9375,-0.22698 -1.25,-0.50439 z m 121,-0.0851 c 7.2875,-0.17086 19.2125,-0.17086 26.5,0 7.2875,0.17086 1.325,0.31066 -13.25,0.31066 -14.575,0 -20.5375,-0.1398 -13.25,-0.31066 z M 97.872445,302.25 c -1.243871,-1.58606 -1.208501,-1.62143 0.377555,-0.37756 0.9625,0.75485 1.75,1.54235 1.75,1.75 0,0.82304 -0.821186,0.29331 -2.127555,-1.37244 z M 1260.4113,253 c 0,-9.625 0.15,-13.5625 0.3333,-8.75 0.1833,4.8125 0.1833,12.6875 0,17.5 -0.1833,4.8125 -0.3333,0.875 -0.3333,-8.75 z m 44.9628,6.5 c 0,-6.05 0.1669,-8.39607 0.366,-5.21349 0.199,3.18258 0.1972,8.13258 0,11 -0.2013,2.86742 -0.3642,0.26349 -0.3619,-5.78651 z m 145.1083,-28.5 0.018,-38.5 2.5,-0.1638 c 2.1803,-0.14286 2.2137,-0.10219 0.2617,0.31802 l -2.2383,0.48182 -0.2793,38.18198 -0.2793,38.18198 0.018,-38.5 z m -120.0711,18 c 0,-9.625 0.15,-13.5625 0.3333,-8.75 0.1833,4.8125 0.1833,12.6875 0,17.5 -0.1833,4.8125 -0.3333,0.875 -0.3333,-8.75 z m 177.069,-21 c 0.019,-34.79365 0.06,-35.50196 2.0197,-35.59828 1.4966,-0.0736 1.5627,0.006 0.2627,0.31788 -1.6022,0.3838 -1.7592,3.15219 -2.0197,35.59828 l -0.2825,35.18212 0.02,-35.5 z m -338.2281,3.5 c 0.011,-2.2 0.2159,-2.98225 0.4551,-1.73834 0.2392,1.24391 0.2301,3.04391 -0.02,4 -0.2503,0.95609 -0.446,-0.0617 -0.4349,-2.26166 z m 35.1495,1 c 0.095,-1.92201 0.81,-2.00136 18.3491,-2.0348 l 18.2509,-0.0348 -17.9342,0.30711 c -16.0143,0.27422 -17.9787,0.49206 -18.3492,2.0348 -0.3064,1.27586 -0.3892,1.20465 -0.3166,-0.2723 z m 356.7932,0 c 0.02,-1.65 0.2445,-2.20394 0.4981,-1.23097 0.2535,0.97297 0.2369,2.32297 -0.037,3 -0.2739,0.67703 -0.4813,-0.11903 -0.461,-1.76903 z M 1260.4113,214 c 0,-9.625 0.15,-13.5625 0.3333,-8.75 0.1833,4.8125 0.1833,12.6875 0,17.5 -0.1833,4.8125 -0.3333,0.875 -0.3333,-8.75 z m 69.9912,-2 c 0,-8.525 0.1534,-12.0125 0.3408,-7.75 0.1875,4.2625 0.1875,11.2375 0,15.5 -0.1874,4.2625 -0.3408,0.775 -0.3408,-7.75 z m 245.8665,4.30701 c 0.973,-0.25354 2.323,-0.23687 3,0.0371 0.6771,0.27393 -0.119,0.48137 -1.769,0.46099 -1.65,-0.0204 -2.2039,-0.2445 -1.231,-0.49804 z M 787.87244,204.25 c -1.24387,-1.58606 -1.2085,-1.62143 0.37756,-0.37756 1.66575,1.30637 2.19548,2.12756 1.37244,2.12756 -0.20765,0 -0.99515,-0.7875 -1.75,-1.75 z m 476.32696,-11.99383 c 4.7847,-0.18291 12.8847,-0.18377 18,-0.002 5.1153,0.18186 1.2006,0.33151 -8.6994,0.33256 -9.9,0.001 -14.0853,-0.14774 -9.3006,-0.33065 z m 74.5506,-0.004 c 7.2875,-0.17086 19.2125,-0.17086 26.5,0 7.2875,0.17086 1.325,0.31066 -13.25,0.31066 -14.575,0 -20.5375,-0.1398 -13.25,-0.31066 z m 62.441,6.3e-4 c 6.98,-0.17166 18.68,-0.17212 26,-0.001 7.3199,0.17109 1.609,0.31154 -12.691,0.31211 -14.3,5.7e-4 -20.2891,-0.13941 -13.309,-0.31107 z M 1255.4824,114 l 0.018,-38.5 h 26 c 25.3006,0 26.0026,0.0538 26.0983,2 0.075,1.522426 0,1.582123 -0.3196,0.25 -0.3843,-1.60981 -2.4541,-1.75 -25.8365,-1.75 h -25.4187 l -0.2794,38.25 -0.2793,38.25 0.018,-38.5 z m 51.5965,37.41667 c 0.048,-1.16495 0.285,-1.4019 0.6042,-0.60417 0.2889,0.72187 0.2534,1.58437 -0.079,1.91667 -0.3323,0.33229 -0.5687,-0.25834 -0.5253,-1.3125 z M 1456.4824,114 l 0.018,-38.5 17.7509,-0.03563 17.7508,-0.03563 -17.4891,0.308655 -17.4892,0.308655 -0.2793,38.22698 -0.2793,38.22697 0.018,-38.5 z m 53.8958,28 c 0,-6.325 0.1623,-8.9125 0.3608,-5.75 0.1984,3.1625 0.1984,8.3375 0,11.5 -0.1985,3.1625 -0.3608,0.575 -0.3608,-5.75 z m 78.1042,-28 0.018,-38.5 2.5,-0.163805 c 2.1803,-0.142855 2.2137,-0.102183 0.2617,0.318021 l -2.2383,0.481825 -0.2793,38.181979 -0.2793,38.18198 0.018,-38.5 z M 480,150.68709 c 0,-0.1721 1.4625,-1.6346 3.25,-3.25 l 3.25,-2.93709 -2.93709,3.25 C 480.82513,150.77946 480,151.45965 480,150.68709 Z m 1061.25,-28.4304 c 4.2625,-0.18745 11.2375,-0.18745 15.5,0 4.2625,0.18745 0.775,0.34082 -7.75,0.34082 -8.525,0 -12.0125,-0.15337 -7.75,-0.34082 z M 440,115.5 c 2.98742,-3.025 5.65668,-5.5 5.93168,-5.5 0.275,0 -1.94426,2.475 -4.93168,5.5 -2.98742,3.025 -5.65668,5.5 -5.93168,5.5 -0.275,0 1.94426,-2.475 4.93168,-5.5 z m 729.2522,-1 c 0.011,-2.2 0.2159,-2.98225 0.4551,-1.73834 0.2392,1.24391 0.2301,3.04391 -0.02,4 -0.2503,0.95609 -0.446,-0.0617 -0.4349,-2.26166 z m 35.1495,1 c 0.095,-1.92201 0.81,-2.00136 18.3491,-2.0348 l 18.2509,-0.0348 -17.9342,0.30711 c -16.0143,0.27422 -17.9787,0.49206 -18.3492,2.0348 -0.3064,1.27586 -0.3892,1.20465 -0.3166,-0.2723 z m 97.7562,-2.5 c 0,-1.375 0.227,-1.9375 0.5044,-1.25 0.2774,0.6875 0.2774,1.8125 0,2.5 -0.2774,0.6875 -0.5044,0.125 -0.5044,-1.25 z m -193.2855,-8.75 c -1.2438,-1.58606 -1.2085,-1.62143 0.3776,-0.37756 1.6657,1.30637 2.1955,2.12756 1.3724,2.12756 -0.2076,0 -0.9951,-0.7875 -1.75,-1.75 z M 1318.75,75.337719 c 0.6875,-0.277412 1.8125,-0.277412 2.5,0 0.6875,0.277413 0.125,0.504386 -1.25,0.504386 -1.375,0 -1.9375,-0.226973 -1.25,-0.504386 z m 57.0625,-0.02083 c 0.7219,-0.288871 1.5844,-0.253344 1.9167,0.07895 0.3323,0.332292 -0.2584,0.568641 -1.3125,0.52522 -1.165,-0.04798 -1.4019,-0.284941 -0.6042,-0.604167 z m 31.3785,-0.06365 c 6.98,-0.171658 18.68,-0.172125 26,-10e-4 7.3199,0.171085 1.609,0.311532 -12.691,0.312104 -14.3,5.71e-4 -20.2891,-0.139408 -13.309,-0.311065 z m 140.559,0.08449 c 0.6875,-0.277412 1.8125,-0.277412 2.5,0 0.6875,0.277413 0.125,0.504386 -1.25,0.504386 -1.375,0 -1.9375,-0.226973 -1.25,-0.504386 z"
         style="fill:#d4d4d4;fill-opacity:1" />
      <path
         id="path74"
         d="m 1625,382.62244 c 0,-0.20765 0.7875,-0.99515 1.75,-1.75 1.5861,-1.24387 1.6214,-1.2085 0.3776,0.37756 -1.3064,1.66575 -2.1276,2.19548 -2.1276,1.37244 z M 1500.5,378 c 0.9955,-1.1 2.035,-2 2.31,-2 0.275,0 -0.3145,0.9 -1.31,2 -0.9955,1.1 -2.035,2 -2.31,2 -0.275,0 0.3145,-0.9 1.31,-2 z m -50.095,-3.25 -1.905,-2.25 2.25,1.90499 c 2.1144,1.79022 2.7052,2.59501 1.905,2.59501 -0.1898,0 -1.2023,-1.0125 -2.25,-2.25 z M 234.8125,349.31689 c 0.72187,-0.28887 1.58437,-0.25335 1.91667,0.0789 0.33229,0.33229 -0.25834,0.56864 -1.3125,0.52522 -1.16495,-0.048 -1.4019,-0.28494 -0.60417,-0.60416 z M 1344,347.62244 c 0,-0.20765 0.7875,-0.99515 1.75,-1.75 1.5861,-1.24387 1.6214,-1.2085 0.3776,0.37756 -1.3064,1.66575 -2.1276,2.19548 -2.1276,1.37244 z m -3,-3 c 0,-0.20765 0.7875,-0.99515 1.75,-1.75 1.5861,-1.24387 1.6214,-1.2085 0.3776,0.37756 -1.3064,1.66575 -2.1276,2.19548 -2.1276,1.37244 z M 1210.8724,317.25 c -1.2438,-1.58606 -1.2085,-1.62143 0.3776,-0.37756 1.6657,1.30637 2.1955,2.12756 1.3724,2.12756 -0.2076,0 -0.9951,-0.7875 -1.75,-1.75 z m -34.4674,-56.5 -1.905,-2.25 2.25,1.90499 c 2.1144,1.79022 2.7052,2.59501 1.905,2.59501 -0.1898,0 -1.2023,-1.0125 -2.25,-2.25 z M 1611.5,260 c 0.9955,-1.1 2.035,-2 2.31,-2 0.275,0 -0.3145,0.9 -1.31,2 -0.9955,1.1 -2.035,2 -2.31,2 -0.275,0 0.3145,-0.9 1.31,-2 z M 1504.8724,120.25 c -1.2438,-1.58606 -1.2085,-1.62143 0.3776,-0.37756 1.6657,1.30637 2.1955,2.12756 1.3724,2.12756 -0.2076,0 -0.9951,-0.7875 -1.75,-1.75 z m -278,-33 c -1.2438,-1.586056 -1.2085,-1.621426 0.3776,-0.377555 0.9625,0.754844 1.75,1.542344 1.75,1.75 0,0.823034 -0.8212,0.293303 -2.1276,-1.372445 z M 965.8125,57.316886 c 0.72187,-0.288871 1.58438,-0.253344 1.91667,0.07895 0.33229,0.332292 -0.25834,0.568641 -1.3125,0.52522 -1.16495,-0.04798 -1.4019,-0.284941 -0.60417,-0.604167 z m -44.54875,-1.034467 c 1.52006,-0.229855 3.77006,-0.223712 5,0.01365 1.22994,0.237362 -0.0137,0.425424 -2.76375,0.417917 -2.75,-0.0075 -3.75631,-0.201713 -2.23625,-0.431567 z"
         style="fill:#cbcbcb;fill-opacity:1" />
      <path
         id="path72"
         d="m 977.75,396.33772 c 0.6875,-0.27741 1.8125,-0.27741 2.5,0 0.6875,0.27741 0.125,0.50439 -1.25,0.50439 -1.375,0 -1.9375,-0.22698 -1.25,-0.50439 z M 444.87244,343.25 c -1.24387,-1.58606 -1.2085,-1.62143 0.37756,-0.37756 1.66575,1.30637 2.19548,2.12756 1.37244,2.12756 -0.20765,0 -0.99515,-0.7875 -1.75,-1.75 z m -10,-10 c -1.24387,-1.58606 -1.2085,-1.62143 0.37756,-0.37756 1.66575,1.30637 2.19548,2.12756 1.37244,2.12756 -0.20765,0 -0.99515,-0.7875 -1.75,-1.75 z M 1059.5,322 c 0.9955,-1.1 2.035,-2 2.31,-2 0.275,0 -0.3145,0.9 -1.31,2 -0.9955,1.1 -2.035,2 -2.31,2 -0.275,0 0.3145,-0.9 1.31,-2 z M 710,315.62244 c 0,-0.20765 0.7875,-0.99515 1.75,-1.75 1.58606,-1.24387 1.62143,-1.2085 0.37756,0.37756 C 710.82119,315.91575 710,316.44548 710,315.62244 Z M 482.43709,306.75 479.5,303.5 l 3.25,2.93709 c 3.02946,2.73778 3.70965,3.56291 2.93709,3.56291 -0.1721,0 -1.6346,-1.4625 -3.25,-3.25 z M 717,308.62244 c 0,-0.20765 0.7875,-0.99515 1.75,-1.75 1.58606,-1.24387 1.62143,-1.2085 0.37756,0.37756 C 717.82119,308.91575 717,309.44548 717,308.62244 Z M 251.32369,265.25031 c 20.25304,-0.15131 53.10304,-0.15123 73,1.6e-4 19.89697,0.1514 3.32631,0.2752 -36.82369,0.27511 -40.15,-9e-5 -56.42934,-0.12396 -36.17631,-0.27527 z m 377,0 c 20.25304,-0.15131 53.10304,-0.15123 73,1.6e-4 19.89697,0.1514 3.32631,0.2752 -36.82369,0.27511 -40.15,-9e-5 -56.42934,-0.12396 -36.17631,-0.27527 z M 70.078947,236.41667 c 0.04798,-1.16495 0.284941,-1.4019 0.604167,-0.60417 0.288871,0.72187 0.253344,1.58437 -0.07895,1.91667 -0.332292,0.33229 -0.568641,-0.25834 -0.52522,-1.3125 z M 1108.9243,233.25 1106.5,230.5 l 2.75,2.42431 c 1.5125,1.33338 2.75,2.57088 2.75,2.75 0,0.78428 -0.8098,0.14598 -3.0757,-2.42431 z M 965.8125,192.31689 c 0.72187,-0.28887 1.58438,-0.25335 1.91667,0.0789 0.33229,0.33229 -0.25834,0.56864 -1.3125,0.52522 -1.16495,-0.048 -1.4019,-0.28494 -0.60417,-0.60416 z M 770.28601,155.5 c 0.008,-2.75 0.20172,-3.75631 0.43157,-2.23625 0.22986,1.52006 0.22371,3.77006 -0.0136,5 -0.23736,1.22994 -0.42542,-0.0137 -0.41792,-2.76375 z M 477,153.62244 c 0,-0.20765 0.7875,-0.99515 1.75,-1.75 1.58606,-1.24387 1.62143,-1.2085 0.37756,0.37756 C 477.82119,153.91575 477,154.44548 477,153.62244 Z m 9,-9 c 0,-0.20765 0.7875,-0.99515 1.75,-1.75 1.58606,-1.24387 1.62143,-1.2085 0.37756,0.37756 C 486.82119,144.91575 486,145.44548 486,144.62244 Z m -434,-21 c 0,-0.20765 0.7875,-0.99515 1.75,-1.75 1.586056,-1.24387 1.621426,-1.2085 0.377555,0.37756 C 52.821186,123.91575 52,124.44548 52,123.62244 Z m 13,-13 c 0,-0.20765 0.7875,-0.99515 1.75,-1.75 1.586056,-1.24387 1.621426,-1.2085 0.377555,0.37756 C 65.821186,110.91575 65,111.44548 65,110.62244 Z m 725,-9 c 0,-0.20765 0.7875,-0.99515 1.75,-1.749995 1.58606,-1.243871 1.62143,-1.208501 0.37756,0.377555 C 790.82119,101.91575 790,102.44548 790,101.62244 Z m 5,-4.999995 c 0,-0.207656 0.7875,-0.995156 1.75,-1.75 1.58606,-1.243871 1.62143,-1.208501 0.37756,0.377555 C 795.82119,96.915748 795,97.445479 795,96.622445 Z M 902.8125,57.316886 c 0.72187,-0.288871 1.58438,-0.253344 1.91667,0.07895 0.33229,0.332292 -0.25834,0.568641 -1.3125,0.52522 -1.16495,-0.04798 -1.4019,-0.284941 -0.60417,-0.604167 z M 589.75,54.337719 c 0.6875,-0.277412 1.8125,-0.277412 2.5,0 0.6875,0.277413 0.125,0.504386 -1.25,0.504386 -1.375,0 -1.9375,-0.226973 -1.25,-0.504386 z m 32.0625,-0.02083 c 0.72187,-0.288871 1.58438,-0.253344 1.91667,0.07895 0.33229,0.332292 -0.25834,0.568641 -1.3125,0.52522 -1.16495,-0.04798 -1.4019,-0.284941 -0.60417,-0.604167 z"
         style="fill:#c2c2c2;fill-opacity:1" />
      <path
         id="path70"
         d="m 1247.3082,387.25236 c 7.0445,-0.17214 18.2945,-0.17164 25,10e-4 6.7055,0.17275 0.9418,0.31359 -12.8082,0.31298 -13.75,-6.1e-4 -19.2363,-0.14195 -12.1918,-0.31409 z M 1285.5,385.5 c 0,-1.26996 0.3375,-2.10043 0.75,-1.84549 0.4125,0.25494 0.75,1.08541 0.75,1.84549 0,0.76008 -0.3375,1.59055 -0.75,1.84549 -0.4125,0.25494 -0.75,-0.57553 -0.75,-1.84549 z m 11.7256,1.87397 c 1.5228,-0.45116 1.7623,-2.38265 2.0383,-16.4436 l 0.3128,-15.9324 -0.038,16.2383 c -0.037,15.48892 -0.1307,16.24777 -2.0384,16.4436 -1.5085,0.15485 -1.576,0.0797 -0.2744,-0.3059 z m 48.5244,-0.0362 c 0.6875,-0.27741 1.8125,-0.27741 2.5,0 0.6875,0.27741 0.125,0.50439 -1.25,0.50439 -1.375,0 -1.9375,-0.22698 -1.25,-0.50439 z m 36.25,0.27886 c 0,-0.21089 1.1114,-0.59588 2.4697,-0.85555 1.3584,-0.25966 2.2318,-0.0871 1.941,0.38343 -0.5121,0.82856 -4.4107,1.24587 -4.4107,0.47212 z m 39.75,-0.27886 c 0.6875,-0.27741 1.8125,-0.27741 2.5,0 0.6875,0.27741 0.125,0.50439 -1.25,0.50439 -1.375,0 -1.9375,-0.22698 -1.25,-0.50439 z m 111,-0.0851 c 7.2875,-0.17086 19.2125,-0.17086 26.5,0 7.2875,0.17086 1.325,0.31066 -13.25,0.31066 -14.575,0 -20.5375,-0.1398 -13.25,-0.31066 z M 1295.4542,348 c 0,-21.175 0.1325,-29.8375 0.2945,-19.25 0.162,10.5875 0.162,27.9125 0,38.5 -0.162,10.5875 -0.2945,1.925 -0.2945,-19.25 z m -46.2042,35.25379 c 5.9125,-0.1768 15.5875,-0.1768 21.5,0 5.9125,0.17679 1.075,0.32145 -10.75,0.32145 -11.825,0 -16.6625,-0.14466 -10.75,-0.32145 z m 287.5573,-10e-4 c 6.7691,-0.17326 17.5691,-0.17273 24,10e-4 6.431,0.17391 0.8927,0.31567 -12.3073,0.31502 -13.2,-6.6e-4 -18.4617,-0.14295 -11.6927,-0.31621 z m -89.4023,-5.50254 -1.905,-2.25 2.25,1.90499 c 2.1144,1.79022 2.7052,2.59501 1.905,2.59501 -0.1898,0 -1.2023,-1.0125 -2.25,-2.25 z m -281.3261,-12.33333 c 0.048,-1.16495 0.285,-1.4019 0.6042,-0.60417 0.2889,0.72187 0.2534,1.58438 -0.079,1.91667 -0.3323,0.33229 -0.5687,-0.25834 -0.5253,-1.3125 z m 4,0 c 0.048,-1.16495 0.285,-1.4019 0.6042,-0.60417 0.2889,0.72187 0.2534,1.58438 -0.079,1.91667 -0.3323,0.33229 -0.5687,-0.25834 -0.5253,-1.3125 z M 1102,355.68709 c 0,-0.1721 1.4625,-1.6346 3.25,-3.25 l 3.25,-2.93709 -2.9371,3.25 c -2.7378,3.02946 -3.5629,3.70965 -3.5629,2.93709 z M 1281.1579,347 c 0,-1.375 0.227,-1.9375 0.5044,-1.25 0.2774,0.6875 0.2774,1.8125 0,2.5 -0.2774,0.6875 -0.5044,0.125 -0.5044,-1.25 z m 18.2553,-15.5 c 10e-4,-9.9 0.1507,-13.81474 0.3325,-8.69942 0.1819,5.11532 0.181,13.21532 0,18 -0.1829,4.78468 -0.3317,0.59942 -0.3306,-9.30058 z m -859.46703,6.75 -3.44617,-3.75 3.75,3.44617 c 2.0625,1.89539 3.75,3.58289 3.75,3.75 0,0.76362 -0.84622,0.0442 -4.05383,-3.44617 z M 1217.75,330.33772 c 0.6875,-0.27741 1.8125,-0.27741 2.5,0 0.6875,0.27741 0.125,0.50439 -1.25,0.50439 -1.375,0 -1.9375,-0.22698 -1.25,-0.50439 z m 409,0 c 0.6875,-0.27741 1.8125,-0.27741 2.5,0 0.6875,0.27741 0.125,0.50439 -1.25,0.50439 -1.375,0 -1.9375,-0.22698 -1.25,-0.50439 z m -49.6711,-3.92105 c 0.048,-1.16495 0.285,-1.4019 0.6042,-0.60417 0.2889,0.72187 0.2534,1.58438 -0.079,1.91667 -0.3323,0.33229 -0.5687,-0.25834 -0.5253,-1.3125 z m -76.6739,-7.66667 -1.905,-2.25 2.25,1.90499 c 2.1144,1.79022 2.7052,2.59501 1.905,2.59501 -0.1898,0 -1.2023,-1.0125 -2.25,-2.25 z m 119.4674,-1.5 c -1.2438,-1.58606 -1.2085,-1.62143 0.3776,-0.37756 1.6657,1.30637 2.1955,2.12756 1.3724,2.12756 -0.2076,0 -0.9951,-0.7875 -1.75,-1.75 z M 1582.5,315 c 0.9955,-1.1 2.035,-2 2.31,-2 0.275,0 -0.3145,0.9 -1.31,2 -0.9955,1.1 -2.035,2 -2.31,2 -0.275,0 0.3145,-0.9 1.31,-2 z M 334,311.5 c 1.29175,-1.375 2.57363,-2.5 2.84863,-2.5 0.275,0 -0.55688,1.125 -1.84863,2.5 -1.29175,1.375 -2.57363,2.5 -2.84863,2.5 -0.275,0 0.55688,-1.125 1.84863,-2.5 z m 952.1579,0.5 c 0,-1.375 0.227,-1.9375 0.5044,-1.25 0.2774,0.6875 0.2774,1.8125 0,2.5 -0.2774,0.6875 -0.5044,0.125 -0.5044,-1.25 z m -799.28546,-0.75 c -1.24387,-1.58606 -1.2085,-1.62143 0.37756,-0.37756 0.9625,0.75485 1.75,1.54235 1.75,1.75 0,0.82304 -0.82119,0.29331 -2.12756,-1.37244 z m -9,-9 c -1.24387,-1.58606 -1.2085,-1.62143 0.37756,-0.37756 1.66575,1.30637 2.19548,2.12756 1.37244,2.12756 -0.20765,0 -0.99515,-0.7875 -1.75,-1.75 z M 1241.4218,251 c 0,-11.275 0.1458,-15.8875 0.3241,-10.25 0.1782,5.6375 0.1782,14.8625 0,20.5 -0.1783,5.6375 -0.3241,1.025 -0.3241,-10.25 z m 15.3282,19.33772 c 0.6875,-0.27741 1.8125,-0.27741 2.5,0 0.6875,0.27741 0.125,0.50439 -1.25,0.50439 -1.375,0 -1.9375,-0.22698 -1.25,-0.50439 z m 50,0 c 0.6875,-0.27741 1.8125,-0.27741 2.5,0 0.6875,0.27741 0.125,0.50439 -1.25,0.50439 -1.375,0 -1.9375,-0.22698 -1.25,-0.50439 z m 32,-0.0851 c 7.2875,-0.17086 19.2125,-0.17086 26.5,0 7.2875,0.17086 1.325,0.31066 -13.25,0.31066 -14.575,0 -20.5375,-0.1398 -13.25,-0.31066 z m 49.9027,-0.003 c -0.2559,-0.4125 7.255,-0.63447 16.691,-0.49326 32.0434,0.47953 35.2247,0.82762 9.4653,1.03572 -14.13,0.11415 -25.9004,-0.12996 -26.1563,-0.54246 z m 63.0973,0.0877 c 0.6875,-0.27741 1.8125,-0.27741 2.5,0 0.6875,0.27741 0.125,0.50439 -1.25,0.50439 -1.375,0 -1.9375,-0.22698 -1.25,-0.50439 z m 54.8618,-0.15678 c -0.2784,-0.45048 0.8201,-0.6244 2.441,-0.3865 1.621,0.23791 2.9472,0.60648 2.9472,0.81906 0,0.76198 -4.8927,0.3692 -5.3882,-0.43256 z m -269.7932,-9.68318 c -0.1752,-5.22624 0.019,-9.50124 0.4314,-9.5 0.4125,0.001 0.75,4.27724 0.75,9.50224 0,5.225 -0.1941,9.5 -0.4314,9.5 -0.2372,0 -0.5747,-4.27601 -0.75,-9.50224 z m -175.4136,5.25224 -1.905,-2.25 2.25,1.90499 c 2.1144,1.79022 2.7052,2.59501 1.905,2.59501 -0.1898,0 -1.2023,-1.0125 -2.25,-2.25 z m 327.0487,-35.25 c -3e-4,-20.9 0.1323,-29.59212 0.2947,-19.31582 0.1624,10.2763 0.1626,27.3763 5e-4,38 -0.1621,10.6237 -0.295,2.21582 -0.2952,-18.68418 z m -45.6464,35.75254 c 6.7691,-0.17326 17.5691,-0.17273 24,10e-4 6.431,0.17391 0.8927,0.31567 -12.3073,0.31502 -13.2,-6.6e-4 -18.4617,-0.14295 -11.6927,-0.31621 z m 49.6355,-0.54093 c -0.2719,-0.70861 -0.3583,-8.69611 -0.192,-17.75 l 0.3023,-16.46161 0.2235,17.2319 0.2234,17.2319 23.75,0.28708 23.75,0.28709 -23.7814,0.23101 c -18.6487,0.18116 -23.8881,-0.0471 -24.2758,-1.05737 z M 1565.8724,243.25 c -1.2438,-1.58606 -1.2085,-1.62143 0.3776,-0.37756 1.6657,1.30637 2.1955,2.12756 1.3724,2.12756 -0.2076,0 -0.9951,-0.7875 -1.75,-1.75 z m -33.7935,-6.83333 c 0.048,-1.16495 0.285,-1.4019 0.6042,-0.60417 0.2889,0.72187 0.2534,1.58437 -0.079,1.91667 -0.3323,0.33229 -0.5687,-0.25834 -0.5253,-1.3125 z M 1392.4048,212.5 c 0,-8.8 0.1542,-12.26613 0.34,-7.70252 0.1857,4.56362 0.1846,11.76362 0,16 -0.187,4.23639 -0.339,0.50252 -0.3377,-8.29748 z m 195.4676,8.75 c -1.2438,-1.58606 -1.2085,-1.62143 0.3776,-0.37756 1.6657,1.30637 2.1955,2.12756 1.3724,2.12756 -0.2076,0 -0.9951,-0.7875 -1.75,-1.75 z m -358,-20 c -1.2438,-1.58606 -1.2085,-1.62143 0.3776,-0.37756 0.9625,0.75485 1.75,1.54235 1.75,1.75 0,0.82304 -0.8212,0.29331 -2.1276,-1.37244 z m 379.9401,-20.93311 c 0.7219,-0.28887 1.5844,-0.25335 1.9167,0.0789 0.3323,0.33229 -0.2584,0.56864 -1.3125,0.52522 -1.165,-0.048 -1.4019,-0.28494 -0.6042,-0.60416 z M 348.45295,152.75 344.5,148.5 l 4.25,3.95295 c 3.95246,3.6762 4.70953,4.54705 3.95295,4.54705 -0.16338,0 -2.07588,-1.9125 -4.25,-4.25 z M 1241.4218,134 c 0,-11.275 0.1458,-15.8875 0.3241,-10.25 0.1782,5.6375 0.1782,14.8625 0,20.5 -0.1783,5.6375 -0.3241,1.025 -0.3241,-10.25 z m 26.7692,19.25323 c 6.98,-0.17166 18.68,-0.17212 26,-0.001 7.3199,0.17109 1.609,0.31154 -12.691,0.31211 -14.3,5.7e-4 -20.2891,-0.13941 -13.309,-0.31107 z m 49.2937,-0.43248 c -0.2801,-0.72988 -0.3856,-18.42564 -0.2346,-39.32391 l 0.2747,-37.99684 0.2376,38.75 c 0.2055,33.52312 0.4382,38.75 1.7248,38.75 1.2828,0 1.526,-4.84475 1.7698,-35.25 l 0.2825,-35.25 -0.02,35.48656 c -0.018,33.01605 -0.1417,35.51005 -1.7727,35.82391 -0.9642,0.18554 -1.9822,-0.25983 -2.2623,-0.98972 z m 58.2536,0.52503 2.2383,-0.48182 0.2798,-38.68198 0.2798,-38.68198 -0.018,39 -0.018,39 -2.5,0.1638 c -2.1803,0.14286 -2.2137,0.10219 -0.2617,-0.31802 z m 44.5117,-0.0863 c 21.8155,-0.24841 25.75,-0.51706 25.75,-1.75823 0,-1.23725 -3.6925,-1.51111 -23.75,-1.76145 l -23.75,-0.29642 24,0.0283 c 23.3239,0.0275 24,0.0847 24,2.02833 0,1.94804 -0.6754,2.00068 -26,2.02634 l -26,0.0263 25.75,-0.29322 z m 37.5,0.0783 c 0.6875,-0.27741 1.8125,-0.27741 2.5,0 0.6875,0.27741 0.125,0.50439 -1.25,0.50439 -1.375,0 -1.9375,-0.22698 -1.25,-0.50439 z m 49,0 c 0.6875,-0.27741 1.8125,-0.27741 2.5,0 0.6875,0.27741 0.125,0.50439 -1.25,0.50439 -1.375,0 -1.9375,-0.22698 -1.25,-0.50439 z m 11,0 c 0.6875,-0.27741 1.8125,-0.27741 2.5,0 0.6875,0.27741 0.125,0.50439 -1.25,0.50439 -1.375,0 -1.9375,-0.22698 -1.25,-0.50439 z m 58.8393,-0.19326 c -0.2908,-0.47055 0.5826,-0.64309 1.941,-0.38343 1.3583,0.25967 2.4697,0.64466 2.4697,0.85555 0,0.77375 -3.8986,0.35644 -4.4107,-0.47212 z m 24.7189,0.1079 c 7.0445,-0.17214 18.2945,-0.17164 25,0.001 6.7055,0.17275 0.9418,0.31359 -12.8082,0.31298 -13.75,-6.1e-4 -19.2363,-0.14195 -12.1918,-0.31409 z m -364.4896,-9.7546 c -0.1752,-5.22624 0.019,-9.50124 0.4314,-9.5 0.4125,0.001 0.75,4.27724 0.75,9.50224 0,5.225 -0.1941,9.5 -0.4314,9.5 -0.2372,0 -0.5747,-4.27601 -0.75,-9.50224 z M 99,150.68709 c 0,-0.1721 1.4625,-1.6346 3.25,-3.25 l 3.25,-2.93709 -2.93709,3.25 C 99.825128,150.77946 99,151.45965 99,150.68709 Z m 1172.8073,-1.43455 c 6.7691,-0.17326 17.5691,-0.17273 24,10e-4 6.431,0.17391 0.8927,0.31567 -12.3073,0.31502 -13.2,-6.6e-4 -18.4617,-0.14295 -11.6927,-0.31621 z m 332.9427,9.5e-4 c 6.1875,-0.17544 16.3125,-0.17544 22.5,0 6.1875,0.17545 1.125,0.319 -11.25,0.319 -12.375,0 -17.4375,-0.14355 -11.25,-0.319 z M 1374.232,144 c 0,-1.925 0.2058,-2.7125 0.4573,-1.75 0.2516,0.9625 0.2516,2.5375 0,3.5 -0.2515,0.9625 -0.4573,0.175 -0.4573,-1.75 z m 0.2149,-36 c 0,-17.875 0.1356,-25.1875 0.3013,-16.25 0.1657,8.9375 0.1657,23.5625 0,32.5 -0.1657,8.9375 -0.3013,1.625 -0.3013,-16.25 z M 835,127.62244 c 0,-0.20765 0.7875,-0.99515 1.75,-1.75 1.58606,-1.24387 1.62143,-1.2085 0.37756,0.37756 C 835.82119,127.91575 835,128.44548 835,127.62244 Z M 59.5,116 c 2.708649,-2.75 5.149816,-5 5.424816,-5 0.275,0 -1.716167,2.25 -4.424816,5 -2.708649,2.75 -5.149816,5 -5.424816,5 -0.275,0 1.716167,-2.25 4.424816,-5 z M 1508.1949,97.5 c 0.02,-1.65 0.2445,-2.203936 0.4981,-1.230968 0.2535,0.972967 0.2369,2.322967 -0.037,3 -0.2739,0.677032 -0.4813,-0.119032 -0.461,-1.769032 z m 4,0 c 0.02,-1.65 0.2445,-2.203936 0.4981,-1.230968 0.2535,0.972967 0.2369,2.322967 -0.037,3 C 1512.382,99.946064 1512.1746,99.15 1512.1949,97.5 Z M 1229.8724,84.25 c -1.2438,-1.586056 -1.2085,-1.621426 0.3776,-0.377555 0.9625,0.754844 1.75,1.542344 1.75,1.75 0,0.823034 -0.8212,0.293303 -2.1276,-1.372445 z M 1446.1579,78 c 0,-1.375 0.227,-1.9375 0.5044,-1.25 0.2774,0.6875 0.2774,1.8125 0,2.5 -0.2774,0.6875 -0.5044,0.125 -0.5044,-1.25 z"
         style="fill:#b9b9b9;fill-opacity:1" />
      <path
         id="path68"
         d="M 198.5,397.90171 C 156.66535,394.47786 119.77889,382.39211 89.5683,362.21056 51.008594,336.45155 27.609117,304.15295 18.417359,264 14.793434,248.16938 13.439156,228.84594 14.86304,213.28537 18.353963,175.13569 31.465811,146.16678 57.46999,119.15091 92.609955,82.64383 135.44442,62.720428 193.5,55.879881 c 17.92179,-2.11168 54.17031,-1.601105 71.29686,1.004244 34.13751,5.193116 64.51805,16.505207 90.20314,33.586832 11.25391,7.484306 22.5927,16.436673 22.27144,17.584083 -0.1257,0.44896 -2.20649,3.88275 -4.62396,7.63063 -5.85125,9.07136 -12.56147,21.96405 -16.64098,31.97317 l -3.32538,8.15885 -9.59056,-8.4879 c -30.39014,-26.89607 -62.64511,-40.22891 -105.26455,-43.51192 -35.6926,-2.74943 -71.26148,3.62698 -98.79558,17.71102 C 91.801785,145.68694 67.90403,184.48185 70.363975,233 c 1.620079,31.95324 12.195537,55.11316 35.040695,76.73801 26.74145,25.31301 61.41748,38.06272 108.59533,39.92842 59.70823,2.36123 104.41301,-15.06449 131.97438,-51.44302 C 351.00998,291.57688 363,269.18393 363,266.42581 363,265.20399 352.19847,265 287.5,265 H 212 v -24 -24 h 91.5 c 50.325,0 91.5,-0.20195 91.5,-0.44878 0,-4.15224 3.61018,-25.37219 5.5334,-32.52422 C 417.76853,119.93318 479.14817,71.067539 558.7287,58.08437 609.8619,49.742242 661.98248,55.170152 703.5,73.161053 717.80555,79.360116 733.17573,88.245218 732.62939,90 c -0.25685,0.825 -2.25011,5.55 -4.42946,10.5 -4.77729,10.85079 -7.8392,21.4377 -9.4792,32.77546 L 717.5,141.71473 708,134.83666 c -32.15114,-23.27768 -75.78085,-34.48834 -120.74353,-31.02506 -33.53068,2.58272 -59.72452,10.97356 -83.34523,26.6985 -32.1291,21.38921 -50.08013,50.58972 -52.86233,85.9899 -3.99683,50.85476 20.30048,92.42947 67.81682,116.0402 27.9509,13.88873 68.48274,20.15895 106.27832,16.44112 55.63558,-5.4727 91.8567,-28.05057 113.09588,-70.49657 2.47269,-4.94161 4.81059,-9.99725 5.19532,-11.23475 L 744.13478,265 H 668.06739 592 V 241.00452 217.00905 L 698.75,216.75452 805.5,216.5 800.53712,213.58309 C 792.1115,208.63097 782.54821,198.02981 778.09984,188.71078 772.93563,177.89211 771,168.70155 771,155 c 0,-14.4135 1.95532,-23.00306 8.17395,-35.90744 4.38147,-9.09207 6.17246,-11.5733 14.1707,-19.632013 C 816.94713,75.679596 850.55937,62.60688 900,57.979377 c 12.60757,-1.180033 50.54648,-1.469419 64,-0.488172 45.2343,3.299215 86.2869,14.193928 120.7318,32.04029 22.1977,11.500925 28.4726,16.980375 29.8328,26.051045 2.2952,15.30529 -8.5927,28.41746 -23.5969,28.41746 -4.9061,0 -6.9383,-0.62551 -13.1359,-4.04323 -33.2798,-18.35254 -62.9632,-28.20109 -101.3318,-33.62056 -10.51996,-1.48591 -19.29549,-1.83283 -46,-1.81849 -29.93154,0.0161 -34.20879,0.23126 -46,2.31419 -29.41672,5.19649 -47.82297,14.93373 -54.6261,28.8982 -3.41912,7.01827 -3.249,17.86585 0.39062,24.90774 4.38232,8.47887 12.99464,14.7332 26.59845,19.31599 14.28808,4.8133 31.3318,7.18101 72.14396,10.02221 65.30491,4.54629 84.57887,6.49453 104.99307,10.61282 56.3622,11.37034 84.9547,31.70432 94.0868,66.91113 2.705,10.42897 2.915,30.34984 0.4427,42 -8.3756,39.46754 -42.8866,67.70922 -97.5775,79.85159 -26.5697,5.89896 -53.7397,8.15255 -88.452,7.33659 -27.8631,-0.65496 -41.05255,-1.77314 -62.5,-5.29866 -42.22513,-6.94095 -77.33006,-19.87994 -106.75098,-39.34634 l -12.24751,-8.10358 -7.75075,6.62434 C 714.34663,383.81416 656.88274,401.09802 593.39198,398.64591 538.97466,396.54423 494.96823,382.02294 458.5,354.1341 c -14.91895,-11.40916 -33.79032,-32.15898 -41.49505,-45.62544 -1.72015,-3.00652 -3.52398,-5.71141 -4.00851,-6.01086 -0.48453,-0.29946 -2.66309,2.50696 -4.84125,6.23648 -18.79339,32.17874 -50.13302,58.25485 -88.07983,73.28675 -33.8158,13.39548 -79.31782,19.33915 -121.57536,15.88068 z m 787.07632,-48.96469 c 34.10568,-3.3188 60.44148,-12.81926 74.48768,-26.87085 16.1981,-16.20434 16.772,-41.6094 1.28,-56.66589 -5.5075,-5.35269 -18.2037,-11.74671 -28.4518,-14.32884 -13.2941,-3.34962 -48.55141,-7.04394 -100.8922,-10.57167 -53.27104,-3.59043 -86.77161,-8.6875 -108.90653,-16.57 -4.72641,-1.68313 -9.31455,-3.29099 -10.19587,-3.57304 -1.37442,-0.43984 -1.68975,0.95669 -2.21625,9.81524 -1.6098,27.0854 -6.09122,46.10429 -15.69,66.58756 l -3.90111,8.32475 3.20488,1.98358 c 6.02817,3.73099 30.19466,15.73652 39.20488,19.47636 27.05883,11.2312 58.72421,19.30265 87.5,22.30359 12.26019,1.27858 51.79258,1.33319 64.57632,0.0892 z M 1217,381.62244 c 0,-0.20765 0.7875,-0.99515 1.75,-1.75 1.5861,-1.24387 1.6214,-1.2085 0.3776,0.37756 -1.3064,1.66575 -2.1276,2.19548 -2.1276,1.37244 z"
         style="fill:#b0b0b0;fill-opacity:1" />
      <path
         id="path66"
         d="m 1185.5,387.66637 c -11.511,-3.82808 -18.5,-11.62331 -18.5,-20.63425 0,-4.80603 2.5883,-3.72422 3.9408,1.64711 2.5572,10.15547 9.7057,15.40188 21.9424,16.10393 8.5523,0.49066 14.2423,-0.70871 19.1238,-4.03103 5.6837,-3.86824 7.493,-7.19078 7.493,-13.7598 0,-5.13878 -0.3697,-6.25292 -3,-9.04151 -3.7145,-3.93802 -8.8673,-6.23098 -19.0915,-8.49555 C 1176.0989,344.73538 1169,339.50139 1169,328.50982 c 0,-12.96577 12.124,-21.48757 28.8612,-20.28607 10.9497,0.78605 19.6984,6.92744 22.0787,15.49892 1.4632,5.2692 1.3333,6.27733 -0.8091,6.27733 -1.3705,0 -2.0247,-0.95846 -2.4522,-3.59296 -1.4311,-8.81913 -9.9815,-14.58351 -21.6318,-14.58351 -13.1459,0 -22.0468,6.44281 -22.0468,15.95826 0,9.26617 4.3998,12.62493 22.6651,17.30236 22.6259,5.7941 27.6579,9.7814 27.6579,21.91585 0,12.79255 -9.5771,20.64329 -26.323,21.57798 -4.6737,0.26086 -9.0074,-0.0827 -11.5,-0.91161 z m 278.786,-0.0519 c -10.7572,-3.52831 -19.3918,-11.39604 -24.6215,-22.43483 -2.8977,-6.11654 -3.1642,-7.52258 -3.1606,-16.67961 0,-9.51728 0.1846,-10.37018 3.7484,-17.66862 7.0672,-14.47306 18.9592,-22.17203 34.2477,-22.17203 13.9057,0 25.7024,6.7914 32.5578,18.74375 3.4164,5.95643 3.5348,6.60822 1.1922,6.56348 -1.0363,-0.0198 -2.9735,-2.14466 -4.75,-5.21008 -8.9276,-15.40498 -27.6747,-20.86803 -44.0117,-12.82534 -7.2491,3.5687 -12.206,8.75899 -16.2722,17.03842 -2.4062,4.8994 -2.7161,6.67382 -2.7161,15.55145 0,9.3079 0.2339,10.49613 3.2867,16.69736 5.6973,11.57269 15.9422,18.67151 28.2138,19.54953 12.7133,0.90964 24.0118,-4.87662 30.8206,-15.78402 2.1576,-3.45647 4.4025,-5.91217 5.4289,-5.93869 2.3391,-0.0604 2.2222,0.59883 -1.1485,6.47522 -3.747,6.53237 -10.8681,13.02554 -17.731,16.16747 -6.7656,3.0974 -18.7164,4.01524 -25.0845,1.92654 z m 130.4315,0.3578 c -8.9925,-2.2692 -15.8889,-8.44294 -18.2273,-16.31725 -1.9363,-6.52013 -1.8797,-7.65499 0.382,-7.65499 1.397,0 2.0276,0.97183 2.4845,3.8291 1.1935,7.46355 7.6439,14.01687 16.0156,16.27115 6.6409,1.7882 17.4485,0.77675 23.172,-2.16858 6.8302,-3.51484 9.4557,-7.68062 9.4557,-15.00283 0,-9.96486 -4.6833,-13.35414 -25.5,-18.45407 -12.9664,-3.17666 -17.0814,-5.09504 -21.3447,-9.95065 -3.1029,-3.53407 -3.6578,-5.82012 -3.1602,-13.01924 1.0689,-15.46341 27.8477,-23.29779 42.9286,-12.5592 3.5115,2.50038 7.564,9.03749 8.5577,13.80432 0.5814,2.78918 0.4004,3.25 -1.2769,3.25 -1.403,0 -2.137,-0.91238 -2.6012,-3.23364 -1.0478,-5.23901 -5.0725,-10.331 -10.0826,-12.75632 -6.1357,-2.97024 -17.2707,-3.0989 -23.6583,-0.27336 -8.5045,3.76193 -12.6096,12.1459 -9.542,19.48774 2.5119,6.0118 6.9585,8.27136 25.1073,12.75844 18.7715,4.64105 24.5723,9.54928 24.5723,20.79138 0,12.86248 -9.6964,21.02809 -25.8778,21.79245 -4.1922,0.19802 -9.3243,-0.0695 -11.4047,-0.59445 z M 1235,348.5 V 310 h 25.5 c 24.8333,0 25.5,0.0523 25.5,2 0,1.94326 -0.6667,2 -23.5,2 H 1239 v 15.5 15.5 h 21 c 20.3333,0 21,0.0635 21,2 0,1.93651 -0.6667,2 -21,2 h -21 v 17.5 17.5 h 23.5 c 20.2222,0 23.5,0.20922 23.5,1.5 0,1.29412 -3.5,1.5 -25.5,1.5 H 1235 Z m 61,0 V 310 l 18.25,0.006 c 19.235,0.006 23.3831,0.61843 28.8676,4.26295 10.0109,6.65229 10.5363,24.95484 0.948,33.02284 -1.7705,1.48975 -3.6345,2.70863 -4.1423,2.70863 -1.8514,0 -0.8378,1.54147 2.1208,3.22517 5.1644,2.93902 6.9086,8.47928 6.9339,22.02483 0.021,11.09065 -0.09,11.75 -1.978,11.75 -1.8864,0 -2.0001,-0.66718 -2.0016,-11.75 0,-13.57578 -1.3214,-17.43405 -6.9828,-20.41519 -3.0008,-1.58014 -5.9503,-1.83481 -21.25,-1.83481 H 1299 v 17 c 0,14.44444 -0.2255,17 -1.5,17 -1.3074,0 -1.5,-4.94444 -1.5,-38.5 z m 42.03,-1.75 c 6.4273,-3.24693 8.97,-7.5699 8.97,-15.25 0,-6.82032 -2.0525,-11.00044 -7.32,-14.90805 -2.5874,-1.91944 -4.381,-2.11756 -21.75,-2.40256 L 1299,313.87878 V 331.43939 349 h 17.2881 c 15.9421,0 17.6349,-0.17518 21.7419,-2.25 z m 36.0675,20.01982 c -4.0714,-11.1484 -10.4436,-28.50835 -14.1606,-38.57766 -6.2559,-16.94726 -6.5995,-18.28496 -4.6236,-18 1.8345,0.26457 3.9559,5.26271 15.0924,35.55784 7.1268,19.3875 13.2136,35.24901 13.5261,35.2478 0.3125,-10e-4 2.1704,-4.38871 4.1286,-9.75 22.2171,-60.82672 22.3832,-61.2478 24.1613,-61.2478 0.9781,0 1.7783,0.27127 1.7783,0.60282 0,0.55179 -21.4263,59.26201 -25.874,70.89718 -1.47,3.84576 -2.4554,5.06229 -4.2686,5.26982 -2.2037,0.25223 -2.8401,-1.05197 -9.7599,-20 z M 1421,348.5 c 0,-37.83333 0.035,-38.5 2,-38.5 1.9654,0 2,0.66667 2,38.5 0,37.83333 -0.035,38.5 -2,38.5 -1.9654,0 -2,-0.66667 -2,-38.5 z m 99,0 V 310 h 26 c 25.3333,0 26,0.0513 26,2 0,1.94444 -0.6667,2 -24,2 h -24 v 15.5 15.5 h 21.5 c 20.8333,0 21.5,0.062 21.5,2 0,1.93798 -0.6667,2 -21.5,2 H 1524 v 17.5 17.5 h 24 c 20.6667,0 24,0.20833 24,1.5 0,1.29487 -3.5556,1.5 -26,1.5 h -26 z m 47.3304,-76.98135 c -3.9433,-0.71546 -10.6933,-2.47542 -15,-3.911 -7.1134,-2.37117 -8.1298,-3.04955 -11.1005,-7.40908 -14.4126,-21.1503 -10.3713,-46.78988 9.8836,-62.70578 20.4788,-16.09189 50.7645,-21.18456 78.521,-13.20365 l 7.8655,2.2616 -0.2271,3.97463 c -0.4311,7.54324 -4.523,26.01072 -8.3936,37.88127 -4.8862,14.98524 -9.5846,23.44655 -17.3056,31.16518 -11.6522,11.64863 -25.4108,15.3638 -44.2433,11.94683 z m 31.6075,-21.59074 10.1804,-12.0721 -5.1593,-14.28101 c -2.8377,-7.85455 -5.4518,-14.73531 -5.8092,-15.29056 C 1597.6536,207.51326 1570.146,202 1566.7955,202 c -0.3609,0 -5.3417,5.53565 -11.0685,12.30143 l -10.4123,12.30144 5.4166,14.93915 c 2.9791,8.21653 5.5435,15.06614 5.6987,15.22135 0.5377,0.53764 26.0841,5.02761 29.1988,5.13188 2.8141,0.0942 4.1524,-1.10919 13.3091,-11.96734 z m -26.3186,-2.93112 c -5.9757,-1.85396 -10.6204,-8.28307 -10.6177,-14.69713 0.01,-14.69776 17.6921,-20.77144 27.2855,-9.37028 7.4809,8.89047 1.6857,22.65876 -10.2871,24.44033 -1.925,0.28645 -4.7963,0.11863 -6.3807,-0.37292 z m -380.6721,22.78366 c -27.7651,-9.74541 -35.6611,-46.36903 -14.5056,-67.28045 18.3841,-18.17187 48.5107,-13.64831 59.9396,9 2.2418,4.44268 2.3361,5.04087 0.8458,5.36668 -0.9225,0.20167 -2.1384,-0.41054 -2.7021,-1.36046 -9.0961,-15.32863 -18.9787,-21.31488 -33.476,-20.27761 -13.025,0.93194 -23.5468,8.35318 -29.4494,20.77139 -2.7424,5.76965 -3.0895,7.51125 -3.0895,15.5 0,8.01697 0.3436,9.72648 3.1462,15.65125 3.709,7.84089 9.2473,13.71367 16.5596,17.55979 4.7023,2.47327 6.3304,2.77935 14.7842,2.77935 8.35,0 10.1101,-0.32149 14.5401,-2.6557 9.3133,-4.90722 16.357,-14.60774 18.3489,-25.26976 L 1237.7418,235 h -16.3709 C 1205.6667,235 1205,234.9186 1205,233 c 0,-1.92593 0.6667,-2 18,-2 h 18 v 20 c 0,17.11111 -0.2167,20 -1.5,20 -1.2333,0 -1.5,-1.77778 -1.5,-10 0,-10.32247 -0.8323,-12.23331 -3.0239,-6.9424 -1.9791,4.77806 -9.491,11.83096 -15.5604,14.60961 -8.1245,3.71955 -18.8092,4.15259 -27.4685,1.11324 z M 1256,231.5 V 193 l 18.75,0.006 c 10.3125,0.003 20.3779,0.45777 22.3676,1.01045 9.6995,2.69424 14.3824,9.38779 14.3824,20.55741 0,6.01841 -0.4045,7.68461 -2.7119,11.17094 -1.4915,2.25363 -4.079,4.9051 -5.75,5.89217 -3.5629,2.10465 -3.7911,2.98967 -0.9996,3.87567 1.1212,0.35584 3.2439,2.46848 4.7172,4.69474 2.4846,3.75448 2.7077,4.98043 3.0797,16.9204 0.3917,12.57172 0.3516,12.87264 -1.7172,12.87264 -2.0314,0 -2.1182,-0.45856 -2.1182,-11.18428 0,-9.13936 -0.3656,-11.93944 -1.9994,-15.3145 C 1300.75,236.78646 1297.968,236 1277.4661,236 H 1260 v 17 c 0,16.33333 -0.078,17 -2,17 -1.9654,0 -2,-0.66667 -2,-38.5 z m 43.0927,-1.82502 c 6.4197,-3.38664 9.0822,-8.43844 8.6511,-16.41421 -0.3602,-6.66377 -2.0435,-9.90008 -7.1255,-13.69898 -2.5186,-1.88268 -4.4027,-2.08877 -21.6883,-2.3724 L 1260,196.87878 V 214.43939 232 h 17.3427 c 16.2205,0 17.6279,-0.15045 21.75,-2.32502 z M 1326,231.5 V 193 h 26 c 25.3333,0 26,0.0513 26,2 0,1.94444 -0.6667,2 -24,2 h -24 v 15.5 15.5 h 21.5 c 20.8333,0 21.5,0.062 21.5,2 0,1.93798 -0.6667,2 -21.5,2 H 1330 v 17.5 17.5 h 24 c 20.6667,0 24,0.20833 24,1.5 0,1.29487 -3.5556,1.5 -26,1.5 h -26 z m 63,0 V 193 h 25.5 c 24.8333,0 25.5,0.0523 25.5,2 0,1.94444 -0.6667,2 -24,2 h -24 v 15.5 15.5 h 21.5 c 20.8333,0 21.5,0.062 21.5,2 0,1.93805 -0.6667,2 -21.5236,2 h -21.5236 l 0.2736,17.25 0.2736,17.25 23.75,0.2681 c 20.1949,0.22797 23.75,0.48992 23.75,1.75 0,1.27046 -3.6384,1.4819 -25.5,1.4819 H 1389 Z m 62,-0.0664 v -38.56642 l 2.4121,0.31642 c 1.8858,0.24739 8.0492,8.05994 28.25,35.80889 l 25.8379,35.49246 0.2626,-35.74246 c 0.2566,-34.91198 0.3088,-35.74247 2.25,-35.74247 1.9488,0 1.9874,0.74837 1.9874,38.56642 v 38.56642 l -2.6959,-0.31642 c -2.2713,-0.26658 -6.7205,-5.83685 -28.25,-35.36767 l -25.5541,-35.05126 -0.2626,35.30126 C 1454.9809,269.17044 1454.928,270 1452.9874,270 1451.0386,270 1451,269.25163 1451,231.43358 Z m -257.5131,-78.16629 c -15.2183,-5.46291 -24.0111,-15.39808 -27.1201,-30.64359 -4.3611,-21.38549 8.1179,-41.946431 28.6511,-47.206798 17.8768,-4.579813 36.269,4.599492 43.7461,21.833098 1.0566,2.435393 0.9828,2.75 -0.6452,2.75 -1.1753,0 -3.0609,-2.063997 -5.2285,-5.723074 -14.0236,-23.672927 -48.061,-21.00649 -60.2908,4.723074 -2.7466,5.77858 -3.0883,7.49889 -3.0788,15.5 0.01,7.71529 0.4049,9.8465 2.7722,14.93013 3.9692,8.52397 8.6415,13.715 15.8733,17.63586 5.9541,3.22815 6.9033,3.43372 15.8338,3.4292 8.3446,-0.004 10.113,-0.32779 14.5401,-2.6605 9.3133,-4.90722 16.357,-14.60774 18.3489,-25.26976 l 0.8528,-4.56493 h -16.3709 c -15.7042,0 -16.3709,-0.0815 -16.3709,-2 0,-1.92593 0.6667,-2 18,-2 h 18 v 20 c 0,17.11111 -0.2167,20 -1.5,20 -1.2333,0 -1.5,-1.77778 -1.5,-10 0,-5.5 -0.3954,-10 -0.8787,-10 -0.4833,0 -1.4513,1.38255 -2.1513,3.07234 -1.8768,4.5311 -9.2291,11.41806 -15.4264,14.45013 -7.2966,3.56991 -18.8224,4.3417 -26.0567,1.74482 z M 1256,114.5 V 76 h 25.5 c 24.8333,0 25.5,0.05229 25.5,2 0,1.943262 -0.6667,2 -23.5,2 H 1260 V 95.5 111 h 21 c 20.3333,0 21,0.0635 21,2 0,1.93651 -0.6667,2 -21,2 h -21 v 17.5 17.5 h 23.5 c 20.2222,0 23.5,0.20922 23.5,1.5 0,1.29412 -3.5,1.5 -25.5,1.5 H 1256 Z m 62,0 c 0,-37.380375 0.056,-38.5 1.9318,-38.5 2.0941,0 7.3777,6.83677 36.5682,47.31831 9.35,12.96661 17.3375,23.59952 17.75,23.62867 0.4125,0.0292 0.75,-15.92198 0.75,-35.44698 0,-30.888889 0.1948,-35.5 1.5,-35.5 1.3074,0 1.5,4.944444 1.5,38.5 V 153 l -2.25,-0.0619 c -1.4537,-0.04 -3.3194,-1.54417 -5.2715,-4.25 -1.6618,-2.30345 -13.3618,-18.36167 -26,-35.68491 L 1321.5,81.50637 l -0.2626,35.74682 C 1321.0107,148.10883 1320.7712,153 1319.4874,153 1318.1966,153 1318,147.91024 1318,114.5 Z m 77,0 V 76 h 25.5 c 24.8333,0 25.5,0.05229 25.5,2 0,1.943262 -0.6667,2 -23.5,2 H 1399 V 95.5 111 h 21.5 c 20.8333,0 21.5,0.062 21.5,2 0,1.93798 -0.6667,2 -21.5,2 H 1399 v 17.5 17.5 h 23.5 c 20.2222,0 23.5,0.20922 23.5,1.5 0,1.29412 -3.5,1.5 -25.5,1.5 H 1395 Z m 62,-0.0724 V 75.855195 l 20.75,0.322402 c 23.2701,0.36156 24.6266,0.720293 30.5813,8.087757 2.4348,3.012463 3.1294,4.95515 3.4737,9.715761 0.2367,3.272723 0.127,7.567665 -0.2438,9.544315 -0.7328,3.90614 -6.4731,10.99445 -9.7445,12.03274 -1.855,0.58876 -1.71,0.90536 1.7021,3.7179 5.5006,4.53408 6.4812,7.81607 6.4812,21.69181 0,11.36545 -0.1108,12.03212 -2,12.03212 -1.891,0 -2.0002,-0.66791 -2.0037,-12.25 0,-10.52247 -0.2884,-12.71681 -2.0219,-15.56018 C 1500.6974,119.8149 1497.282,119 1478.0321,119 H 1461 v 17 c 0,16.33333 -0.078,17 -2,17 -1.9654,0 -2,-0.66667 -2,-38.5724 z m 41.5786,-1.32393 c 12.7365,-5.78463 13.658,-24.861048 1.5005,-31.063333 C 1496.5033,80.216117 1494.2218,80 1478.5398,80 H 1461 V 97.5 115 l 16.75,-0.022 c 14.1391,-0.0185 17.3858,-0.31071 20.8286,-1.87437 z M 1518,152.2444 c 0,-0.41559 6.4631,-17.62809 14.3624,-38.25 13.0563,-34.084874 14.5794,-37.518867 16.75,-37.763458 2.2609,-0.254775 3.0697,1.523498 15.2382,33.499998 7.0679,18.57298 13.7104,35.93852 14.7612,38.59008 l 1.9106,4.82101 -2.1517,-0.32101 c -1.7475,-0.26073 -3.0861,-2.71577 -7.1265,-13.07102 L 1566.7694,127 h -17.7252 -17.7251 l -4.8956,13 c -3.7294,9.90337 -5.3157,13 -6.6595,13 -0.9702,0 -1.764,-0.34002 -1.764,-0.7556 z m 46.7596,-30.4944 c -4.9064,-13.49865 -15.2751,-39.745772 -15.6963,-39.733246 -0.4926,0.01465 -3.9667,8.816727 -13.5113,34.233246 l -2.5348,6.75 h 16.0984 c 12.4543,0 15.9955,-0.28295 15.644,-1.25 z M 1589,114.5 c 0,-37.833333 0.035,-38.5 2,-38.5 1.964,0 2,0.666667 2,37 v 37 h 22.5 c 19.3333,0 22.5,0.21111 22.5,1.5 0,1.29252 -3.3889,1.5 -24.5,1.5 H 1589 Z"
         style="fill:#a7a7a7;fill-opacity:1" />
    </g>
    <path
       id="path80"
       d="m 1558.9067,260.80814 c -13.2366,-3.67626 -19.8685,-10.14737 -23.6181,-23.04557 -7.3463,-25.27067 9.4662,-49.70747 41.5455,-60.38565 10.6534,-3.54616 37.2623,-3.94636 50.2748,-0.75612 10.4191,2.55443 10.5894,3.12069 6.618,22.00012 -11.4074,54.22908 -34.4666,73.39481 -74.8202,62.18722 z m 40.424,-17.84287 c 5.6323,-6.45788 10.2405,-12.36076 10.2405,-13.11751 0,-2.0784 -9.6003,-27.10686 -11.1722,-29.12653 -1.5147,-1.94622 -27.6054,-7.4396 -31.2309,-6.57567 -1.2543,0.29888 -6.941,5.90472 -12.6372,12.45742 l -10.3567,11.91401 5.8074,15.67832 5.8073,15.67833 11.6918,2.25949 c 20.6586,3.99239 20.2764,4.1024 31.85,-9.16786 z"
       style="fill:#b3c967;fill-opacity:1;stroke-width:1.55891" />
    <path
       id="path82"
       d="m 1568.2527,235.3548 c -7.5558,-7.55576 -6.2535,-19.07098 2.6792,-23.69024 9.2856,-4.80178 20.5559,2.2621 20.5559,12.88378 0,4.35033 -1.1263,6.6175 -5.0131,10.09027 -6.3153,5.64272 -13.0315,5.9067 -18.222,0.71619 z"
       style="fill:#b3c967;fill-opacity:1;stroke-width:1.55891" />
    <path
       id="path84"
       d="m 1520.2403,340.77731 v -38.46395 l 24.8451,0.12322 c 26.5484,0.13166 26.789,0.14979 26.5251,1.99828 -0.083,0.58363 -0.4856,0.92554 -1.2903,1.0967 -0.6431,0.13678 -11.3849,0.26944 -23.8708,0.2948 l -22.7015,0.0461 v 15.76494 15.76494 l 20.7529,0.11923 c 11.4141,0.0656 21.0599,0.26826 21.435,0.45041 0.3751,0.18215 0.682,0.73211 0.682,1.22211 0,0.49001 -0.3069,1.04122 -0.682,1.22492 -0.3751,0.18369 -10.0209,0.38506 -21.435,0.44747 l -20.7529,0.11348 v 17.68912 17.68912 l 23.0913,0.15721 c 12.7002,0.0865 23.493,0.2965 23.9841,0.46675 1.1517,0.39927 0.9216,1.04856 -0.5285,1.49141 -0.6291,0.19212 -12.1487,0.44345 -25.5991,0.55849 l -24.4554,0.20918 z"
       style="fill:#b3c967;fill-opacity:1;stroke-width:0.389727" />
    <path
       id="path86"
       d="m 1466.9074,380.30812 c -4.1343,-0.87813 -10.165,-3.79168 -14.0212,-6.77385 -3.0169,-2.33312 -7.3798,-6.93787 -9.3715,-9.89108 -2.1979,-3.25893 -5.3523,-9.86437 -6.0847,-12.74174 -0.8264,-3.24674 -0.8315,-17.01756 -0.01,-20.29688 0.8508,-3.38604 4.9078,-11.35272 7.6025,-14.92881 5.6734,-7.52917 13.129,-12.23746 22.0273,-13.91043 4.3956,-0.8264 13.1024,-0.60912 16.9435,0.42283 10.8218,2.90734 18.7493,9.52422 24.4029,20.36825 1.2434,2.3849 1.3923,2.90735 0.915,3.20928 -0.3136,0.19835 -0.6883,0.36332 -0.8326,0.3666 -0.7867,0.0179 -3.0275,-2.53183 -5.2731,-6.00002 -6.9971,-10.80634 -17.3479,-16.28025 -29.712,-15.71282 -11.4697,0.52638 -21.4907,6.1872 -27.5849,15.58252 -4.572,7.04853 -5.5511,10.70864 -5.5511,20.75104 0,8.0873 0.4408,10.78032 2.4909,15.21752 6.2301,13.48419 17.8433,21.22192 31.851,21.22192 11.3207,0 21.2688,-5.47699 27.9613,-15.3942 3.4767,-5.15179 6.0239,-7.39316 6.8617,-6.03766 0.1335,0.21606 -0.4016,1.66292 -1.1892,3.21525 -5.056,9.96539 -14.4403,17.87704 -24.2025,20.40459 -3.0618,0.79272 -5.0242,1.02387 -9.6857,1.14084 -3.2152,0.0807 -6.6082,-0.0152 -7.54,-0.21315 z"
       style="fill:#b3c967;fill-opacity:1;stroke-width:0.389727" />
    <path
       id="path90"
       d=""
       style="fill:#b3c967;fill-opacity:1;stroke-width:0.389727" />
    <path
       id="path92"
       d="m 1597.0056,380.31974 c -6.4027,-0.82637 -12.702,-4.44823 -16.6232,-9.55778 -2.1373,-2.78503 -3.215,-5.11623 -4.3745,-9.46302 -1.0103,-3.78731 -0.8557,-4.762 0.7553,-4.762 1.3588,0 1.6782,0.52012 2.5029,4.07613 1.6204,6.98708 6.8988,12.63019 14.369,15.36183 2.6364,0.96404 3.1991,1.02217 9.8119,1.01368 5.5077,-0.007 7.6012,-0.16165 9.7431,-0.71936 6.7269,-1.75157 12.0811,-5.6877 13.853,-10.18398 0.7764,-1.9703 0.9232,-3.04379 0.9323,-6.82021 0.013,-5.40935 -0.7517,-7.55277 -3.6682,-10.28085 -3.3324,-3.11708 -7.6845,-4.82195 -21.5752,-8.45177 -13.2607,-3.46521 -16.4809,-4.91666 -20.684,-9.32319 -3.3678,-3.53084 -3.9447,-5.09648 -3.8791,-10.52713 0.043,-3.57012 0.2273,-4.9379 0.9052,-6.7236 2.1453,-5.65111 7.8955,-10.06933 16.1886,-12.43873 2.593,-0.74084 4.069,-0.89221 8.7689,-0.89928 4.8483,-0.007 6.0662,0.12107 8.5739,0.90378 6.9144,2.15804 11.2377,5.68201 14.3795,11.72078 1.5165,2.91502 2.9505,7.60678 2.5319,8.28412 -0.3103,0.50209 -2.3494,0.37832 -2.8046,-0.17023 -0.2248,-0.27079 -0.6232,-1.3669 -0.8855,-2.4358 -0.77,-3.13784 -2.6309,-6.4222 -5.0895,-8.98265 -4.2636,-4.44001 -8.8692,-6.05214 -17.2903,-6.05214 -7.8134,0 -12.6672,1.51737 -16.832,5.26193 -5.3942,4.84985 -6.8738,11.26388 -3.9824,17.26393 2.522,5.23346 6.4753,7.20046 23.3239,11.60477 4.5955,1.20128 10.1199,2.8753 12.2764,3.72004 9.7692,3.82672 13.4692,8.52286 13.4692,17.09546 0,6.13907 -1.6581,10.29318 -5.7257,14.34446 -2.6759,2.66513 -7.0856,5.06559 -11.2274,6.11178 -5.0819,1.28366 -12.4567,1.71136 -17.7434,1.02903 z"
       style="fill:#b3c967;fill-opacity:1;stroke-width:0.389727" />
    <path
       id="path94"
       d="m 1382.188,378.06934 c -1.4661,-1.66769 -1.8163,-2.56988 -15.7508,-40.57735 -12.5904,-34.34113 -12.7194,-34.73733 -11.3065,-34.73733 1.7798,0 3.3054,3.58737 15.6625,36.82917 7.3456,19.76006 12.5348,33.29513 12.9244,33.71075 0.3426,0.36544 1.2891,-1.31942 2.5051,-4.45946 0.6688,-1.72678 5.2088,-14.01298 10.089,-27.30266 13.4805,-36.71011 14.494,-39.16753 16.1528,-39.16753 0.5196,0 1.0251,0.13154 1.1234,0.2923 0.2051,0.33557 -2.2961,7.39585 -12.5958,35.55438 -14.1699,38.73932 -14.3917,39.2963 -15.9961,40.15495 -1.0792,0.57752 -2.1374,0.4655 -2.808,-0.29722 z"
       style="fill:#b3c967;fill-opacity:1;stroke-width:0.389727" />
    <path
       id="path96"
       d="m 1421.9221,378.06934 c -0.3658,-0.82106 -0.4775,-9.59519 -0.4775,-37.51119 0,-37.9483 0.01,-38.19322 1.5823,-38.19322 1.4984,0 1.5355,0.92848 1.5355,38.38808 0,37.55581 -0.034,38.38808 -1.5589,38.38808 -0.3321,0 -0.8187,-0.48229 -1.0814,-1.07175 z"
       style="fill:#b3c967;fill-opacity:1;stroke-width:0.389727" />
    <path
       id="path98"
       d="m 1297.1339,378.771 c -0.6649,-1.0759 -0.9618,-14.6131 -0.9736,-44.39726 l -0.013,-32.10122 17.6351,0.21012 c 19.053,0.22702 21.6757,0.46835 25.8477,2.37835 4.999,2.28859 8.1605,5.78888 9.9722,11.04062 0.7561,2.19187 0.9096,3.42638 0.9094,7.3137 -3e-4,4.96949 -0.4293,6.88509 -2.4444,10.91235 -1.2165,2.43143 -5.2163,6.40407 -7.6187,7.56705 -2.2012,1.06561 -2.055,1.63943 0.9008,3.5362 5.905,3.7892 7.4515,8.81589 7.3721,23.96192 -0.021,4.07827 -0.1569,7.83688 -0.3011,8.35247 -0.401,1.43297 -1.4421,1.92926 -2.2834,1.08843 -0.609,-0.60871 -0.7192,-1.85706 -0.9455,-10.71088 -0.33,-12.90644 -0.9373,-15.82256 -3.9052,-18.75201 -1.7155,-1.69327 -4.3342,-2.99446 -7.0289,-3.4926 -1.2074,-0.2232 -9.6623,-0.52965 -18.7886,-0.681 l -16.5934,-0.27519 -0.017,13.99428 c -0.01,7.69685 -0.1663,15.28234 -0.3487,16.85665 -0.3315,2.86178 -0.8454,4.05635 -1.3759,3.19802 z m 34.8684,-37.82908 c 6.214,-0.79002 12.1519,-5.00137 13.9941,-9.925 1.6355,-4.37127 1.4675,-11.55505 -0.3674,-15.71381 -0.9558,-2.16619 -5.0824,-6.45877 -7.1899,-7.47897 -2.1576,-1.04449 -7.9874,-1.43776 -25.8257,-1.74218 l -13.7378,-0.23444 v 17.74504 17.74504 l 15.1019,-0.012 c 8.306,-0.007 16.4172,-0.17926 18.0248,-0.38365 z"
       style="fill:#b3c967;fill-opacity:1;stroke-width:0.389727" />
    <path
       id="path100"
       d="m 1235.3501,340.7761 v -38.46377 l 24.2605,0.15481 c 13.3433,0.0852 24.6645,0.29528 25.1583,0.46697 1.3887,0.48277 1.0391,2.26987 -0.5081,2.59811 -0.643,0.13642 -11.1218,0.26878 -23.2862,0.29414 l -22.1169,0.0461 v 15.76174 15.76173 l 20.447,0.11963 c 18.9428,0.11083 20.4978,0.17034 21.1361,0.80896 0.9705,0.97101 0.2471,1.96595 -1.6786,2.30859 -0.834,0.14841 -10.1538,0.27994 -20.7105,0.29229 l -19.194,0.0225 v 17.7046 17.70459 l 22.5067,0.15849 c 12.3787,0.0872 22.9085,0.29746 23.3995,0.46732 1.1516,0.39835 0.9217,1.04755 -0.5285,1.49183 -0.6291,0.19273 -11.8856,0.44374 -25.0145,0.55779 l -23.8708,0.20738 z"
       style="fill:#b3c967;fill-opacity:1;stroke-width:0.389727" />
    <path
       id="path102"
       d="m 1188.3188,380.27197 c -7.584,-1.26622 -16.209,-7.22748 -19.1755,-13.2533 -1.3972,-2.83818 -2.2305,-6.96279 -1.8338,-9.07738 0.5215,-2.77984 2.0721,-1.38302 3.4162,3.07751 2.5657,8.51468 7.5546,13.3332 15.8098,15.26987 2.3373,0.54836 4.5665,0.70491 9.842,0.6912 6.3378,-0.0164 7.0407,-0.0916 9.938,-1.06302 5.6753,-1.90273 11.0909,-6.38493 12.4511,-10.30493 0.8909,-2.56782 1.2035,-7.96399 0.6227,-10.75096 -0.4015,-1.9264 -0.8119,-2.62491 -2.7768,-4.72538 -3.8987,-4.16772 -7.9458,-5.91309 -21.3777,-9.21958 -11.9083,-2.93142 -17.7736,-5.40104 -21.5853,-9.08858 -3.5614,-3.44544 -5.102,-8.51189 -4.2173,-13.86901 1.5756,-9.54101 9.3926,-15.80888 21.4855,-17.2277 10.8709,-1.27544 21.5029,2.79668 26.3438,10.08975 1.6508,2.48706 3.279,7.19773 3.279,9.48675 0,1.4412 -0.075,1.54406 -1.1215,1.54406 -1.5047,0 -1.8653,-0.53227 -2.778,-4.10075 -1.3473,-5.26805 -4.3808,-8.86989 -9.5598,-11.351 -4.1174,-1.97253 -7.6249,-2.58738 -13.4318,-2.35453 -7.464,0.29928 -12.6508,2.10359 -16.3194,5.67688 -2.965,2.88802 -4.0545,5.35468 -4.2567,9.6373 -0.3057,6.47652 1.5781,9.98965 6.8208,12.72009 3.644,1.89786 6.8934,3.00645 16.2046,5.52853 12.7197,3.44533 18.7379,5.86719 22.4273,9.02515 5.0982,4.36384 6.1,15.10596 2.0983,22.49969 -2.3286,4.30243 -8.7545,8.68213 -14.8934,10.15083 -5.5357,1.32439 -12.8972,1.74231 -17.4121,0.98851 z"
       style="fill:#b3c967;fill-opacity:1;stroke-width:0.389727" />
    <path
       id="path104"
       d="m 1197.6798,263.2054 c -7.9424,-1.44121 -14.9036,-5.21798 -20.6108,-11.18221 -3.6266,-3.78994 -5.5044,-6.51134 -7.6455,-11.08023 -6.1137,-13.04627 -4.6487,-29.12047 3.7219,-40.83839 2.1066,-2.94898 7.4718,-8.12278 10.4909,-10.11657 11.1342,-7.35293 25.6574,-8.28542 37.3027,-2.39512 7.2196,3.65172 12.6556,9.20033 16.5017,16.8435 1.6806,3.33967 1.8047,4.39415 0.5171,4.39415 -1.296,0 -1.7803,-0.51327 -4.7443,-5.02834 -4.8819,-7.43676 -11.2664,-12.8303 -17.7546,-14.99892 -7.9788,-2.66683 -18.0845,-2.0052 -26.0083,1.70279 -7.1716,3.35602 -13.6224,10.19555 -17.4697,18.52255 -2.0829,4.50807 -2.4823,6.88702 -2.4888,14.82195 -0.01,8.16162 0.3229,9.88933 2.9194,15.30362 4.1875,8.73174 9.5979,14.3846 17.4331,18.21453 4.5936,2.24537 7.2861,2.65251 16.0486,2.42673 6.4628,-0.16652 7.2712,-0.26791 9.7422,-1.22192 6.1876,-2.38897 12.9602,-8.29616 16.7449,-14.60541 2.1151,-3.52596 4.1945,-9.22863 5.0165,-13.75776 l 0.5405,-2.97811 -15.4212,-0.19233 c -8.4816,-0.10579 -15.8158,-0.32065 -16.298,-0.47747 -0.5795,-0.18841 -0.8769,-0.59552 -0.8769,-1.20027 0,-1.79066 0.6615,-1.86309 18.6389,-2.04065 l 16.8852,-0.16677 -0.1616,19.04701 c -0.089,10.47585 -0.298,19.44161 -0.4647,19.92389 -0.3612,1.04519 -1.1898,1.14802 -1.5701,0.19487 -0.1497,-0.37512 -0.4075,-4.54032 -0.5728,-9.25601 -0.1654,-4.71569 -0.434,-8.88831 -0.597,-9.27248 -0.4809,-1.13343 -1.0825,-0.58782 -2.7336,2.47933 -3.1645,5.87855 -11.3222,12.93763 -17.6703,15.29067 -5.6826,2.10631 -13.3075,2.75171 -19.4154,1.64337 z"
       style="fill:#b3c967;fill-opacity:1;stroke-width:0.389727" />
    <path
       id="path106"
       d="m 1256.9479,261.15134 c -0.4054,-0.89103 -0.8447,-27.47736 -0.8991,-54.41355 l -0.043,-21.38421 18.6095,0.2007 c 11.2182,0.12098 19.5819,0.3759 21.058,0.64183 7.1909,1.29551 12.4751,5.87209 14.6057,12.64961 0.7357,2.34031 0.8724,3.66113 0.8727,8.4341 4e-4,5.57897 -0.017,5.69504 -1.2451,8.18426 -1.544,3.13012 -4.5553,6.5503 -7.5695,8.59715 -2.8349,1.92518 -2.9433,2.70171 -0.5394,3.86541 3.3625,1.62776 6.4708,6.34433 7.1918,10.91284 0.4951,3.13693 1.0149,20.52032 0.6563,21.94892 -0.2102,0.83762 -0.4901,1.04496 -1.4103,1.04496 -0.7362,0 -1.2928,-0.27045 -1.5515,-0.75383 -0.2336,-0.43648 -0.4077,-3.67687 -0.4135,-7.69711 -0.018,-12.28537 -0.7769,-16.44891 -3.7415,-20.52115 -1.6042,-2.20356 -4.0541,-3.48859 -7.9402,-4.16491 -1.437,-0.25008 -9.4731,-0.53462 -18.5702,-0.65753 l -16.037,-0.21667 -0.1647,16.32357 c -0.091,8.97797 -0.3023,16.63049 -0.4706,17.00561 -0.1683,0.37511 -0.707,0.68202 -1.197,0.68202 -0.49,0 -1.0305,-0.30691 -1.2012,-0.68202 z m 38.8099,-37.67738 c 8.1025,-2.59357 12.0815,-7.98348 12.0815,-16.36572 0,-6.59562 -1.1644,-9.95948 -4.6128,-13.32629 -4.1642,-4.06571 -5.2361,-4.24142 -28.4166,-4.65809 l -14.907,-0.26796 v 17.81693 17.81694 l 16.8557,-0.16485 c 14.7205,-0.14396 17.1272,-0.25176 18.9992,-0.85096 z"
       style="fill:#b3c967;fill-opacity:1;stroke-width:0.389727" />
    <path
       id="path108"
       d="m 1326.1564,223.64014 v -38.19321 l 23.6759,0.0232 c 23.496,0.0231 27.1682,0.17543 27.772,1.15232 0.4049,0.65509 0.1079,1.40732 -0.7161,1.814 -0.3585,0.17696 -11.1307,0.37363 -23.9381,0.43705 l -23.2861,0.11532 v 15.75082 15.75083 l 20.9857,0.11334 c 21.8009,0.11776 22.2739,0.15399 22.2739,1.70627 0,1.43316 -1.21,1.5217 -22.5067,1.64694 l -20.7529,0.12204 v 17.68815 17.68816 l 23.2861,0.12098 c 12.8074,0.0665 23.6005,0.27244 23.9847,0.45754 1.0735,0.51727 0.5708,1.18287 -1.1202,1.48328 -0.8398,0.14918 -12.3565,0.28134 -25.5925,0.2937 l -24.0657,0.0225 z"
       style="fill:#b3c967;fill-opacity:1;stroke-width:0.389727" />
    <path
       id="path110"
       d="m 1389.2922,223.63751 v -38.22854 l 24.4553,0.11641 c 25.2605,0.12025 26.2091,0.18088 26.2091,1.67532 0,1.47967 -1.0418,1.55292 -24.9425,1.75377 l -23.1887,0.19486 v 15.58907 15.58907 l 20.8883,0.19486 c 21.6684,0.20214 22.1765,0.2431 22.1765,1.78778 0,1.43271 -1.2128,1.52171 -22.4376,1.64668 l -20.6837,0.12179 0.1306,10.5957 c 0.072,5.82763 0.2345,13.61063 0.3615,17.29555 l 0.2308,6.69986 2.0052,0.2028 c 1.1028,0.11154 10.7739,0.30018 21.4914,0.4192 21.7053,0.24104 24.6305,0.47592 23.241,1.86614 -0.3683,0.36852 -6.2498,0.50721 -25.2088,0.59445 l -24.7284,0.11378 z"
       style="fill:#b3c967;fill-opacity:1;stroke-width:0.389727" />
    <path
       id="path112"
       d="m 1509.7177,261.824 c -2.8999,-0.67882 -7.5263,-6.56226 -37.7631,-48.02445 -8.871,-12.16435 -16.2798,-22.11699 -16.4639,-22.11699 -0.1841,0 -0.3462,8.98807 -0.3602,19.97349 -0.028,21.90171 -0.5363,47.92038 -0.9633,49.30042 -0.1769,0.57167 -0.5788,0.87689 -1.1547,0.87689 -0.5621,0 -0.9991,-0.31895 -1.2014,-0.87689 -0.1749,-0.48228 -0.3782,-17.66923 -0.4517,-38.19321 l -0.1337,-37.31633 h 1.2687 c 1.0275,0 1.6417,0.39482 3.2317,2.07757 4.1764,4.41992 12.0655,14.93429 37.5028,49.98257 7.6756,10.57561 14.0871,19.23546 14.2479,19.24411 0.1607,0.009 0.3027,-7.04319 0.3154,-15.67077 0.036,-24.80282 0.6072,-53.34284 1.0911,-54.56173 0.4861,-1.22464 1.7392,-1.44129 2.2542,-0.38973 0.4202,0.85811 0.6687,76.10852 0.2512,76.05424 -0.1688,-0.0219 -0.9208,-0.18357 -1.671,-0.35919 z"
       style="fill:#b3c967;fill-opacity:1;stroke-width:0.389727" />
    <path
       id="path114"
       d="m 1197.7415,146.31612 c -7.4154,-1.44973 -15.862,-6.11557 -21.133,-11.67372 -3.3237,-3.50469 -5.348,-6.55443 -7.1505,-10.77228 -4.9703,-11.63062 -4.9679,-23.9159 0.01,-34.537127 5.0759,-10.837415 14.4776,-18.652364 25.9782,-21.593705 13.648,-3.490568 28.7427,1.713267 37.7976,13.030591 2.2857,2.856756 6.0068,9.459474 6.0068,10.658483 0,0.946809 -1.8048,0.4746 -2.9905,-0.782445 -0.6571,-0.696636 -2.3012,-2.932693 -3.6535,-4.969015 -7.2139,-10.862187 -17.4761,-16.168644 -29.9159,-15.469113 -13.2575,0.745519 -24.4925,8.653709 -30.4968,21.466401 -2.3835,5.086373 -2.7052,6.854875 -2.6986,14.83754 0,4.91864 0.1842,7.78767 0.5997,9.55073 0.7268,3.08363 3.4354,8.88983 5.8212,12.47873 3.5263,5.30418 10.7333,10.90651 16.9537,13.17891 2.1193,0.77418 3.53,0.96082 8.5772,1.13481 7.6563,0.26395 12.1527,-0.26274 15.4614,-1.81107 8.2643,-3.8673 14.6185,-10.68902 18.1422,-19.47687 1.1777,-2.9371 3.1153,-11.12277 2.7252,-11.51289 -0.1178,-0.11777 -7.0132,-0.21412 -15.3231,-0.21412 -8.8739,0 -15.5216,-0.15685 -16.1087,-0.38009 -1.1832,-0.44984 -1.3847,-2.0866 -0.3177,-2.57994 0.3751,-0.17343 8.3548,-0.38192 17.7326,-0.46331 l 17.0505,-0.14799 -0.033,17.2773 c -0.033,17.31314 -0.2209,21.38942 -1.0234,22.1919 -1.0056,1.0056 -1.3887,-1.36273 -1.6576,-10.24729 -0.1479,-4.88798 -0.3794,-8.99773 -0.5145,-9.13279 -0.5696,-0.56959 -1.4648,0.35275 -2.7898,2.87419 -2.5852,4.91968 -9.3578,11.26268 -15.1442,14.18365 -5.4451,2.74868 -15.7194,4.10931 -21.9024,2.90053 z"
       style="fill:#b3c967;fill-opacity:1;stroke-width:0.389727" />
    <path
       id="path116"
       d="M 1256.0056,106.72214 V 68.528928 l 23.6759,0.02246 c 13.0218,0.01235 24.3774,0.145963 25.2348,0.29691 1.3038,0.22954 1.5783,0.440737 1.6773,1.290645 0.09,0.768537 -0.1004,1.092496 -0.7794,1.329272 -0.4938,0.172192 -11.0259,0.381977 -23.4046,0.466188 l -22.5067,0.15311 V 87.588108 103.0887 l 19.8045,0.24025 c 11.9031,0.14439 20.2217,0.39889 20.8504,0.63789 1.3533,0.51452 1.4599,2.13543 0.169,2.56957 -0.4823,0.16219 -9.865,0.37412 -20.8504,0.47095 l -19.9735,0.17606 v 17.67934 17.67935 l 22.9747,0.11487 c 17.5673,0.0878 23.0877,0.22801 23.455,0.59554 1.4284,1.42926 -1.4607,1.60263 -27.2357,1.63439 l -23.0913,0.0284 z"
       style="fill:#b3c967;fill-opacity:1;stroke-width:0.389727" />
    <path
       id="path118"
       d="m 1318.8565,143.84361 c -0.3915,-1.40006 -0.3915,-72.842877 0,-74.242933 0.5866,-2.097723 2.1105,-1.226982 5.9682,3.410108 3.1025,3.729363 12.3404,16.179582 25.3027,34.101085 12.2905,16.9928 22.8189,31.16782 23.6813,31.88353 0.5016,0.41624 0.6194,0.12468 0.8609,-2.13077 0.1539,-1.43715 0.4193,-17.00601 0.5897,-34.59746 0.1704,-17.591461 0.4366,-32.37907 0.5914,-32.861357 0.3377,-1.05129 0.7789,-1.123856 1.1849,-0.194863 0.3915,0.896062 0.8764,30.169342 0.9199,55.53605 l 0.035,20.16836 -1.4615,-0.003 c -1.6801,-0.003 -3.2087,-0.89567 -4.7511,-2.77474 -0.8629,-1.05103 -41.2776,-56.381673 -48.3169,-66.149074 l -1.786,-2.478141 -0.25,2.283278 c -0.1375,1.255804 -0.277,11.929014 -0.31,23.718246 -0.06,21.566411 -0.5531,42.898321 -1.0286,44.526271 -0.3465,1.18657 -0.8662,1.1042 -1.2295,-0.19486 z"
       style="fill:#b3c967;fill-opacity:1;stroke-width:0.389727" />
    <path
       id="path120"
       d="M 1395.1381,106.72964 V 68.501357 l 24.6502,0.111217 c 13.5576,0.06117 24.9571,0.261514 25.3322,0.445209 0.3751,0.183695 0.682,0.659812 0.682,1.058036 0,1.673624 -0.6081,1.71959 -24.4553,1.848558 l -22.7016,0.122773 v 15.500699 15.500701 l 20.3632,0.26645 c 11.1998,0.14654 20.8398,0.36964 21.4224,0.49577 1.1395,0.24674 1.8083,1.52389 1.1451,2.18701 -0.7664,0.76643 -6.9049,1.02508 -24.9098,1.04957 l -18.0288,0.0245 0.1014,17.63513 0.1014,17.63513 22.799,0.19487 c 12.5394,0.10717 23.1059,0.34515 23.481,0.52885 0.8669,0.42454 0.8669,0.8576 0,1.27515 -0.3751,0.18066 -11.7746,0.38438 -25.3322,0.4527 l -24.6502,0.12423 z"
       style="fill:#b3c967;fill-opacity:1;stroke-width:0.389727" />
    <path
       id="path122"
       d="m 1458.0372,144.45808 c -0.6524,-1.0555 -0.8925,-12.50641 -0.9119,-43.49399 l -0.021,-32.844049 7.892,0.201093 c 4.3405,0.110601 12.3067,0.293519 17.7025,0.406483 15.8386,0.331588 18.8356,0.971798 22.7163,4.852487 1.2285,1.228484 2.7939,3.047883 3.4786,4.043108 2.2754,3.307154 2.5262,4.462233 2.5531,11.756093 0.024,6.434847 -0.01,6.686988 -1.0289,8.768851 -1.4128,2.875284 -5.0527,7.221604 -7.1234,8.505954 -0.9243,0.57329 -2.0057,1.24747 -2.403,1.49818 -0.6558,0.41381 -0.4092,0.75512 2.6752,3.7024 3.9475,3.77205 5.0953,5.88993 5.735,10.58215 0.5206,3.81781 0.5476,20.13218 0.036,21.47883 -0.4132,1.08688 -2.0433,1.40679 -2.6115,0.51253 -0.1703,-0.26794 -0.4245,-5.4854 -0.5651,-11.59437 -0.1865,-8.10579 -0.4106,-11.59389 -0.8294,-12.90824 -0.8293,-2.60275 -2.7879,-5.24082 -4.7407,-6.38518 -3.3527,-1.96484 -5.6834,-2.20745 -23.2591,-2.42115 l -16.2122,-0.19712 -0.2845,16.07777 c -0.1564,8.84276 -0.4416,16.49123 -0.6338,16.9966 -0.3703,0.97388 -1.6755,1.25226 -2.1641,0.46157 z m 36.4812,-37.73342 c 3.2889,-0.57284 7.4373,-2.80338 9.5182,-5.1178 7.8569,-8.738769 5.7424,-22.72817 -4.1731,-27.609571 -3.4426,-1.694778 -6.6194,-1.954423 -23.9546,-1.957863 l -14.907,-0.003 v 17.794046 17.794048 l 15.6865,-0.26328 c 8.6275,-0.1448 16.651,-0.43128 17.83,-0.63662 z"
       style="fill:#b3c967;fill-opacity:1;stroke-width:0.389727" />
    <path
       id="path124"
       d="m 1518.49,144.5312 c -0.2463,-0.3985 3.0353,-9.32721 13.323,-36.25015 13.9076,-36.396163 15.6894,-40.305396 18.032,-39.561875 1.4446,0.458486 4.5903,7.882057 16.1862,38.197835 6.1492,16.07622 11.9318,31.15864 12.8501,33.51649 1.5547,3.9916 1.6178,4.29578 0.9162,4.41448 -2.182,0.36919 -3.723,-2.38271 -9.2373,-16.49601 l -3.5023,-8.96371 h -17.9967 -17.9966 l -3.7921,9.93803 c -3.7734,9.88932 -5.4074,13.60676 -6.5524,14.90704 -0.6567,0.74576 -1.8544,0.90574 -2.2301,0.29787 z m 44.5383,-29.59227 c 0.9195,-0.17778 1.7587,-0.41021 1.865,-0.51651 0.4684,-0.46838 -15.1781,-40.437318 -15.8298,-40.437318 -0.5461,0 -2.9711,6.00886 -11.0885,27.475728 -2.4316,6.43049 -4.6062,12.17409 -4.8326,12.76355 l -0.4115,1.07175 14.3128,-0.017 c 7.872,-0.009 15.0651,-0.16244 15.9846,-0.34023 z"
       style="fill:#b3c967;fill-opacity:1;stroke-width:0.389727" />
    <path
       id="path126"
       d="m 1589.2979,107.61874 c 0.1253,-39.335483 0.1137,-39.089812 1.8409,-39.089812 0.3962,0 0.8641,0.394599 1.0397,0.876885 0.1757,0.482287 0.3784,17.136234 0.4504,37.008767 l 0.1309,36.13189 21.907,0.1127 c 22.5217,0.11585 24.6795,0.26259 22.4564,1.5271 -0.7603,0.43244 -5.4169,0.55654 -24.4417,0.65137 l -23.5025,0.11715 z"
       style="fill:#b3c967;fill-opacity:1;stroke-width:0.389727" />
    <path
       id="path128"
       d="M 198.29498,389.26751 C 122.61029,382.47571 60.604242,345.75944 32.313407,290.98317 5.8175928,239.68238 10.842043,172.80102 44.561204,127.95052 54.205192,115.12287 76.996005,93.640817 90.450965,84.695977 115.84619,67.813264 149.71885,55.263904 183.386,50.264815 c 18.72783,-2.780817 60.42698,-3.166771 78.32162,-0.72492 36.10495,4.926778 68.4262,17.323113 98.14922,37.643678 17.85547,12.207137 17.49302,11.174669 8.97406,25.564297 -6.55381,11.07022 -10.71578,19.48734 -14.77594,29.88269 -1.34474,3.44302 -1.82872,3.20365 -14.89771,-7.3685 -29.4158,-23.79589 -55.54994,-34.64917 -94.30486,-39.163996 -66.52313,-7.74974 -130.99917,18.091366 -159.598429,63.964846 -20.195505,32.39378 -20.701668,84.38493 -1.136549,116.74216 26.006358,43.0099 74.180718,65.72604 139.320138,65.69499 53.09859,-0.0253 92.73628,-15.44566 118.35134,-46.04261 7.58397,-9.05897 19.4367,-29.12368 21.08604,-35.69519 l 1.00216,-3.99287 h -75.77598 -75.77597 v -23.3836 -23.3836 h 91.97549 91.9755 v -4.04212 c 0,-8.1578 6.56603,-35.94012 11.00957,-46.58381 19.1674,-45.91217 60.01432,-81.026484 115.20427,-99.036075 29.8103,-9.7277 44.02312,-11.691505 84.23856,-11.639356 30.61276,0.0397 37.15796,0.498794 51.44392,3.608419 21.8648,4.759312 36.88203,9.860079 53.78228,18.267736 21.65421,10.772697 20.70281,9.342458 15.17426,22.811452 -4.40426,10.729924 -6.83623,19.226944 -9.39612,32.829014 l -1.10142,5.8524 -7.79453,-5.59822 c -10.17828,-7.31027 -31.66589,-18.0577 -44.42884,-22.2219 -46.1283,-15.050402 -103.14056,-11.76099 -144.08442,8.31318 -49.93243,24.48114 -75.80408,69.63874 -69.36466,121.07237 3.41839,27.30365 13.67169,48.31136 32.59525,66.7835 27.72914,27.06764 61.49478,39.7543 110.70303,41.59409 37.55488,1.40409 63.7033,-3.22198 89.63713,-15.8582 24.91509,-12.13984 41.96817,-29.393 55.48366,-56.13457 l 6.30311,-12.47126 -76.49141,-0.40441 -76.4914,-0.40443 v -23.3689 -23.36891 l 107.17483,-0.0867 107.17484,-0.0865 -4.67672,-3.41726 c -19.24474,-14.06204 -28.83329,-31.08493 -30.02797,-53.30964 -1.62161,-30.16695 8.31028,-51.64009 32.49089,-70.246639 26.37085,-20.291908 62.42065,-30.598684 114.67832,-32.786972 43.08514,-1.804188 90.31864,4.337403 126.82764,16.49091 21.9846,7.318452 51.9779,22.477395 60.3549,30.503978 l 7.0647,6.769143 -0.6809,9.4141 c -0.731,10.10548 -4.0463,15.34496 -12.4893,19.73781 -7.4455,3.87389 -14.1825,2.64535 -29.9681,-5.4649 -20.9458,-10.76138 -40.7248,-18.18369 -62.4745,-23.44431 -29.46407,-7.126491 -42.59274,-8.284488 -84.96041,-7.493807 -42.15323,0.786677 -53.36443,2.654831 -72.71114,12.116047 -29.99027,14.66632 -31.88478,45.69888 -3.66291,59.99999 15.52727,7.86826 30.0582,10.11775 100.93635,15.62564 72.38061,5.62466 93.51961,8.96605 121.63341,19.22634 32.162,11.73768 52.308,31.87221 58.0462,58.01319 2.4522,11.17134 1.233,38.53149 -2.1972,49.3063 -3.8324,12.03831 -16.912,30.5327 -27.9795,39.56268 -11.9477,9.74817 -36.5575,22.03061 -54.0294,26.96547 -29.2844,8.27121 -41.0622,9.51224 -90.41659,9.52715 -48.53175,0.014 -59.43617,-0.93996 -91.79338,-8.03592 -32.03184,-7.0246 -61.81851,-19.1504 -87.53591,-35.63486 -5.98907,-3.83888 -11.64703,-6.9798 -12.57327,-6.9798 -0.92623,0 -5.30348,3.0437 -9.72722,6.76378 -25.22013,21.20852 -59.71707,36.3493 -98.61814,43.2837 -14.25288,2.54068 -25.04695,3.3172 -46.60881,3.35306 -53.385,0.0887 -93.44252,-10.0852 -131.37585,-33.36734 -16.07662,-9.86726 -46.43712,-39.2464 -54.9135,-53.13847 -3.0009,-4.91821 -6.15769,-8.72529 -7.01508,-8.46019 -0.8574,0.26513 -4.99511,5.69213 -9.1949,12.06003 -15.74228,23.86906 -44.67485,48.58127 -71.8126,61.33738 -35.84247,16.84776 -88.42458,25.19275 -133.34217,21.16193 z m 795.87349,-48.42299 c 37.01323,-5.14808 63.16733,-17.68052 73.42473,-35.18342 4.9525,-8.45079 6.7326,-24.86157 3.6951,-34.06531 -4.4074,-13.35433 -21.4669,-25.44249 -41.9136,-29.69946 -12.7748,-2.65968 -44.76393,-5.95768 -97.61413,-10.06377 -57.14831,-4.44004 -89.14916,-9.51072 -112.89507,-17.88877 -3.76619,-1.3288 -7.08409,-2.17952 -7.3731,-1.89053 -0.28899,0.289 -1.26182,7.83771 -2.16183,16.77489 -2.15665,21.41578 -6.57144,39.69736 -13.45889,55.73302 -4.619,10.75415 -5.23201,13.34086 -3.45509,14.57926 1.18811,0.82802 11.2798,6.01387 22.42598,11.52409 28.56037,14.11908 61.56709,24.61485 92.64343,29.45961 16.37263,2.55248 70.28875,3.00055 86.68247,0.72039 z"
       style="fill:#afaeb4;fill-opacity:1;stroke-width:1.55891" />
  </g>
</svg>
