<?xml version="1.0" encoding="UTF-8" standalone="no"?>
<svg
   xmlns:dc="http://purl.org/dc/elements/1.1/"
   xmlns:cc="http://creativecommons.org/ns#"
   xmlns:rdf="http://www.w3.org/1999/02/22-rdf-syntax-ns#"
   xmlns:svg="http://www.w3.org/2000/svg"
   xmlns="http://www.w3.org/2000/svg"
   xmlns:sodipodi="http://sodipodi.sourceforge.net/DTD/sodipodi-0.dtd"
   xmlns:inkscape="http://www.inkscape.org/namespaces/inkscape"
   inkscape:version="1.0 (4035a4fb49, 2020-05-01)"
   sodipodi:docname="Hidraulica.svg"
   viewBox="0 0 274 238"
   height="238"
   width="274"
   id="svg10"
   version="1.1">
  <metadata
     id="metadata16">
    <rdf:RDF>
      <cc:Work
         rdf:about="">
        <dc:format>image/svg+xml</dc:format>
        <dc:type
           rdf:resource="http://purl.org/dc/dcmitype/StillImage" />
        <dc:title></dc:title>
      </cc:Work>
    </rdf:RDF>
  </metadata>
  <defs
     id="defs14" />
  <sodipodi:namedview
     inkscape:current-layer="g18"
     inkscape:window-maximized="1"
     inkscape:window-y="-8"
     inkscape:window-x="-8"
     inkscape:cy="129.43119"
     inkscape:cx="66.940891"
     inkscape:zoom="1.2626907"
     showgrid="false"
     id="namedview12"
     inkscape:window-height="1017"
     inkscape:window-width="1920"
     inkscape:pageshadow="2"
     inkscape:pageopacity="0"
     guidetolerance="10"
     gridtolerance="10"
     objecttolerance="10"
     borderopacity="1"
     bordercolor="#666666"
     pagecolor="#ffffff" />
  <g
     id="g18"
     inkscape:label="Image"
     inkscape:groupmode="layer">
    <path
       id="path38"
       d="m 110.55123,233.38324 c -7.9161,-0.51246 -23.004998,-3.09651 -33.658288,-5.76415 -9.33086,-2.3365 -22.87786,-6.60687 -35.43589,-11.17032 l -4.15348,-1.50933 -4.75692,-6.78617 c -9.92999,-14.16601 -15.90613,-25.81843 -20.3521,-39.68297 -3.4152697,-10.65032 -4.4284097,-16.68698 -4.6883497,-27.9347 -0.46456,-20.10124 1.98488,-32.13567 9.7484397,-47.895428 6.1998,-12.585394 13.06941,-21.987875 24.17305,-33.085791 12.96579,-12.959108 27.13004,-22.903457 44.57279,-31.293394 22.712998,-10.92492 52.831478,-19.0292477 76.558828,-20.6005717 8.04046,-0.532473 38.79588,-0.237598 44.01702,0.422024 19.12907,2.4167027 42.68833,8.1978667 56.8231,13.9437187 2.35842,0.958712 2.37684,0.978733 2.50686,2.725597 0.50693,6.810695 -8.67871,54.715722 -15.1979,79.260185 -8.28054,31.17585 -19.40416,57.74478 -32.16961,76.83754 -10.3908,15.54109 -23.35639,28.50503 -36.90918,36.90448 -5.1374,3.18394 -14.65254,7.71213 -20.39296,9.70486 -10.7985,3.74859 -19.149,5.25839 -32.86632,5.94232 -8.74212,0.43588 -10.84215,0.43377 -17.81909,-0.0179 z m 24.4098,-25.73188 c 14.04468,-1.42793 29.76708,-9.60929 42.15616,-21.93653 7.35432,-7.3176 11.9234,-13.77792 15.83703,-22.39226 l 2.06884,-4.55377 7.31388,-0.10756 7.31388,-0.10756 0.15864,2.49148 c 0.30428,4.77855 2.3095,7.08967 6.37364,7.34596 2.05597,0.12966 2.64663,0.017 3.51937,-0.6716 2.06774,-1.6313 2.1211,-2.4738 2.09655,-33.10549 -0.0141,-17.56433 -0.17053,-28.54973 -0.41691,-29.27422 -0.45929,-1.35056 -2.19447,-2.12965 -4.84644,-2.17605 -3.78457,-0.0662 -6.3001,2.44506 -6.68339,6.67207 -0.11965,1.31956 -0.43997,2.58379 -0.71181,2.8094 -0.30443,0.25265 -2.65762,0.36789 -6.12693,0.30005 l -5.63266,-0.11014 -1.47525,-4.15779 c -3.02307,-8.52012 -6.65968,-15.835454 -11.01043,-22.14839 l -2.57432,-3.735336 1.93124,-1.791171 c 1.06219,-0.985143 5.22778,-4.933976 9.25688,-8.77519 4.02909,-3.84121 8.0096,-7.578713 8.84557,-8.305565 l 1.51995,-1.321547 -0.22321,1.754685 c -0.42484,3.339543 -1.12192,17.044761 -0.87929,17.287393 0.13399,0.133988 0.64384,-0.112707 1.13301,-0.54821 0.48916,-0.435507 3.43087,-3.067204 6.53712,-5.848222 l 5.64774,-5.056392 -0.10402,-13.919332 -0.10402,-13.919335 -4.15778,-0.461075 c -2.28679,-0.253592 -8.36082,-0.58999 -13.49785,-0.747552 l -9.34006,-0.286476 -3.33129,2.888646 c -4.67652,4.055119 -8.67703,8.002994 -8.67703,8.562866 0,0.762562 2.09746,1.026922 10.19177,1.284547 l 7.61789,0.242458 -10.58774,9.956073 -10.58774,9.956072 -1.9799,-1.427028 C 155.81626,60.991946 144.83789,56.791452 127.71529,55.554272 110.50799,54.310975 94.964162,58.090277 81.873932,66.700074 66.214722,76.999556 54.604812,91.640961 49.216022,107.8854 c -3.25783,9.8207 -4.31762,29.12857 -2.18124,39.73916 1.73721,8.6281 5.63379,17.89262 11.23913,26.72225 l 3.10216,4.88655 -6.34069,6.20088 c -7.00122,6.84685 -8.84388,9.21503 -9.12741,11.73046 -0.34803,3.08771 2.19137,6.15183 5.09835,6.15183 2.8891,0 4.94042,-1.4716 13.08698,-9.3885 2.97849,-2.89452 5.56226,-5.26177 5.74171,-5.26057 0.17945,0.001 1.7518,1.13819 3.49412,2.52664 10.62949,8.47066 24.88236,15.11268 35.242198,16.42333 3.97654,0.50308 21.55301,0.52568 26.3897,0.0339 z"
       style="fill:#abca61;fill-opacity:1;stroke-width:0.39598" />
    <path
       id="path40"
       d="m 63.435741,158.27675 c -4.77438,-11.18998 -5.55538,-15.39932 -5.22684,-28.17115 0.31033,-12.06407 1.0895,-15.68895 5.28427,-24.58382 3.44697,-7.309173 7.3974,-12.871189 13.37482,-18.831107 8.97849,-8.952191 18.20507,-14.233792 30.069479,-17.21277 4.44917,-1.117123 11.58807,-2.257711 11.93838,-1.907406 0.10442,0.104422 -1.92147,4.005909 -4.50199,8.66997 -2.58051,4.66406 -14.449269,26.121013 -26.375019,47.682113 -11.92575,21.5611 -21.80818,39.33695 -21.96097,39.5019 -0.15279,0.16495 -1.32375,-2.15153 -2.60213,-5.14773 z"
       style="fill:#abca61;fill-opacity:1;stroke-width:0.39598" />
    <path
       id="path42"
       d="m 138.59522,91.934418 c -9.0109,-15.89753 -12.40279,-22.4784 -12.40279,-24.063607 0,-0.951193 9.96904,1.107214 17.42311,3.597521 4.9418,1.650992 11.44479,4.997041 15.96328,8.213748 2.00075,1.42433 3.71638,2.655055 3.81251,2.734946 0.27877,0.231672 -3.63596,4.094563 -10.47026,10.331611 -3.48463,3.180097 -6.96097,6.366438 -7.72521,7.080754 l -1.38952,1.298769 z"
       style="fill:#abca61;fill-opacity:1;stroke-width:0.39598" />
    <path
       id="path44"
       d="m 166.30452,142.23664 c -6.34772,-11.59726 -12.53242,-22.9389 -13.74377,-25.20365 l -2.20246,-4.11773 5.24119,-5.14198 c 7.24868,-7.11147 13.31805,-12.654987 15.26892,-13.946015 1.51443,-1.002198 1.71302,-1.040951 2.53925,-0.495507 1.81871,1.200645 6.96568,11.022622 9.94622,18.980422 2.24228,5.9867 2.79195,9.85934 2.8001,19.72798 0.008,9.48732 -0.35848,12.35271 -2.32861,18.21507 -1.35481,4.0314 -5.31697,13.06734 -5.72988,13.06734 -0.1373,0 -5.44323,-9.48867 -11.79096,-21.08593 z"
       style="fill:#abca61;fill-opacity:1;stroke-width:0.39598" />
    <path
       id="path46"
       d="m 116.09495,195.76539 c -8.17184,-0.45625 -13.42983,-2.01984 -23.098769,-6.869 -5.61507,-2.81606 -9.19123,-5.00401 -11.98351,-7.33171 l -2.21595,-1.84725 7.95766,-7.19674 7.95766,-7.19675 41.304259,-0.0107 c 32.93722,-0.009 41.24522,0.0895 41.01277,0.48423 -1.45706,2.47422 -6.28603,8.29922 -9.30411,11.22317 -11.08195,10.73635 -25.86829,17.93606 -38.1667,18.584 -2.17789,0.11474 -4.93985,0.26252 -6.13769,0.3284 -1.19784,0.0659 -4.49437,-0.01 -7.32562,-0.16762 z"
       style="fill:#abca61;fill-opacity:1;stroke-width:0.39598" />
    <path
       id="path48"
       d="m 199.49364,144.41771 -2.13295,-0.14731 0.25204,-2.4114 c 0.13862,-1.32627 0.25204,-5.94907 0.25204,-10.2729 v -7.86151 h 5.34573 5.34573 v 10.49346 10.49347 l -3.46483,-0.0733 c -1.90565,-0.0403 -4.42464,-0.13954 -5.59776,-0.22056 z"
       style="fill:#abca61;fill-opacity:1;stroke-width:0.39598" />
    <path
       id="path50"
       d="m 68.458501,167.67834 -1.66658,-2.37587 4.48006,0.007 4.48007,0.007 -2.43545,2.3684 c -1.3395,1.30262 -2.60557,2.36839 -2.81348,2.36839 -0.20792,0 -1.12799,-1.06914 -2.04462,-2.37588 z"
       style="fill:#abca61;fill-opacity:1;stroke-width:0.39598" />
  </g>
</svg>
