<svg xmlns="http://www.w3.org/2000/svg" xmlns:xlink="http://www.w3.org/1999/xlink" version="1.1" style="enable-background:new 0 0 512 512;" xml:space="preserve" width="512" height="512"><rect id="backgroundrect" width="100%" height="100%" x="0" y="0" fill="none" stroke="none"/>



















<g class="currentLayer" style=""><title>Layer 1</title><g id="svg_1" class="" fill-opacity="1" fill="#3a3a39">
	<g id="svg_2" fill="#3a3a39">
		<polygon points="339.392,258.624 512,367.744 512,144.896   " id="svg_3" fill="#3a3a39"/>
	</g>
</g><g id="svg_4" class="selected" fill-opacity="1" fill="#3a3a39">
	<g id="svg_5" fill="#3a3a39">
		<polygon points="0,144.896 0,367.744 172.608,258.624   " id="svg_6" fill="#3a3a39"/>
	</g>
</g><g id="svg_7" class="" fill-opacity="1" fill="#3a3a39">
	<g id="svg_8" fill="#3a3a39">
		<path d="M480,80H32C16.032,80,3.36,91.904,0.96,107.232L256,275.264l255.04-168.032C508.64,91.904,495.968,80,480,80z" id="svg_9" fill="#3a3a39"/>
	</g>
</g><g id="svg_10" class="" fill-opacity="1" fill="#3a3a39">
	<g id="svg_11" fill="#3a3a39">
		<path d="M310.08,277.952l-45.28,29.824c-2.688,1.76-5.728,2.624-8.8,2.624c-3.072,0-6.112-0.864-8.8-2.624l-45.28-29.856    L1.024,404.992C3.488,420.192,16.096,432,32,432h448c15.904,0,28.512-11.808,30.976-27.008L310.08,277.952z" id="svg_12" fill="#3a3a39"/>
	</g>
</g><g id="svg_13">
</g><g id="svg_14">
</g><g id="svg_15">
</g><g id="svg_16">
</g><g id="svg_17">
</g><g id="svg_18">
</g><g id="svg_19">
</g><g id="svg_20">
</g><g id="svg_21">
</g><g id="svg_22">
</g><g id="svg_23">
</g><g id="svg_24">
</g><g id="svg_25">
</g><g id="svg_26">
</g><g id="svg_27">
</g></g></svg>