<?xml version="1.0" encoding="UTF-8" standalone="no"?>
<svg
   xmlns:dc="http://purl.org/dc/elements/1.1/"
   xmlns:cc="http://creativecommons.org/ns#"
   xmlns:rdf="http://www.w3.org/1999/02/22-rdf-syntax-ns#"
   xmlns:svg="http://www.w3.org/2000/svg"
   xmlns="http://www.w3.org/2000/svg"
   xmlns:sodipodi="http://sodipodi.sourceforge.net/DTD/sodipodi-0.dtd"
   xmlns:inkscape="http://www.inkscape.org/namespaces/inkscape"
   inkscape:version="1.0 (4035a4fb49, 2020-05-01)"
   sodipodi:docname="Reciclatge.svg"
   viewBox="0 0 276 239"
   height="239"
   width="276"
   id="svg10"
   version="1.1">
  <metadata
     id="metadata16">
    <rdf:RDF>
      <cc:Work
         rdf:about="">
        <dc:format>image/svg+xml</dc:format>
        <dc:type
           rdf:resource="http://purl.org/dc/dcmitype/StillImage" />
        <dc:title></dc:title>
      </cc:Work>
    </rdf:RDF>
  </metadata>
  <defs
     id="defs14" />
  <sodipodi:namedview
     inkscape:current-layer="g18"
     inkscape:window-maximized="1"
     inkscape:window-y="-8"
     inkscape:window-x="-8"
     inkscape:cy="140.75139"
     inkscape:cx="286.30618"
     inkscape:zoom="1.7782427"
     showgrid="false"
     id="namedview12"
     inkscape:window-height="1017"
     inkscape:window-width="1920"
     inkscape:pageshadow="2"
     inkscape:pageopacity="0"
     guidetolerance="10"
     gridtolerance="10"
     objecttolerance="10"
     borderopacity="1"
     bordercolor="#666666"
     pagecolor="#ffffff" />
  <g
     id="g18"
     inkscape:label="Image"
     inkscape:groupmode="layer">
    <g
       transform="translate(1.9882213,0.39764359)"
       id="g22">
      <path
         d="m 47.001953,55.03125 c -0.0014,0.0013 -0.0044,0.0026 -0.0059,0.0039 0.0107,0.03338 0.0244,0.06513 0.03711,0.09766 -0.01058,-0.03377 -0.02067,-0.06775 -0.03125,-0.101562 z m 0.378906,0.318359 c -0.02257,0.02604 -0.0413,0.04984 -0.06641,0.07813 0.02223,-0.02521 0.04554,-0.04949 0.06836,-0.07422 -4.67e-4,-0.0014 -0.0015,-0.0025 -0.002,-0.0039 z m -0.06641,0.07813 c -0.02651,0.03007 -0.05392,0.05933 -0.08008,0.08984 -0.02413,0.02604 -0.05001,0.05047 -0.07227,0.07813 -0.01617,0.0201 -0.02046,0.0328 -0.0293,0.04687 0.08007,-0.08659 0.112748,-0.137224 0.181641,-0.214844 z m -6.9375,6.697266 c -0.01575,0.0088 -0.03153,0.01821 -0.04687,0.02734 -0.01602,0.0095 -0.02895,0.0242 -0.04687,0.0293 -0.0064,0.0018 0.01096,-0.02178 0.0059,-0.01758 -0.03234,0.027 -0.08227,0.132189 -0.126953,0.142579 -0.121628,0.09797 -0.066,0.0571 -0.195312,0.148437 -0.0036,0.0026 -0.0078,0.0071 -0.01172,0.0098 -0.05457,0.05683 -0.110118,0.112615 -0.167969,0.166015 -0.0044,0.0079 -0.0088,0.01595 -0.01367,0.02344 -0.01374,0.02091 -0.03026,0.04028 -0.04492,0.06055 -0.02567,0.02527 -0.04918,0.05232 -0.07617,0.07617 -0.01807,0.01597 -0.06265,-0.01139 -0.06055,0.03906 -0.02707,0.02507 -0.0384,0.06131 -0.06055,0.08984 z m -1.65625,1.527344 -0.232422,0.246094 0.257813,-0.242188 c -0.0087,-0.0013 -0.01738,-0.0013 -0.02539,-0.0039 z"
         transform="translate(-1.9882213,-0.39764359)"
         style="fill:#dddddd;fill-opacity:1"
         id="path34" />
      <path
         d="m 167.95898,6.9101562 c -0.0313,-9.9e-6 -0.0644,0.00258 -0.0957,0.00391 -0.0183,0.00277 -0.0365,0.00652 -0.0547,0.00977 0.0554,-9.7e-5 0.11084,1.75e-5 0.16602,0 0.0712,-8e-6 0.14186,-1.79e-5 0.21289,0 -0.0762,-0.00428 -0.15229,-0.013633 -0.22852,-0.013672 z M 69.892578,96.509766 c -1.643636,-6.13e-4 -3.256044,0.04186 -4.683594,0.109375 0.211002,-6.12e-4 0.421708,-5e-5 0.632813,0 0.271484,3.4e-5 0.542969,4.1e-5 0.814453,0 0.0084,-2e-6 0.01464,0.0025 0.02539,0 0.0017,-3.92e-4 0.0023,3.22e-4 0.0039,0 0.01113,-0.0023 0.02552,-0.0078 0.02734,0 h 0.002 c 0.0075,-0.01815 0.04118,-10e-7 0.0625,0 0.08811,4e-6 0.177515,10e-7 0.265625,0 h 0.08008 0.550781 0.705078 c 0.100148,0.01351 0.217665,-0.01273 0.31836,0 0.227106,0.02871 0.0132,0.01534 0.179687,0.03906 0.02509,0.0036 0.05089,0.0042 0.07617,0.0059 0.32457,-0.0078 0.649919,-0.01 0.974609,-0.0098 0.292169,0.0028 0.584769,4.05e-4 0.876954,0 0.282871,5.4e-5 0.564783,6e-5 0.847656,0 0.24092,-4.8e-5 0.481736,-5e-6 0.722656,0 0.428145,-2e-6 0.857011,-10e-7 1.285156,0 h 0.644532 0.798828 c -1.41832,-0.09383 -3.286208,-0.143814 -5.210938,-0.144531 z m -11.583984,3.531254 c 0.0027,0.004 0.0087,0.004 0.01172,0.008 v -0.002 c 4.31e-4,0.002 -0.0142,-0.009 -0.01172,-0.006 z m -1.019532,10.73632 c -0.115965,0.0804 -0.197243,0.42011 -0.222656,1.03711 -0.0078,0.18898 0.0026,0.34347 0.01172,0.5 -4.95e-4,-0.0442 -3.29e-4,-0.0884 0,-0.13281 4.9e-4,-0.0675 -0.0032,-0.0328 0.03906,-0.14648 0.0038,-0.0104 0.0085,-0.0213 0.01562,-0.0293 0.02497,-0.0295 0.05588,-0.0519 0.08008,-0.082 0.01402,-0.0175 -0.03438,0.0259 -0.04883,0.043 0.0103,-0.0293 0.019,-0.0566 0.0293,-0.0859 0.0038,-0.008 0.01502,-0.0314 0.01172,-0.0234 -0.02768,0.0652 -0.02008,-0.0231 -0.02148,-0.043 -0.0028,-0.0859 0.0027,-0.0714 0.0625,-0.17773 -0.0019,0.002 -0.004,0.004 -0.0059,0.006 -0.02144,0.0232 -0.01322,-0.007 -0.01563,-0.0332 -0.0128,-0.10524 -0.0053,-0.21273 -0.0039,-0.31836 3e-6,-0.0873 0.0011,-0.0453 0.0918,-0.17579 -0.0112,0.0173 -0.02044,0.0389 -0.03906,0.043 -0.01941,0.005 0.01524,-0.0375 0.02539,-0.0547 0.01427,-0.0241 0.03095,-0.0472 0.04687,-0.0703 -0.0039,-0.041 -6.43e-4,-0.001 0.02148,-0.082 0.0039,-0.014 0.0034,-0.0271 0.0078,-0.041 -0.04543,-0.0278 -0.07383,-0.0784 -0.08594,-0.13282 z m 0.140626,1.75977 c -8.17e-4,0.0367 0.001,0.0737 -0.0059,0.10937 -3e-4,0.002 -0.0067,0.003 -0.0059,0.006 0.003,0.0108 0.0076,0.0209 0.01172,0.0312 0.007,0.0242 0.01266,0.048 0.01953,0.0723 -0.01172,-0.0803 -0.01518,-0.14977 -0.01953,-0.21875 z m 0.02344,0.38086 c 0.02421,0.0439 0.0374,0.0661 0.05078,0.0879 -0.0035,-0.0124 -0.0075,-0.0249 -0.01172,-0.0371 v -0.002 c -0.01335,-0.0267 -0.01979,-0.0276 -0.03906,-0.0488 z m -1.042969,10.94336 c -0.156167,0.0393 -0.263672,0.59561 -0.263672,1.53711 0,0.33598 0.01726,0.60666 0.04297,0.83203 0.0035,-0.0104 0.0084,-0.0204 0.0098,-0.0312 0.0069,-0.0542 -0.0028,-0.10956 0.002,-0.16406 -3e-4,-0.0845 -0.0029,-0.16941 0,-0.25391 0.0022,-0.10983 -0.0094,-0.21862 -0.0059,-0.32813 0.0068,-0.0338 0.01873,-0.10246 0.0332,-0.13476 0.0013,-0.003 0.0093,0.003 0.0098,0 0.0095,-0.0643 -0.01752,-0.13287 -0.01172,-0.19727 0.0047,-0.0967 -0.0037,-0.0773 0.0293,-0.17773 0.0025,-0.008 0.0072,-0.0265 0.01367,-0.0215 0.0091,0.007 -0.0016,0.0432 0.0039,0.0332 0.0024,-0.004 -0.0055,-0.0741 -0.0059,-0.0781 -0.01033,-0.0868 -0.0091,-0.2055 0.03711,-0.2832 0.004,-0.007 -0.0032,0.0274 0.0039,0.0234 0.0079,-0.004 0.0015,-0.0183 0.002,-0.0273 0.01096,0.0232 0.04997,0.0892 0.04297,0.0645 -0.01273,-0.045 -0.04331,-0.0841 -0.05664,-0.12891 -0.0055,-0.0183 -0.0011,-0.0375 0,-0.0566 0.0049,-0.089 0.01884,-0.2104 0.02734,-0.29492 0.0097,-0.0971 0.04588,-0.15708 0.08984,-0.19531 2.18e-4,-0.0391 -0.0042,-0.078 -0.0039,-0.11719 z m -0.146484,2.77929 c 0.0045,0.0166 0.007,0.0473 0.01172,0.0625 0.0014,-0.0151 0.0083,-0.034 0.0098,-0.0469 -0.0071,-0.005 -0.01396,-0.0108 -0.02148,-0.0156 z m 0.08594,0.2461 c 0.0026,0.003 0.0052,0.009 0.0078,0.0117 0.0015,2.9e-4 0.0024,0.002 0.0039,0.002 0.0012,-0.002 0.0027,-0.002 0.0039,-0.004 -0.0097,-0.005 -0.0074,-0.005 -0.01563,-0.01 z m 0.01172,0.0137 -0.002,0.002 c 0.03396,0.036 0.07189,0.0433 0.111328,0.0215 -0.03059,-0.009 -0.07545,-0.0122 -0.09766,-0.0234 -0.0026,-3.5e-4 -0.0093,4.2e-4 -0.01172,0 z m -46.8710936,2.3125 v 0.0215 c 0.00691,0.001 0.012669,0.008 0.019531,0.01 -0.00637,-0.007 -0.013261,-0.0258 -0.019531,-0.0312 z m 71.9492186,2.98242 c 0.01966,0.006 0.0387,0.0104 0.05664,0.0254 -0.01958,-0.019 -0.03827,-0.0272 -0.05664,-0.0254 z m 0.154297,0.22657 c 0.0069,0.0651 0.01452,0.13017 0.02148,0.19531 0.02051,1.1e-4 0.03874,0.0164 0.05859,0.0254 -0.02693,-0.0944 -0.05403,-0.15479 -0.08008,-0.2207 z m 71.1543,3.1289 c -0.004,0.0276 -0.01,0.0566 -0.006,0.0742 0.001,0.002 0.004,-0.002 0.006,-0.004 0.005,0.0187 0.0106,0.036 0.0156,0.0547 -0.005,-0.0419 -0.01,-0.0839 -0.0156,-0.125 z m 0.0156,0.125 c 0.0251,0.10016 -4.1e-4,0.20198 0.002,0.30274 0.005,0.028 -0.003,0.0581 0.002,0.0859 10e-4,0.004 0.002,-0.0177 0.004,-0.0137 0.0179,0.0407 0.0353,0.11278 0.0469,0.1582 -0.0158,-0.18003 -0.0319,-0.35817 -0.0547,-0.5332 z m 0.0566,0.54688 c 0.006,0.0548 0.0191,0.12042 -0.002,0.17382 -0.004,0.0111 -0.001,-0.0255 0.004,-0.0371 0.001,-0.002 0.003,0.004 0.004,0.006 0.004,0.01 0.008,0.0195 0.0117,0.0293 -0.004,-0.0601 -0.0126,-0.11372 -0.0176,-0.17187 z m 0.0234,0.33203 c -0.002,0.0552 -0.002,0.11072 -0.002,0.16601 7.3e-4,0.0415 0.002,0.0815 0.002,0.12305 9e-4,0.001 0.004,0.006 0.004,0.006 0.002,0.006 0.005,0.0117 0.008,0.0176 -0.003,-0.10481 -0.006,-0.20805 -0.0117,-0.3125 z m 0.0234,0.63086 c -3.2e-4,0.0254 -0.002,0.051 -0.002,0.082 0.002,0.0142 0.002,0.0286 0.002,0.043 3.6e-4,-0.0421 5e-5,-0.0827 0,-0.125 z m -143.4433619,2.4414 c -8.35e-5,0.009 0.00198,0.0182 0.00195,0.0274 0.00263,-6.3e-4 0.00699,4.7e-4 0.00977,0 -0.00154,-0.004 -0.00222,-0.008 -0.00391,-0.0117 -0.00755,-0.0158 -0.00536,-0.0122 -0.00781,-0.0156 z m 45.9042969,0.30469 c -0.02009,0.0406 -0.04102,0.0813 -0.04102,0.14648 v 0.0137 c 0.01517,-0.0443 0.02379,-0.13145 0.04102,-0.16016 z m -0.04102,0.16016 c -0.08254,0.24092 -0.140625,0.65766 -0.140625,1.30664 0,0.29603 0.01567,0.53391 0.03516,0.75 2e-6,-0.0755 1.9e-5,-0.15102 0,-0.22656 -5e-6,-0.0753 1.05e-4,-0.15127 0,-0.22657 -5e-4,-0.11365 -0.0034,-0.22623 0,-0.33984 0.0012,-0.0758 -0.0183,-0.15086 0,-0.22656 0.0081,-0.0467 0.02009,-0.0935 0.02539,-0.14063 0.0037,-0.0326 0.0029,-0.065 0.0059,-0.0977 0.01,-0.11009 0.03367,-0.21796 0.04297,-0.32812 0.01067,-0.0286 0.02127,-0.057 0.03125,-0.0859 v -0.0547 z m -45.4414059,1.38281 c -0.00593,0.038 -0.018933,0.0575 -0.027344,0.0918 0.00515,0.004 0.01224,0.0127 0.017578,0.0176 0.00228,-0.038 0.00806,-0.0708 0.00977,-0.10937 z m -0.1445312,0.58789 c -0.00163,-0.002 -4.351e-4,0.005 0,0.01 6.779e-4,-6.4e-4 0.00133,-0.001 0.00195,-0.002 -9.083e-4,-0.003 -5.271e-4,-0.005 -0.00195,-0.008 z M 55.3125,142.62305 c -0.01004,-7.6e-4 -0.04336,0.01 -0.05078,0.008 0.01289,0.049 0.02044,0.13196 0.03516,0.16797 0.01303,-0.0526 0.02412,-0.10496 0.01563,-0.16016 3.08e-4,-0.005 -1.65e-4,-0.0104 0,-0.0156 z m -0.9375,15.96679 c -0.0363,-0.002 -0.0643,0.004 -0.04687,0.0215 0.01259,0.0127 0.03363,0.0127 0.04883,0.0215 5.69e-4,-0.0137 0.0013,-0.0273 0.002,-0.041 -0.0015,-1.1e-4 -0.0024,-0.002 -0.0039,-0.002 z m -0.144531,0.54102 c -0.01861,0.23737 -0.04284,0.44127 -0.04687,0.76758 0.0012,-0.008 0.0029,-0.0149 0.0039,-0.0234 0.0054,-0.0452 0.0069,-0.0914 0.01172,-0.13672 0.0046,-0.0439 0.01158,-0.0872 0.01758,-0.13086 0.0052,-0.028 0.01282,-0.0556 0.01563,-0.084 0.0024,-0.0243 -4.9e-5,-0.0479 0,-0.0723 2.13e-4,-0.10625 0.001,-0.21399 -0.002,-0.32031 z m -0.81836,17.73047 c -0.01328,0.003 -0.02653,0.009 -0.03906,0.0195 0.01211,-0.0112 0.02561,-0.0137 0.03906,-0.0195 z m -0.05469,0.0371 c -0.03543,0.0395 -0.06588,0.11676 -0.09375,0.21484 0.0077,-0.002 0.01372,-0.0117 0.02148,-0.0117 0.0056,0 0.01004,0.007 0.01563,0.008 0.0019,-0.0234 0.0039,-0.0391 0.0078,-0.084 0.0049,-0.0562 0.0249,-0.0965 0.04883,-0.12695 z m -0.103516,2.69336 c 0.003,0.0122 0.0047,0.0333 0.0078,0.0449 0.0031,-0.0173 0.0051,-0.0243 0.0078,-0.0391 -0.0046,-0.004 -0.01143,0.001 -0.01563,-0.006 z m 58.650394,53.92968 c -0.11889,-0.005 -0.24291,0.002 -0.36914,0.0195 h 0.0234 0.25977 c 0.0521,0.004 0.1063,-0.006 0.1582,0 0.0351,0.004 0.0969,0.0203 0.13477,0.0293 0.0625,0.0171 0.11839,0.0566 0.17969,0.0762 0.1449,0.0464 -0.12153,-0.0582 0.0918,0.0293 0.005,0.001 0.01,2.5e-4 0.0137,0.002 -10e-4,-0.001 -0.008,-0.004 -0.006,-0.004 0.0208,0.003 0.0417,0.008 0.0625,0.0117 0.0344,0.006 0.069,0.012 0.10352,0.0176 -0.17034,-0.10058 -0.38651,-0.17068 -0.65234,-0.18164 z m 27.81836,0.2793 c -0.002,0.001 -0.004,0.003 -0.006,0.004 v 0.002 c 0.009,0.0118 0.0118,0.0298 0.0176,0.0449 0.01,3.3e-4 0.0158,4e-5 0.0234,0 -0.0117,-0.0171 -0.0182,-0.0331 -0.0352,-0.0508 z m -29.32813,0.32813 c 0.006,0.005 0.028,0.007 0.0352,0.0117 -3.6e-4,-0.003 -0.006,-0.005 -0.006,-0.008 -0.01,-0.001 -0.0195,-0.003 -0.0293,-0.004 z"
         transform="translate(-1.9882213,-0.39764359)"
         style="fill:#d4d4d4;fill-opacity:1"
         id="path32" />
      <path
         d="m 172.70508,6.9511719 c -0.0186,0.012527 -0.0352,0.027079 -0.0527,0.041016 0.002,-4.583e-4 0.004,-0.00112 0.006,-0.00195 0.0188,-0.00844 0.064,-0.050577 0.0469,-0.039063 z m 0.0859,0.039063 c -0.0464,0.00406 -0.0908,0.010009 -0.125,0.011719 -0.009,4.477e-4 -0.0169,-0.00264 -0.0274,0 -0.008,0.00669 -0.0169,0.013009 -0.0254,0.019531 -0.10864,0.023414 -0.21794,0.00498 -0.32812,0.00781 -0.12515,0.00232 -0.2518,1.432e-4 -0.37696,0 -0.0938,-1.35e-5 -0.18751,-1.16e-5 -0.28125,0 -0.0237,0.0032 -0.0484,0.00159 -0.0723,0.00195 -0.0136,2.06e-4 -0.0273,-0.00209 -0.041,-0.00195 -0.0644,3.6e-6 -0.12889,1.86e-5 -0.19336,0 -0.0155,0.00499 -0.0311,0.010018 -0.0469,0.013672 -0.11506,0.026652 -0.0936,0.021484 -0.19141,0.021484 h -0.23437 c -0.0123,0.00182 0.006,-0.0014 -0.0352,0.00781 -0.008,0.00186 -0.0154,0.00625 -0.0234,0.00977 -0.024,0.00578 -0.048,0.013248 -0.0723,0.017578 -0.066,0.01174 -0.0805,0.00726 -0.14844,0.00586 -0.062,-9.5e-4 -0.12475,-6.938e-4 -0.1875,-0.00391 0.0843,0.1125436 0.41677,0.1918099 1.02344,0.2167969 0.8263,0.034036 1.3536,-0.1065227 1.38672,-0.328125 z m 23.7246,0.046875 c 0.14754,0.1226682 0.65858,0.203125 1.47266,0.203125 0.27248,0 0.4692,-0.018589 0.67188,-0.035156 -0.11613,0.00136 -0.23364,-6.776e-4 -0.34961,0 -0.0869,7.005e-4 -0.17287,1.012e-4 -0.25977,0 -0.0272,-0.00196 -0.0549,0.00325 -0.082,0 -0.10533,-0.012644 -0.1191,-0.023408 -0.2168,-0.037109 -0.23795,-0.033365 0.13298,0.030659 -0.18359,-0.027344 -0.026,-0.00408 -0.0522,-0.00694 -0.0781,-0.011719 -0.0385,-0.00711 -0.0765,-0.017478 -0.11523,-0.023437 -0.12707,-0.019589 -0.1143,-0.010718 -0.24219,-0.017578 -0.13535,-0.00726 -0.27097,-0.016921 -0.40625,-0.025391 -0.0702,-0.010185 -0.14083,-0.01534 -0.21094,-0.025391 z m 2.79688,0.00781 c -9.3e-4,0.01981 -0.018,0.033813 -0.0273,0.052734 0.0382,-0.013603 0.11652,-0.019937 0.14257,-0.035156 -0.0386,-0.00477 -0.0769,-0.010849 -0.11523,-0.017578 z m -0.60156,0.1523437 c -0.007,0.00206 -0.0144,0.00384 -0.0215,0.00586 0.0197,-0.0017 0.0474,-0.00206 0.0664,-0.00391 -0.013,-3.242e-4 -0.026,-0.00224 -0.0391,-0.00195 -0.002,4.22e-5 -0.004,-5.91e-5 -0.006,0 z M 71.869141,54.525391 c -0.54375,-0.0067 -1.124845,0.05292 -1.611329,0.179687 -0.972965,0.253544 -0.419531,0.477668 1.230469,0.498047 1.65,0.02038 2.446564,-0.18701 1.769531,-0.460937 -0.338515,-0.136961 -0.844921,-0.210082 -1.388671,-0.216797 z m 8.722656,52.882809 v 0.26368 c 0.0059,0.0131 0.01027,0.0157 0.01563,0.0234 0.04965,0.11254 0.01713,0.23059 0.01758,0.34766 0.0031,0.07 0.0025,0.13898 0.002,0.20898 -2.76e-4,0.0445 -8e-5,0.0883 0,0.13282 0.0646,0.1069 0.0401,0.22583 0.0332,0.34179 0.0012,0.10114 0.0038,0.20159 0.002,0.30274 -4.68e-4,0.0261 -0.0135,0.0365 -0.01758,0.0586 0.01436,0.067 0.02674,0.13472 0.02734,0.20313 -0.0163,0.088 -0.01,0.17477 -0.0098,0.26367 0.05373,0.1059 0.05141,0.2367 0.0332,0.35156 3.01e-4,0.0815 0.002,0.16264 0.002,0.24414 -9.3e-4,0.10165 -1.39e-4,0.20495 0,0.30664 0.2108,-0.71712 0.216874,-1.90039 -0.01563,-2.79101 -0.03086,-0.11843 -0.06024,-0.18527 -0.08984,-0.25782 z m -23.238281,0.33594 c -0.151576,-0.0229 -0.257122,0.34222 -0.28711,1.07031 -0.02837,0.68876 0.06339,1.17302 0.222656,1.33789 -3.46e-4,-0.0597 -5.6e-5,-0.12007 0,-0.17968 5.2e-5,-0.0811 3e-6,-0.16109 0,-0.24219 0.0047,-0.0185 0.02922,-0.12536 0.04492,-0.16016 0.01217,-0.027 0.02899,-0.0511 0.04102,-0.0781 0.01094,-0.0244 -0.0064,-0.0167 -0.002,-0.043 0.0048,-0.0284 0.01418,-0.0562 0.02148,-0.084 0.0083,-0.0679 0.02633,-0.14117 0.04687,-0.20117 -0.0013,0 -0.0036,0.004 -0.0039,0.002 -0.01952,-0.10152 0.03646,-0.25155 0.03516,-0.36719 -9e-4,-0.007 -0.0029,-0.0145 -0.002,-0.0215 -0.0054,-0.0585 0.025,-0.10836 0.0332,-0.16406 0.0098,-0.0669 0.0049,-0.13798 0.002,-0.20508 -0.0088,-0.13314 0.0044,-0.15191 0.05078,-0.20117 0.011,-0.0263 0.02735,-0.0384 0.04492,-0.0547 0.01069,-0.0125 0.01836,-0.0234 0.02539,-0.0312 -0.002,-0.004 -0.0039,-0.007 -0.0059,-0.0117 -0.02334,0.0195 -0.04456,0.0414 -0.06641,0.0625 -0.0035,0.007 -0.0016,0.0241 -0.0098,0.0234 -0.0079,-7e-4 -0.0049,-0.0155 -0.0039,-0.0234 0.007,-0.0587 0.01675,-0.11608 0.02539,-0.17383 -0.0768,-0.14354 -0.150379,-0.24444 -0.21289,-0.25391 z m -1,13 c -0.151576,-0.0229 -0.257122,0.34222 -0.28711,1.07031 -0.03152,0.76532 0.08619,1.27996 0.279297,1.38086 -0.0041,-0.0401 0.02473,-0.0798 0.0332,-0.12109 0.01447,-0.0705 0.0235,-0.14179 0.03516,-0.21289 0.01266,-0.0534 0.02138,-0.1081 0.03125,-0.16211 v -0.002 -0.20899 -0.24805 -0.33203 -0.34765 -0.47852 -0.002 c 0,-0.0925 0.026,-0.15622 0.0625,-0.19922 -0.05507,-0.0821 -0.107465,-0.12963 -0.154296,-0.13672 z m 25.101562,7.11524 c -0.04019,-0.015 -0.0772,0.006 -0.111328,0.0527 0.0672,0.0283 0.126953,0.0956 0.126953,0.23437 v 0.54493 c 0.008,0.0212 0.01462,0.0491 0.02148,0.0664 0.02612,0.0654 0.02144,0.11274 0.02344,0.18164 -0.0109,0.0789 -0.01,0.15723 -0.0098,0.23633 -0.0062,0.13666 0.02657,0.26798 0.03125,0.40234 0.0046,0.008 0.0094,0.0112 0.01172,0.0176 0.01323,0.0367 0.02475,0.0729 0.03125,0.11133 0.0056,0.0331 8.26e-4,0.0682 0.0039,0.10156 0.0011,0.0108 0.0072,0.0207 0.0098,0.0312 0.0054,0.0213 0.0091,0.043 0.01367,0.0645 0.0235,0.0982 -0.001,0.19632 0.002,0.29492 0.02859,-0.0193 0.01447,-0.0132 0.03125,0.0664 0.01364,0.0647 0.0055,0.12926 0.0039,0.19336 0.003,0.026 0.01008,0.0426 0.01758,0.125 2.75e-4,0.003 0.0015,0.007 0.002,0.01 0.258316,-0.69093 0.257205,-1.77384 -0.01367,-2.44531 -0.06935,-0.17188 -0.135023,-0.26667 -0.195313,-0.28906 z m -0.289062,0.99218 c -0.0033,0.0588 -0.0056,0.12788 -0.0078,0.19141 h 0.002 c 0.0012,-0.0344 -0.0012,-0.0692 0.0039,-0.10352 0.0013,-0.0155 0.0029,-0.0429 0.0059,-0.043 0.0063,0 0.01783,0.01 0.01563,0.01 -0.01252,-0.0326 -0.0098,-0.0375 -0.01953,-0.0547 z m -0.01367,0.38086 c -6.93e-4,0.0445 -0.0026,0.0821 -0.0039,0.125 0.0099,0.002 0.01785,0.0112 0.02734,0.0156 -0.0063,-0.0409 -0.01234,-0.0816 -0.01367,-0.12305 -0.0041,-0.006 -0.0056,-0.0111 -0.0098,-0.0176 z m 32.232426,0.48633 c -0.002,0.0438 -0.002,0.12671 -0.004,0.17383 0.001,4.1e-4 0.003,-4.5e-4 0.004,0 v -0.0781 z m -0.0195,1.14453 c 0.006,0.002 0.0113,0.006 0.0176,0.008 2e-5,-0.003 -2e-5,-0.005 0,-0.008 -0.005,2.5e-4 -0.0105,1.8e-4 -0.0176,0 z m 0.0176,0.0137 c -0.003,0.001 -0.0127,-4e-4 -0.0176,0.002 -8e-5,0.006 9e-5,0.0114 0,0.0176 0.006,7.8e-4 0.0117,-4e-4 0.0176,0.002 3e-5,-0.002 -3e-5,-0.004 0,-0.006 4e-5,-0.005 -4e-5,-0.0104 0,-0.0156 z m -31.949216,0.0176 c -0.0027,4.5e-4 -0.0052,-0.001 -0.0078,0.002 0.001,0.006 0.0023,0.0118 0.0039,0.0176 0.0159,-9.9e-4 0.03029,0.01 0.04687,0.004 -0.01964,-0.0149 -0.01878,-0.003 -0.04297,-0.0234 z m 31.916016,0.875 c -4e-5,0.004 4e-5,0.006 0,0.01 0.003,0.002 0.004,0.003 0.006,0.004 3.2e-4,-0.002 0.002,-0.004 0.002,-0.006 -0.005,-0.007 -0.004,-0.004 -0.008,-0.008 z m 0.51367,1.73242 c -5.5e-4,0.006 -0.002,0.0249 -0.002,0.0254 -0.008,0.0661 -0.004,0.13273 -0.002,0.19922 h 0.002 c 0.001,-0.0744 -6.5e-4,-0.14777 0.002,-0.22461 z m -0.23242,0.0937 c -2.8e-4,0.008 -0.002,0.0127 -0.002,0.0215 -0.002,0.0454 -6e-5,0.0894 0,0.13476 6.2e-4,0.008 -7.5e-4,0.0169 0.002,0.0254 z M 9.734375,134.95703 c -9.517e-4,0.002 -0.00103,0.004 -0.00195,0.006 h 0.00195 c -3.608e-4,-0.002 3.624e-4,-0.004 0,-0.006 z m 45.720703,0.90235 c -0.18087,-0.0674 -0.308594,0.50781 -0.308594,1.53906 0,0.99984 0.120954,1.56276 0.292969,1.53515 0.0038,-0.0208 0.0064,-0.0418 0.01172,-0.0625 0.0017,-0.007 0.01042,-0.0106 0.01172,-0.0176 0.0027,-0.0147 -9e-6,-0.03 0,-0.0449 4.3e-5,-0.0691 -0.0015,-0.13793 -0.002,-0.20703 -4.03e-4,-0.0966 0.0025,-0.19441 0.0039,-0.29101 -0.0019,-0.0493 -0.0098,-0.0974 -0.01172,-0.14649 -0.0033,-0.0838 0.01736,-0.16574 0.0293,-0.24804 0.005,-0.0243 0.01282,-0.0496 0.01563,-0.0742 0.0023,-0.02 -2.4e-5,-0.0385 0,-0.0586 1.22e-4,-0.10366 -0.0016,-0.20884 -0.002,-0.3125 -4e-4,-0.11957 6e-5,-0.2379 0.0039,-0.35742 0.01607,0.0284 0.05583,0.1152 0.04883,0.084 -0.0094,-0.0425 -0.04426,-0.0754 -0.05664,-0.11719 -0.0081,-0.0272 -0.0034,-0.0575 -0.0039,-0.0859 -10e-4,-0.0605 -0.0012,-0.12114 0,-0.18164 0.0054,-0.26844 0.0096,-0.28023 0.02734,-0.54492 0.007,-0.10458 0.04492,-0.16512 0.0918,-0.20313 -0.05356,-0.11053 -0.104673,-0.18732 -0.152344,-0.20507 z M 9.84375,136.14062 c -0.00677,0.0246 -0.018442,0.0485 -0.017578,0.0742 0.00341,0.017 -0.00335,0.0314 -0.00195,0.0469 0.00549,0.002 0.00837,0.009 0.013672,0.0117 2.993e-4,-0.0457 0.0065,-0.0863 0.00586,-0.13282 z m 103.67578,0.33985 c 2e-5,0.002 -2e-5,0.004 0,0.006 3.8e-4,-0.002 0.002,-0.004 0.002,-0.006 z M 9.7382812,137.27148 c -0.0013,0.003 -0.00264,0.005 -0.00391,0.008 -0.00337,0.005 -0.00275,0.0109 -0.00586,0.0156 -0.00439,0.0306 -0.00192,0.0616 -0.00977,0.0918 0.00903,-0.0347 0.01149,-0.0789 0.019531,-0.11524 z m 44.7167968,16.5879 c -0.18087,-0.0674 -0.308594,0.50781 -0.308594,1.53906 0,0.85937 0.08857,1.40173 0.222657,1.51953 -9.4e-5,-0.0239 0.0039,-0.0556 0,-0.0644 -0.0055,-0.0638 -0.0025,-0.11888 0.01172,-0.18164 0.0044,-0.0196 0.008,-0.04 0.01563,-0.0586 0.0011,-0.003 0.0076,0.001 0.0078,-0.002 0.0017,-0.0235 -0.0027,-0.0468 -0.0039,-0.0703 0.0017,-0.0721 -6.52e-4,-0.0657 0.01172,-0.12891 0.006,-0.0309 0.01769,-0.0606 0.02148,-0.0918 0.0037,-0.03 0.0018,-0.0619 0.0059,-0.0918 0.0031,-0.023 0.01013,-0.0439 0.01563,-0.0664 0.0055,-0.0119 0.0228,-0.0461 0.02344,-0.0566 0.0019,-0.031 -0.0025,-0.0608 -0.0039,-0.0918 -0.0047,-0.10417 -0.01529,-0.20917 0.0059,-0.3125 0.0059,-0.0297 0.01283,-0.0604 0.01953,-0.0898 0.0039,-0.0172 0.01157,-0.0333 0.01367,-0.0508 0.0068,-0.057 -0.005,-0.11663 0,-0.17383 v -0.47656 -0.20899 -0.52929 c 0,-0.0843 0.02143,-0.14582 0.05273,-0.18946 -0.03877,-0.064 -0.07592,-0.10991 -0.111328,-0.12304 z m 0.378906,1.87109 c -0.0025,0.0123 -0.006,0.028 -0.0078,0.0371 -0.0029,0.0142 0.0012,0.0287 0,0.043 0.0026,-0.0267 0.0057,-0.0532 0.0078,-0.0801 z m -0.40039,1.19922 c -0.002,-7.4e-4 -0.0022,0.003 -0.0039,0.002 0.0099,-2.6e-4 0.01907,0.006 0.0293,0.002 -0.0041,-0.002 -0.02214,-0.003 -0.02539,-0.004 z m -0.978516,15.92969 c -0.18087,-0.0674 -0.308594,0.50781 -0.308594,1.53906 0,0.64606 0.05448,1.08525 0.136719,1.32422 1.8e-5,-0.0357 6.4e-5,-0.0713 0,-0.10743 0.0034,-0.0428 -0.0065,-0.0885 0,-0.13085 0.004,-0.0261 0.01178,-0.0523 0.01758,-0.0781 0.0032,-0.0401 0.04168,-0.0673 0.05078,-0.10547 9.12e-4,-0.004 -0.01391,-0.0663 -0.01367,-0.0723 0.0011,-0.0266 0.0065,-0.0537 0.0098,-0.0801 -0.05113,-0.017 0.02808,-0.0373 0.02148,-0.0566 -6e-4,-0.002 -0.0041,-0.001 -0.0059,0.002 -6e-4,-0.007 -0.003,-0.0145 -0.002,-0.0215 0.0062,-0.0459 0.01435,-0.0693 0.02539,-0.10938 l 0.0293,-0.0488 c 5.34e-4,-0.0477 0.0035,-0.0883 0.01758,-0.12109 -0.002,0.008 0.0017,-0.0154 0.002,-0.0234 1e-4,-0.083 -0.01926,-0.16645 0.0039,-0.24805 0.0049,-0.0159 0.0078,-0.0341 0.01563,-0.0488 v -0.002 c 8.4e-4,-0.0104 0.0029,-0.0208 0.0039,-0.0312 -0.0039,-0.0528 -0.01,-0.10541 -0.002,-0.1582 0.0063,-0.0166 0.01253,-0.0325 0.01953,-0.0488 0.0017,-0.003 0.004,-0.0114 0.0059,-0.0117 4.4e-4,-0.0651 -2.03e-4,-0.13022 0,-0.19531 -4.9e-4,-0.0156 5.72e-4,-0.0313 0,-0.0469 -0.0021,-0.0566 -0.0052,-0.11313 -0.0039,-0.16993 0.0022,-0.0119 0.0065,-0.0319 0.0098,-0.0488 0.0012,-0.0189 -0.001,-0.0378 0.002,-0.0566 6.7e-5,-0.0111 -0.0017,-0.0221 -0.002,-0.0332 -0.01302,-0.031 -0.02728,-0.0608 -0.04102,-0.0918 h -0.002 c -0.04134,-0.0933 -0.01965,-0.16023 0.01953,-0.19921 -0.0026,-0.0293 -0.0047,-0.0585 -0.0059,-0.0879 -0.0022,-0.0559 0,-0.11012 0,-0.16602 v -0.1875 c 0,-0.0259 0.01078,-0.0382 0.01563,-0.0586 -0.0066,-0.004 -0.01306,-0.0171 -0.01953,-0.0195 z m -0.949219,17.04687 c 0.0014,0.003 -0.006,0.0161 -0.0098,0.0234 0.0079,-0.004 0.0156,-0.006 0.02344,-0.006 2.32e-4,-0.001 -2.17e-4,-0.003 0,-0.004 -0.0048,-0.005 -0.0089,-0.008 -0.01367,-0.0137 z m -0.207031,0.0957 c -0.0014,0.003 -0.0025,0.0121 -0.0039,0.0156 h 0.002 c -2.6e-5,-0.005 0.0014,-0.0105 0.002,-0.0156 z m -0.0957,0.44532 c -0.03412,0.24887 -0.05664,0.5538 -0.05664,0.95117 0,0.13104 0.01555,0.19533 0.01953,0.31054 -1.8e-5,-0.0316 -5.3e-5,-0.0624 0,-0.0937 0.0017,-0.0201 0.01027,-0.0389 0.01367,-0.0586 9.99e-4,-0.006 -9.27e-4,-0.0135 0.002,-0.0195 0.0048,-0.0282 0.01089,-0.0515 0.01172,-0.0801 -0.0019,-0.0552 0.01552,-0.10876 0.01172,-0.16406 -0.0032,-0.034 -0.0023,-0.0675 -0.002,-0.10156 -1.21e-4,-0.0331 -3.2e-5,-0.0665 0,-0.0996 5.8e-5,-0.0448 4e-6,-0.09 0,-0.13477 v -0.0723 c 0.0054,-0.0124 0.01004,-0.0248 0.01563,-0.0371 -0.0023,-10e-4 -0.0017,-0.004 -0.002,-0.006 -8e-4,-0.007 5.87e-4,-0.0164 0,-0.0234 -0.0012,-0.0348 -0.0019,-0.0306 0.0059,-0.0625 -0.0027,-0.0163 -0.006,-0.0326 -0.0078,-0.0488 -0.0026,-0.0235 -0.0015,-0.0468 -0.0039,-0.0703 -0.0018,-0.0175 -0.0066,-0.0352 -0.0078,-0.0527 -0.0023,-0.0337 0.0025,-0.0678 0,-0.10156 -6.9e-5,-0.0117 7.3e-5,-0.0234 0,-0.0351 z m 0.07617,1.56835 -0.002,0.002 c -9.73e-4,0.008 -2.42e-4,0.0174 0,0.0254 1.08e-4,-0.009 0.0018,-0.0182 0.002,-0.0273 z m 0.234375,0.55665 c -10e-7,0.0247 2e-6,0.0494 0,0.0742 v 0.01 c 8.25e-4,-0.004 0.0016,-0.008 0.002,-0.0117 0.0014,-0.0245 -0.002,-0.0478 -0.002,-0.0723 z m 62.390628,40.94921 c -0.3474,-0.0143 -0.74258,0.0489 -1.10352,0.19336 -0.0692,0.0277 -0.0981,0.0528 -0.14062,0.0781 0.071,0.003 0.14149,3.5e-4 0.21289,-0.004 0.0695,-0.001 0.13948,0.002 0.20898,0.002 0.11586,-5.1e-4 0.23179,-5e-5 0.34766,0 0.21411,-0.0458 0.43332,-0.0304 0.65039,-0.0254 0.11735,0.005 0.23617,5e-5 0.35351,0 0.0791,5.1e-4 0.15744,2.2e-4 0.23633,0 -0.17141,-0.1448 -0.44244,-0.23082 -0.76562,-0.24414 z m 21,0 c -0.0949,-0.004 -0.19847,0.0118 -0.29883,0.0195 0.0781,0.001 0.15612,-9.6e-4 0.23437,0.002 0.0803,0.003 0.16189,0.007 0.24219,0.01 0.009,7.5e-4 0.0182,4.4e-4 0.0273,0.002 -0.0697,-0.0102 -0.13006,-0.0301 -0.20508,-0.0332 z m 0.60742,0.1543 c 0.002,0.006 0.005,0.0124 0.006,0.0195 0.009,-1.6e-4 0.0182,1.7e-4 0.0273,0 -0.0113,-0.006 -0.0214,-0.0136 -0.0332,-0.0195 z"
         transform="translate(-1.9882213,-0.39764359)"
         style="fill:#b9b9b9;fill-opacity:1"
         id="path30" />
      <path
         id="path26"
         d="m 200,204.68709 c 0,-0.1721 1.4625,-1.6346 3.25,-3.25 l 3.25,-2.93709 -2.93709,3.25 C 200.82513,204.77946 200,205.45965 200,204.68709 Z"
         style="fill:#a7a7a7;fill-opacity:1" />
      <path
         d="m 186.37109,6.7207031 c -5.62735,-0.043254 -11.24927,0.1311652 -16.85742,0.5058594 -0.002,8.375e-4 -0.004,0.00313 -0.006,0.00391 -0.0716,0.024363 -0.13363,0.021249 -0.20703,0.011719 -0.003,-2.254e-4 -0.005,3.837e-4 -0.008,0 -0.0162,0.0011 -0.0326,8.791e-4 -0.0488,0.00195 -0.006,0.00289 -0.0119,0.00529 -0.0176,0.00781 -0.0514,0.00683 -0.10259,0.015111 -0.15429,0.019531 -0.12051,0.010297 -0.24091,0.00637 -0.36133,0.00586 -0.10546,0.00742 -0.21097,0.013914 -0.31641,0.021484 -0.0506,0.00827 -0.10035,0.02045 -0.11914,0.021484 -0.0217,-0.00381 -0.0428,-0.00795 -0.0644,-0.011719 C 149.90403,8.6381173 131.75237,12.197275 114.09375,17.988281 70.796756,32.187192 37.107729,58.402605 21.037109,90.398438 2.7873141,126.73297 7.3679829,168.93988 33.572266,205.90625 l 6.634765,9.36133 11.496094,4.08008 c 20.390691,7.23618 40.011919,12.01499 57.392575,13.97851 0.70641,0.0798 1.45008,0.15099 2.22266,0.21485 h 0.24023 0.25977 c 0.0521,0.004 0.1063,-0.006 0.1582,0 0.0351,0.004 0.0969,0.0203 0.13477,0.0293 0.0264,0.007 0.0513,0.0192 0.0762,0.0312 0.95729,0.0701 1.99074,0.11635 3.02344,0.16406 0.0743,-1.9e-4 0.14875,6e-5 0.22265,0 0.0909,5.9e-4 0.18059,2e-4 0.27149,0 0.0417,-0.004 0.0812,0.0117 0.12109,0.0234 11.12904,0.46211 25.79878,-0.29868 33.83399,-1.94922 53.02784,-10.89257 85.97743,-53.33261 106.74023,-137.482418 4.10229,-16.626213 13.58789,-65.366299 13.58789,-69.820313 0,-1.380349 -2.45427,-2.616811 -10.78516,-5.433593 C 240.39781,12.745643 221.1683,8.8440864 201.89453,7.3808594 h -0.28125 -0.0508 c -0.09,0 -0.0554,0.00308 -0.17773,-0.021484 -0.0534,-0.01072 -0.0982,-0.024884 -0.15235,-0.021484 -0.0147,-0.00273 -0.0301,-0.00783 -0.0449,-0.011719 -0.67881,-0.049422 -1.35822,-0.089166 -2.03711,-0.1328125 -0.0369,0.011122 -0.0654,0.029958 -0.11523,0.027344 -0.10601,-0.00556 -0.2118,-0.025743 -0.31836,-0.023437 -0.002,4.22e-5 -0.004,-5.91e-5 -0.006,0 -0.009,0.00263 -0.0181,0.00526 -0.0273,0.00781 -0.12368,0.00202 -0.24929,-7.231e-4 -0.37304,0 -0.0869,7.005e-4 -0.17287,1.012e-4 -0.25977,0 -0.0272,-0.00196 -0.0549,0.00325 -0.082,0 -0.10533,-0.012644 -0.1191,-0.023408 -0.2168,-0.037109 -0.23795,-0.033365 0.13298,0.030659 -0.18359,-0.027344 -0.026,-0.00408 -0.0522,-0.00694 -0.0781,-0.011719 -0.0385,-0.00711 -0.0765,-0.017478 -0.11523,-0.023437 -0.12707,-0.019589 -0.1143,-0.010718 -0.24219,-0.017578 -0.13535,-0.00726 -0.27097,-0.016921 -0.40625,-0.025391 -0.0663,-0.00962 -0.13304,-0.013891 -0.19922,-0.023437 -3.386,-0.1798737 -6.77173,-0.2923445 -10.15625,-0.3183594 z M 71.416016,55.027344 c 4.310071,-0.02563 5.166979,0.394771 6.787109,2.371094 1.127184,1.375 2.440695,2.387498 2.917969,2.25 1.222948,-0.352326 1.088646,0.420795 -0.658203,3.798828 -1.306909,2.527283 -2.103609,2.951155 -5.558594,2.951172 -2.218335,0 -3.777337,-0.416997 -3.462891,-0.925782 0.314447,-0.508786 0.05204,-2.066962 -0.583984,-3.46289 l -1.15625,-2.539063 -1.960938,3.962891 c -1.078437,2.179714 -2.252397,3.963037 -2.607422,3.960937 -1.574981,-0.0091 -7.143171,-4.090904 -7.138671,-5.232422 0.0027,-0.695584 1.025516,-2.540172 2.273437,-4.099609 2.060262,-2.574562 2.895478,-2.850485 9.078125,-3 0.768947,-0.0186 1.454588,-0.03149 2.070313,-0.03516 z m 12.246093,12.519531 c 1.135952,0.01908 1.852839,0.969045 2.910157,3.013672 1.350813,2.612185 1.436642,3.82233 0.498046,6.955078 -1.660013,5.540631 -5.656653,9.882813 -9.097656,9.882813 -1.879725,0 -2.948386,0.575026 -3.166015,1.705078 -0.214707,1.114884 -0.978253,0.26511 -2.203125,-2.451172 -1.856666,-4.117349 -1.854517,-4.186654 0.238281,-7.455078 1.161986,-1.814731 2.119606,-2.789139 2.128906,-2.164063 0.0093,0.625075 1.307248,1.327063 2.884766,1.558594 l 2.86914,0.419922 -1.865234,-3.056641 c -2.4885,-4.080773 -2.374784,-4.82865 1.033203,-6.841797 1.749214,-1.033286 2.886013,-1.581249 3.769531,-1.566406 z m -26.789062,0.851563 c 3.025718,0 4.242194,0.545188 5.5,2.464843 1.749513,2.670094 2.159234,4.98821 0.724609,4.101563 -0.489839,-0.302737 -1.551383,0.458628 -2.359375,1.691406 -1.45289,2.216716 -1.42103,2.237455 2.890625,1.890625 l 4.359375,-0.351563 v 4.896485 c 0,4.884985 -0.0091,4.897451 -3.503906,5.132812 -2.763379,0.186104 -4.131197,-0.407231 -6.482422,-2.8125 -4.533158,-4.637355 -6.269967,-8.61591 -5.386719,-12.33789 0.414657,-1.747356 0.669227,-3.513284 0.564454,-3.925781 -0.104777,-0.4125 1.556615,-0.75 3.693359,-0.75 z m 1.457031,28 h 10.685547 10.683594 l 0.636719,6.750002 c 0.350622,3.7125 0.690306,10.35 0.753906,14.75 0.0636,4.4 0.405005,10.56144 0.757812,13.69336 l 0.640625,5.69531 15.417969,-6.44531 c 8.47966,-3.54442 15.54838,-6.44336 15.70898,-6.44336 0.1606,0 0.42229,3.58937 0.58204,7.97851 l 0.29101,7.98047 18.49024,-7.98047 c 10.16969,-4.38914 18.83219,-7.97851 19.25,-7.97851 0.41781,0 0.75976,3.58822 0.75976,7.97461 v 7.97461 l 2.75,-1.04102 c 1.5125,-0.57284 9.78867,-4.16106 18.39063,-7.97461 8.60197,-3.81355 15.91447,-6.93359 16.25,-6.93359 0.33554,0 0.60937,15.525 0.60937,34.5 v 34.5 H 121.46094 51.931641 l 0.27539,-3.07032 c 6.5e-4,-0.0169 -0.0013,-0.0339 0,-0.0508 l 0.002,0.002 c -0.0099,-0.0307 -0.01163,-0.006 -0.01563,-0.0508 -0.0045,-0.0495 0.02008,-0.0961 0.03125,-0.14258 7.21e-4,-0.003 0.0031,-0.003 0.0039,-0.006 l 0.261718,-2.93164 c 0.247907,-2.77593 0.902883,-13.73799 1.566407,-25.66211 0.0018,-0.1718 0.0062,-0.34435 -0.0078,-0.51563 0.0024,-0.0861 -0.0023,-0.064 0.02148,-0.15429 0.0012,-0.005 0.01128,-0.003 0.01172,-0.008 0.02892,-0.31811 -0.03622,0.17464 0.01953,-0.21484 0.0024,-0.007 0.0061,-0.014 0.0078,-0.0215 0.0029,-0.0523 0.0049,-0.0942 0.0078,-0.14649 -0.008,-0.0465 -0.01415,-0.0921 0.0059,-0.11914 v -0.002 c 0.06279,-1.13477 0.119071,-2.02756 0.181641,-3.17578 0.0027,-0.004 -0.0065,-0.007 0.002,-0.0117 0.0717,-1.31599 0.138406,-2.39582 0.208984,-3.71875 0.199322,-3.73616 0.435604,-7.74138 0.666016,-11.69532 -3e-6,-0.003 3e-6,-0.005 0,-0.008 -5e-4,-0.11365 -0.0034,-0.22623 0,-0.33984 0.0012,-0.0758 -0.0183,-0.15086 0,-0.22656 0.0081,-0.0467 0.02009,-0.0935 0.02539,-0.14063 0.0037,-0.0326 0.0029,-0.065 0.0059,-0.0977 0.0062,-0.0682 0.01732,-0.13557 0.02734,-0.20312 0.406173,-6.92527 0.822965,-13.76761 1.205078,-19.48828 v -0.11719 -0.002 c 0,-0.0156 0.0084,-0.0209 0.0098,-0.0352 0.230136,-3.44065 0.445074,-6.51429 0.623047,-8.82226 -1.3e-5,-0.0137 -1.01e-4,-0.0273 0,-0.041 5.8e-5,-0.008 0.0039,-0.012 0.0039,-0.0176 0.02185,-0.28291 0.05346,-0.75476 0.07422,-1.01562 z"
         transform="translate(-1.9882213,-0.39764359)"
         style="fill:#9e9e9e;fill-opacity:1"
         id="path24" />
    </g>
    <path
       d="m 184.73438,7.0605469 c -19.6787,0 -34.99033,1.8101071 -53.48243,6.3242191 -55.203088,13.475608 -97.528672,45.167808 -113.499997,84.986328 -5.146334,12.830456 -7.384766,24.424286 -7.384765,38.261716 -1e-6,13.04006 2.04398,24.54946 6.636718,37.37891 4.09273,11.43272 9.496105,21.41237 18.560547,34.27344 l 4.818359,6.83398 9.746094,3.39648 c 14.369388,5.00785 21.453183,7.1468 32.353516,9.77149 10.904242,2.62563 22.732858,4.61322 30.675778,5.1543 13.66421,0.93082 29.9427,-0.18333 40.57032,-2.77735 32.05257,-7.82351 56.17705,-27.56885 74.91406,-61.31445 12.40416,-22.34004 23.14136,-53.56692 30.80469,-89.580079 4.50099,-21.15203 10.18359,-51.45345 10.18359,-54.304687 0,-2.154526 -0.86769,-2.698318 -8.94727,-5.609375 -5.69364,-2.051411 -17.66873,-5.494325 -24.45507,-7.03125 C 218.04525,8.7061743 203.34445,7.0605469 184.73438,7.0605469 Z M 70.126953,54.927734 c 5.412629,-0.01096 6.513413,0.328351 8.816406,2.726563 0.864524,0.900269 1.892134,1.636719 2.285157,1.636719 1.065411,0 0.894991,1.342434 -0.50586,3.970703 -1.441565,2.704652 -2.310747,3.1875 -5.724609,3.1875 -3.359321,0 -3.791016,-0.204377 -3.791016,-1.789063 0,-0.71818 -0.336764,-2.055981 -0.748047,-2.974609 l -0.748046,-1.671875 -1.947266,3.71289 c -1.071061,2.041112 -2.209282,3.757564 -2.53125,3.814454 -1.114201,0.196897 -6.414253,-3.301017 -7.185547,-4.742188 -0.496979,-0.928621 1.0841,-4.016558 3.015625,-5.888672 1.665037,-1.613813 3.300761,-1.970732 9.064453,-1.982422 z m 13.746094,12.533204 c 1.122684,0.04354 1.791048,0.968591 2.859375,3.138671 1.117755,2.270478 1.255025,2.878352 1.044922,4.652344 -0.295585,2.495758 -2.194951,6.661279 -4.09375,8.978516 -1.553252,1.895539 -3.885528,3.279025 -5.601563,3.322265 -0.610149,0.01537 -1.441225,0.158531 -1.847656,0.31836 -0.406432,0.159833 -0.945013,0.675146 -1.197266,1.146484 -0.269479,0.503529 -0.650328,0.739343 -0.923828,0.570313 -0.806266,-0.498299 -2.905924,-5.383694 -2.90625,-6.763672 -3.3e-4,-1.394453 1.455787,-4.238532 2.78711,-5.44336 0.726944,-0.657876 0.849818,-0.663035 1.49414,-0.08008 0.570093,0.515926 3.379704,1.422894 4.535157,1.464844 0.14727,0.0053 -0.416916,-1.197577 -1.25586,-2.673828 -0.838945,-1.476252 -1.636182,-3.06602 -1.771484,-3.533203 -0.368716,-1.273151 1.331028,-3.021502 4.18164,-4.300782 1.185274,-0.531918 2.021702,-0.822997 2.695313,-0.796874 z m -26.210938,0.734374 c 2.487735,0.11782 4.135513,1.183191 5.3125,3.345704 1.378638,2.533017 1.411721,3.65625 0.107422,3.65625 -0.606291,0 -1.247942,0.408153 -1.722656,1.09375 -1.623193,2.344264 -1.767562,2.236475 2.626953,1.96875 l 4.039063,-0.246094 v 4.529297 c 0,3.586046 -0.130104,4.657454 -0.625,5.152343 -0.925941,0.925941 -5.561233,0.852079 -7.128907,-0.113281 -1.569675,-0.966592 -4.657426,-4.310805 -6.138672,-6.646484 -1.77055,-2.791867 -2.182639,-5.266774 -1.515624,-9.117188 l 0.550781,-3.179687 1.960937,-0.289063 c 0.495625,-0.07317 0.967517,-0.122059 1.414063,-0.146484 0.390727,-0.02137 0.76375,-0.02535 1.11914,-0.0078 z m 11.357422,28.078126 c 10.146687,0 10.93676,0.04962 10.94336,0.695312 0.0039,0.382732 0.179023,2.304943 0.390625,4.27344 0.211602,1.96833 0.565088,8.23167 0.785156,13.91797 0.424278,10.96298 1.135966,20.52164 1.580078,21.24023 0.174049,0.28162 5.059264,-1.559 13.960938,-5.26172 18.135752,-7.54371 16.963202,-7.10417 17.207032,-6.46875 0.11143,0.29039 0.33173,3.87169 0.49023,7.95703 0.20076,5.17484 0.42217,7.3724 0.72852,7.24414 0.24185,-0.10126 6.89095,-2.96177 14.77734,-6.35547 19.52428,-8.40165 22.16363,-9.4476 22.64258,-8.9707 0.2269,0.22592 0.45716,3.63366 0.53516,7.9336 0.0752,4.14471 0.17731,7.53515 0.22851,7.53515 0.2947,0 6.68812,-2.72937 19.04688,-8.13281 7.69424,-3.36405 14.90932,-6.48045 16.03515,-6.92383 l 2.04883,-0.80664 0.25196,0.87305 c 0.13928,0.48008 0.36427,16.12893 0.5,34.77344 l 0.24804,33.89843 H 121.51953 51.621094 l 0.242187,-1.88867 c 0.353859,-2.75235 1.28994,-17.23362 2.447266,-37.875 1.315146,-23.45619 2.018659,-34.49549 2.986328,-46.79102 0.433193,-5.50427 0.789063,-10.200782 0.789063,-10.437495 0,-0.298313 3.35399,-0.429704 10.933593,-0.429687 z"
       style="fill:#abca61;fill-opacity:1;stroke-width:0.397644"
       id="path36" />
  </g>
</svg>
