<?xml version="1.0" encoding="UTF-8" standalone="no"?>
<svg
   xmlns:dc="http://purl.org/dc/elements/1.1/"
   xmlns:cc="http://creativecommons.org/ns#"
   xmlns:rdf="http://www.w3.org/1999/02/22-rdf-syntax-ns#"
   xmlns:svg="http://www.w3.org/2000/svg"
   xmlns="http://www.w3.org/2000/svg"
   xmlns:sodipodi="http://sodipodi.sourceforge.net/DTD/sodipodi-0.dtd"
   xmlns:inkscape="http://www.inkscape.org/namespaces/inkscape"
   inkscape:version="1.0 (4035a4fb49, 2020-05-01)"
   sodipodi:docname="Serveis.svg"
   viewBox="0 0 272 237"
   height="237"
   width="272"
   id="svg10"
   version="1.1">
  <metadata
     id="metadata16">
    <rdf:RDF>
      <cc:Work
         rdf:about="">
        <dc:format>image/svg+xml</dc:format>
        <dc:type
           rdf:resource="http://purl.org/dc/dcmitype/StillImage" />
        <dc:title></dc:title>
      </cc:Work>
    </rdf:RDF>
  </metadata>
  <defs
     id="defs14" />
  <sodipodi:namedview
     inkscape:current-layer="g18"
     inkscape:window-maximized="1"
     inkscape:window-y="-8"
     inkscape:window-x="-8"
     inkscape:cy="102.20837"
     inkscape:cx="453.80195"
     inkscape:zoom="0.89662447"
     showgrid="false"
     id="namedview12"
     inkscape:window-height="1017"
     inkscape:window-width="1920"
     inkscape:pageshadow="2"
     inkscape:pageopacity="0"
     guidetolerance="10"
     gridtolerance="10"
     objecttolerance="10"
     borderopacity="1"
     bordercolor="#666666"
     pagecolor="#ffffff" />
  <g
     id="g18"
     inkscape:label="Image"
     inkscape:groupmode="layer">
    <path
       id="path38"
       d="m 102.25844,233.42926 c -16.438592,-2.26912 -28.067182,-5.03134 -46.049282,-10.9384 -18.88212,-6.20272 -19.6933,-6.75824 -27.86894,-19.08555 -9.33658,-14.07777 -16.45884,-30.71338 -19.5439002,-45.6491 -1.35086,-6.53995 -2.03841,-21.04874 -1.4125,-29.80696 1.36156,-19.05214 10.0246902,-39.487774 24.1797802,-57.038154 4.74211,-5.879563 16.06837,-16.847359 22.69379,-21.975557 27.21272,-21.06313 59.545162,-33.857109 98.982352,-39.1674151 12.7629,-1.7185523 41.6681,-1.8768885 54.37059,-0.2978299 19.61891,2.438845 37.91072,6.887898 54.78734,13.325733 3.80811,1.452659 4.28715,1.79106 4.04083,2.854493 -0.1537,0.663552 -1.28062,7.010393 -2.50427,14.104089 -4.46354,25.875809 -7.99336,42.967647 -12.53824,60.711781 -15.38667,60.07267 -36.90116,96.74098 -69.01402,117.62436 -9.22391,5.99841 -21.97344,11.25364 -33.2988,13.72544 -12.50013,2.72819 -33.50436,3.45177 -46.82473,1.61307 z m 1.92592,-22.96698 c 1.40759,-5.8417 2.01334,-6.76681 5.37884,-8.2146 4.29373,-1.84712 5.07358,-1.68124 8.79812,1.87137 2.58467,2.46535 3.66865,3.13676 5.06427,3.13676 2.18746,0 8.0186,-3.03417 9.5343,-4.96106 1.22752,-1.56054 1.14243,-3.14209 -0.43165,-8.02356 l -0.86037,-2.66814 2.60397,-3.04799 c 1.4322,-1.67639 3.18509,-3.19383 3.89532,-3.37209 0.71023,-0.17826 2.77539,0.0923 4.58924,0.60124 1.81386,0.50894 4.16181,0.8431 5.21769,0.74259 1.74594,-0.16621 2.13437,-0.56099 4.28977,-4.36004 3.22273,-5.68029 3.14803,-6.79947 -0.74507,-11.16254 -2.88011,-3.2278 -3.08831,-3.64321 -2.7603,-5.50741 1.05641,-6.00408 2.73878,-7.87159 7.09122,-7.87159 2.16388,0 3.02554,-0.28716 4.10714,-1.36877 1.23454,-1.23453 1.36817,-1.82243 1.36264,-5.99471 -0.003,-2.54426 -0.15501,-5.52587 -0.33697,-6.62579 l -0.33083,-1.99986 -5.21947,-0.98306 c -3.79601,-0.71497 -5.29388,-1.23414 -5.49232,-1.90368 -0.15007,-0.50633 -0.67241,-2.67719 -1.16075,-4.82413 -0.88674,-3.89845 -0.88623,-3.90484 0.39223,-4.91048 6.82877,-5.37152 6.9643,-5.67308 4.58506,-10.20234 -3.02398,-5.75663 -4.09518,-6.91424 -6.39815,-6.91424 -1.15778,0 -3.67016,0.48712 -5.58307,1.08248 l -3.47801,1.08248 -3.49947,-3.36037 -3.49947,-3.36037 1.35133,-3.59014 c 0.74322,-1.97457 1.35132,-4.244864 1.35132,-5.045087 0,-1.810736 -2.96555,-4.717254 -6.79089,-6.655696 -5.39989,-2.736341 -4.91868,-2.832251 -8.77094,1.74819 l -3.46157,4.115904 -3.73242,-1.351051 c -5.37944,-1.947237 -6.79947,-4.073389 -6.79947,-10.180555 v -2.511269 l -7.388832,0.404707 c -4.06385,0.222585 -7.46571,0.47806 -7.55968,0.567718 -0.094,0.08965 -0.68254,2.333586 -1.30792,4.986513 -1.32462,5.619159 -1.72071,5.994823 -7.41261,7.030374 -3.82943,0.696708 -3.88206,0.689648 -4.72483,-0.633755 -0.46875,-0.736072 -1.80297,-2.311714 -2.96495,-3.501427 -1.86968,-1.914324 -2.33779,-2.126581 -4.07005,-1.845477 -2.33667,0.379195 -8.26965,3.870015 -9.45591,5.563634 -1.12391,1.604613 -1.04896,2.772861 0.46241,7.207497 l 1.2759,3.74371 -3.44887,3.41822 -3.44887,3.41822 -4.00878,-1.44605 c -2.20483,-0.79533 -4.60409,-1.44604 -5.33169,-1.44604 -1.48281,0 -2.86782,1.69336 -5.66129,6.92172 l -1.7742,3.32066 2.22258,3.2729 c 2.90614,4.27949 3.81841,6.5563 3.7943,9.46975 -0.035,4.23199 -0.8571,4.99916 -7.04047,6.57026 l -5.48683,1.39412 -0.1558,7.07337 -0.1558,7.07338 2.66521,0.34998 c 4.66359,0.61239 8.14286,1.40904 8.90071,2.03799 0.4043,0.33554 0.73509,1.32709 0.73509,2.20345 0,0.87636 0.40734,2.61143 0.90521,3.85572 l 0.90521,2.26233 -3.41462,3.55598 c -2.4456,2.54684 -3.41462,3.97973 -3.41462,5.04919 0,2.15896 4.90954,11.4292 6.05293,11.4292 0.50666,0 2.67164,-0.50058 4.81106,-1.1124 2.13943,-0.61183 4.3971,-0.95213 5.01705,-0.75623 1.81167,0.57244 4.6433,2.95538 5.86952,4.93944 l 1.13493,1.83636 -1.39798,4.37759 c -0.76889,2.40767 -1.40118,4.55291 -1.4051,4.76718 -0.004,0.21427 2.05265,1.65719 4.57015,3.20647 5.39959,3.32294 8.17645,3.73886 9.67657,1.44937 1.285,-1.96115 6.10521,-4.20896 9.0257,-4.20896 3.00035,0 5.6156,1.28761 5.9669,2.93779 0.14573,0.68451 0.54823,2.70993 0.89445,4.50093 0.96599,4.99708 1.60568,5.38716 8.83434,5.38716 h 6.074042 z m 72.64386,-87.5227 c 0.36804,-0.36805 0.66917,-1.25881 0.66917,-1.97946 0,-2.41964 1.53423,-4.50983 3.76501,-5.12935 1.14966,-0.31928 2.59217,-0.5988 3.20558,-0.62117 0.61341,-0.0224 3.37376,-0.74252 6.13412,-1.60035 l 5.01882,-1.55968 3.13728,3.04485 3.13729,3.04484 3.52654,-2.84172 c 1.9396,-1.56296 3.72733,-2.84173 3.97272,-2.84173 0.72604,0 0.51,-2.67129 -0.3903,-4.82602 -1.35005,-3.23112 -1.02184,-4.6292 2.5347,-10.797034 4.32918,-7.507781 4.75766,-7.919391 8.57332,-8.235817 1.69863,-0.140861 3.35456,-0.576802 3.67985,-0.96875 0.78591,-0.946963 1.80671,-7.42395 1.41562,-8.98216 -0.21904,-0.872751 -1.10317,-1.495627 -3.03252,-2.136452 -3.32918,-1.105775 -4.32266,-2.148029 -4.80496,-5.040834 -0.20455,-1.226824 -1.12776,-4.560772 -2.05159,-7.408776 l -1.67969,-5.178184 2.28323,-2.477002 c 3.39653,-3.684796 3.18966,-4.820551 -2.07075,-11.369112 -1.18313,-1.47285 -1.50698,-1.444503 -6.02031,0.526983 l -2.84604,1.243191 -3.28808,-2.208371 c -1.80844,-1.214604 -4.72877,-3.022628 -6.48961,-4.017831 -3.97726,-2.247885 -4.88435,-3.512193 -4.88435,-6.807874 0,-1.427731 -0.31367,-2.84384 -0.69705,-3.14691 -0.67124,-0.53062 -8.15908,-2.373761 -9.64351,-2.373761 -0.39807,0 -0.89979,0.815559 -1.11495,1.812353 -0.5724,2.651953 -2.33001,5.87216 -3.56611,6.533707 -0.59225,0.316961 -1.87186,0.576293 -2.84358,0.576293 -0.97171,0 -4.0303,0.758357 -6.79685,1.685239 l -5.03011,1.685238 -2.69591,-2.521709 c -3.24666,-3.036871 -4.70691,-3.183491 -8.0187,-0.805139 -3.8424,2.759401 -4.44579,5.113353 -2.5073,9.781545 0.69156,1.665365 0.5777,1.985347 -2.6787,7.528236 -5.92075,10.077979 -4.98696,9.098009 -8.97209,9.415801 -4.16267,0.331945 -4.87212,1.019875 -5.39876,5.234962 -0.63699,5.098333 -0.30336,6.084799 2.23518,6.608737 3.19897,0.660254 5.13894,2.769359 5.89438,6.408285 0.34617,1.667465 1.2345,4.810854 1.97408,6.98531 0.73958,2.17445 1.34469,4.019804 1.34469,4.10078 0,0.08098 -1.00376,1.306996 -2.23059,2.72448 -1.43401,1.656875 -2.23059,3.123576 -2.23059,4.107096 0,1.80118 2.78657,6.42844 4.38709,7.28502 1.53203,0.81991 3.97906,0.71634 5.65056,-0.23918 0.76677,-0.43832 1.88727,-0.80584 2.49001,-0.8167 0.60273,-0.0109 4.01917,1.72821 7.59207,3.86464 6.79223,4.06143 7.03176,4.33055 8.30934,9.33618 0.32939,1.29055 0.89722,2.53083 1.26185,2.75618 1.93229,1.19423 8.78843,1.64319 9.7905,0.64113 z"
       style="fill:#abca61;fill-opacity:1;stroke-width:0.557647" />
    <path
       id="path40"
       d="m 169.84984,94.392902 c -3.66401,-1.196805 -6.92993,-3.336411 -9.83755,-6.444896 -4.42645,-4.732234 -5.99213,-9.84054 -4.87247,-15.897321 2.21863,-12.001669 11.62273,-19.323661 23.83968,-18.561472 8.26184,0.515438 15.24535,5.053328 18.48978,12.014659 1.34132,2.877987 1.48131,3.805755 1.48901,9.868401 0.007,5.82819 -0.14905,6.9862 -1.21241,8.973323 -1.73447,3.241236 -5.99108,7.240515 -9.57014,8.991589 -2.69717,1.319599 -3.83476,1.518087 -9.51961,1.660988 -4.37585,0.109997 -7.21363,-0.08505 -8.80629,-0.605271 z m 14.48705,-8.065498 c 4.28182,-2.646309 6.68201,-11.137279 4.65132,-16.454584 -2.38456,-6.24387 -9.76827,-9.624184 -16.09254,-7.367276 -7.41709,2.646899 -10.37597,10.281401 -6.78082,17.495916 1.59227,3.195272 5.11218,6.543218 7.73566,7.357733 2.72872,0.847187 8.33937,0.295137 10.48638,-1.031789 z"
       style="fill:#abca61;fill-opacity:1;stroke-width:0.557647" />
    <path
       id="path42"
       d="m 89.86265,183.82619 c -9.310917,-1.46346 -20.400148,-9.60681 -26.056772,-19.13472 -3.502928,-5.90026 -4.592222,-9.88117 -4.573637,-16.7147 0.03133,-11.51947 2.022635,-17.25435 8.302754,-23.91161 7.25931,-7.69525 13.669017,-11.10675 22.842907,-12.15789 14.834538,-1.69975 22.463478,0.50007 30.807238,8.8833 10.08922,10.13694 13.20116,25.65861 8.0906,40.35404 -3.81712,10.9761 -12.81738,19.43103 -23.22034,21.81338 -4.70809,1.07819 -12.275394,1.48392 -16.19275,0.8682 z m 15.69827,-10.95989 c 6.92683,-1.89472 13.36987,-7.41904 15.59778,-13.37366 4.01552,-10.73244 2.05945,-23.55569 -4.69466,-30.77637 -4.78292,-5.11333 -14.52242,-8.88102 -21.134599,-8.17584 -3.957971,0.42212 -11.887339,2.66572 -14.958426,4.23247 -5.14724,2.62593 -8.889549,7.52067 -10.793542,14.11737 -0.736943,2.55327 -0.898371,4.80602 -0.719279,10.03765 0.201596,5.88899 0.425714,7.17038 1.765016,10.09141 5.281795,11.51963 20.865849,17.69611 34.93771,13.84697 z"
       style="fill:#abca61;fill-opacity:1;stroke-width:0.557647" />
  </g>
</svg>
